<svg viewBox="0 0 40 40" fill="none" xmlns="http://www.w3.org/2000/svg"><path fill-rule="evenodd" clip-rule="evenodd" d="M8.75 11.666h22.5a5 5 0 015 5v18.333a5 5 0 01-5 5H8.75a5 5 0 01-5-5V16.666a5 5 0 015-5z" fill="#C12922"/><mask id="a" maskUnits="userSpaceOnUse" x="3" y="0" width="34" height="39"><path d="M8.75 0h14.223c.225 0 .441.092.598.253l12.443 12.791a.834.834 0 01.236.581V34a5 5 0 01-5 5H8.75a5 5 0 01-5-5V5a5 5 0 015-5z" fill="#fff"/></mask><g mask="url(#a)"><path d="M8.75 0h14.223c.225 0 .441.091.598.25l12.443 12.71a.828.828 0 01.236.578v20.244c0 2.744-2.238 4.968-5 4.968H8.75c-2.762 0-5-2.224-5-4.968V4.968C3.75 2.224 5.988 0 8.75 0z" fill="#F43F36"/><path d="M55-25H27.5a5 5 0 00-5 5v30a5 5 0 005 5H55a5 5 0 005-5v-30a5 5 0 00-5-5z" fill="#C12922"/><path d="M53.917-25H27.333c-2.669 0-4.833 2.224-4.833 4.968V8.782c0 2.744 2.164 4.968 4.833 4.968h26.584c2.669 0 4.833-2.224 4.833-4.968v-28.814c0-2.744-2.164-4.968-4.833-4.968z" fill="#FF7D77"/><path d="M20.625 18.75h-8.75a.625.625 0 100 1.25h8.75a.625.625 0 100-1.25zm7.5 3.75h-16.25a.625.625 0 100 1.25h16.25a.625.625 0 100-1.25zm0 3.75h-16.25a.625.625 0 100 1.25h16.25a.625.625 0 100-1.25zm0 3.75h-16.25a.625.625 0 100 1.25h16.25a.625.625 0 100-1.25z" fill="#fff"/></g></svg>