<svg xmlns="http://www.w3.org/2000/svg" fill="none" viewBox="0 0 56 56"><path fill="#43A5A1" d="M28 51c12.703 0 23-10.297 23-23S40.703 5 28 5 5 15.297 5 28s10.297 23 23 23z"/><path fill="#4687FF" d="M28 51c12.703 0 23-10.297 23-23S40.703 5 28 5 5 15.297 5 28s10.297 23 23 23z"/><path fill="url(#paint0_linear)" d="M28 51c12.703 0 23-10.297 23-23S40.703 5 28 5 5 15.297 5 28s10.297 23 23 23z"/><g filter="url(#filter0_di)"><path fill="url(#paint1_linear)" d="M14.81 37.57c-1.95-2.706-3.102-5.968-3.102-9.57a16.259 16.259 0 014.758-11.534A16.24 16.24 0 0128 11.708 16.246 16.246 0 0144.291 28c0 3.602-1.15 6.864-3.1 9.57l-7.794-12.625-.815 1.324.815 3.564L28 20.567l-3.259 5.6.713 3.563-2.851-4.785-7.794 12.625z"/></g><defs><linearGradient id="paint0_linear" x1="28" x2="28" y1="5" y2="51" gradientUnits="userSpaceOnUse"><stop stop-color="#fff" stop-opacity=".396"/><stop offset="1" stop-color="#fff" stop-opacity="0"/></linearGradient><linearGradient id="paint1_linear" x1="28" x2="28" y1="37.571" y2="11.708" gradientUnits="userSpaceOnUse"><stop stop-color="#fff" stop-opacity=".7"/><stop offset="1" stop-color="#fff"/></linearGradient><filter id="filter0_di" width="40.583" height="33.862" x="7.708" y="11.708" color-interpolation-filters="sRGB" filterUnits="userSpaceOnUse"><feFlood flood-opacity="0" result="BackgroundImageFix"/><feColorMatrix in="SourceAlpha" values="0 0 0 0 0 0 0 0 0 0 0 0 0 0 0 0 0 0 127 0"/><feOffset dy="4"/><feGaussianBlur stdDeviation="2"/><feColorMatrix values="0 0 0 0 0 0 0 0 0 0 0 0 0 0 0 0 0 0 0.1 0"/><feBlend in2="BackgroundImageFix" result="effect1_dropShadow"/><feBlend in="SourceGraphic" in2="effect1_dropShadow" result="shape"/><feColorMatrix in="SourceAlpha" result="hardAlpha" values="0 0 0 0 0 0 0 0 0 0 0 0 0 0 0 0 0 0 127 0"/><feOffset/><feGaussianBlur stdDeviation=".5"/><feComposite in2="hardAlpha" k2="-1" k3="1" operator="arithmetic"/><feColorMatrix values="0 0 0 0 1 0 0 0 0 1 0 0 0 0 1 0 0 0 0.25 0"/><feBlend in2="shape" result="effect2_innerShadow"/></filter></defs></svg>