<svg xmlns="http://www.w3.org/2000/svg" fill="none" viewBox="0 0 56 56"><path fill="url(#paint0_linear)" d="M28.011 49.91c.848 0 2.13-.8 3.343-1.646C43.124 40.295 51 30.704 51 21.138 51 12.018 44.772 6 37.56 6c-4.511 0-7.694 2.539-9.549 6.159C26.134 8.562 22.951 6 18.441 6 11.227 6 5 12.018 5 21.138c0 9.567 7.877 19.157 19.646 27.126 1.236.846 2.495 1.645 3.365 1.645z"/><path fill="#151515" d="M13.5 31.1h5.184c1.22 0 2.068-.566 2.333-1.6l1.396-5.944 3.516 19.561c.371 2.084 3.835 2.084 4.276.016l3.216-14.053.053.259c.248 1.147 1.06 1.76 2.35 1.76h6.677c1.237 0 2.226-.872 2.226-1.986 0-1.163-.972-2.02-2.226-2.02h-5.334l-1.714-5.016c-.495-1.987-3.764-1.954-4.24.065l-3.075 10.524-3.534-17.793c-.354-2.051-3.623-2.083-4.117-.032l-3.358 12.253H13.5c-1.237 0-2.226.888-2.226 2.019 0 1.114.99 1.986 2.226 1.986z"/><defs><linearGradient id="paint0_linear" x1="28" x2="28" y1="6" y2="49.909" gradientUnits="userSpaceOnUse"><stop stop-color="#FF8F6E"/><stop offset="1" stop-color="#EA5176"/></linearGradient></defs></svg>