<svg xmlns="http://www.w3.org/2000/svg" fill="none" viewBox="0 0 56 56"><path fill="url(#paint0_linear)" d="M9.56 28c0-10.14 8.318-18.447 18.474-18.447 5.762 0 10.91 2.585 14.25 6.704l-4.903-.378a2.275 2.275 0 00-2.444 2.094 2.275 2.275 0 002.094 2.445l7.83.604a4.18 4.18 0 004.42-3.341l1.673-8.273a2.279 2.279 0 10-4.468-.903l-.923 4.566C41.364 8.086 35.038 5 28.034 5 15.36 5 5 15.345 5 28c0 12.656 10.36 23 23.034 23 11.905 0 21.769-9.127 22.922-20.723.124-1.253-.908-2.277-2.167-2.277-1.26 0-2.265 1.026-2.42 2.275-1.133 9.08-8.95 16.173-18.335 16.173C17.878 46.448 9.56 38.141 9.56 28z"/><path fill="url(#paint1_linear)" d="M23.911 30.448c.481-.59.201-1.48-.532-1.688l-3.742-1.063a2.117 2.117 0 01-1.43-2.71l.05-.154a2.12 2.12 0 012.835-1.28l3.57 1.508a1.06 1.06 0 001.47-1.05l-.295-4.262a2.119 2.119 0 012.114-2.265h.33c1.23 0 2.2 1.042 2.114 2.268l-.31 4.418a1.059 1.059 0 001.47 1.05l3.352-1.424a2.119 2.119 0 012.84 1.285l.061.184a2.119 2.119 0 01-1.44 2.706l-3.836 1.076a1.06 1.06 0 00-.54 1.684l2.568 3.196a2.12 2.12 0 01-.435 3.062l-.233.164a2.12 2.12 0 01-3.03-.638l-2.106-3.48a1.06 1.06 0 00-1.803-.017l-2.114 3.356a2.12 2.12 0 01-2.975.63l-.2-.135a2.119 2.119 0 01-.461-3.097l2.708-3.324z"/><defs><linearGradient id="paint0_linear" x1="28" x2="28" y1="5" y2="51.001" gradientUnits="userSpaceOnUse"><stop stop-color="#5CB8D5"/><stop offset="1" stop-color="#7F63D0"/></linearGradient><linearGradient id="paint1_linear" x1="28" x2="28" y1="5" y2="51.001" gradientUnits="userSpaceOnUse"><stop stop-color="#5CB8D5"/><stop offset="1" stop-color="#7F63D0"/></linearGradient></defs></svg>