<svg xmlns="http://www.w3.org/2000/svg" fill="none" viewBox="0 0 48 48"><path fill="#fff" d="M0 12.42v24.156C0 40.094 2.817 42.95 6.31 43h35.38c3.493-.049 6.31-2.906 6.31-6.424V12.419c0-1.973-2.234-3.11-3.82-1.942L24 25.332 3.82 10.477C2.233 9.31 0 10.446 0 12.419z" opacity=".5"/><path fill="#fff" d="M6.4 43.002h35.2a6.377 6.377 0 005.007-2.423L26.067 6.207c-.924-1.607-3.605-1.607-4.529 0L1.393 40.58A6.377 6.377 0 006.4 43.003z" opacity=".5"/><path fill="#fff" d="M6.342 43.001a6.358 6.358 0 01-4.17-1.6l21.826-16.067 21.827 16.067a6.363 6.363 0 01-4.17 1.6H6.342z"/></svg>