<svg xmlns="http://www.w3.org/2000/svg" viewBox="0 0 48 48" fill="none"><path fill="#44474E" d="M24 42c9.852 0 18-8.148 18-18S33.852 6 23.982 6C14.13 6 6 14.148 6 24s8.148 18 18 18zm-.108-24.784c-1.094 0-1.974-.861-1.974-1.956s.88-1.974 1.974-1.974c1.113 0 1.974.88 1.974 1.974 0 1.095-.861 1.956-1.974 1.956zm-3.104 16.565c-.575 0-1.023-.431-1.023-.987 0-.557.448-1.005 1.023-1.005h2.584v-9.297H21.02c-.574 0-1.023-.43-1.023-1.005 0-.538.449-.986 1.023-.986h3.446c.717 0 1.094.502 1.094 1.238v10.05h2.585c.574 0 1.023.448 1.023 1.005 0 .556-.45.987-1.023.987h-7.358z"/></svg>