<svg width="48" height="48" fill="none" xmlns="http://www.w3.org/2000/svg"><path d="M16.584 24c0 .64.508 1.182 1.084 1.182h24.058l3.114-.074-2.26 2.365-4.037 4.187c-.23.222-.346.517-.346.813 0 .591.438 1.084.992 1.084.3 0 .507-.123.738-.345l7.704-8.35c.254-.295.369-.566.369-.862 0-.296-.115-.567-.37-.837l-7.703-8.375c-.23-.222-.438-.345-.738-.345-.554 0-.992.444-.992 1.06 0 .295.115.615.346.837l4.037 4.187 2.26 2.39-3.114-.1H17.668c-.576 0-1.084.543-1.084 1.183zM0 6.576V41.4C0 45.759 2.122 48 6.136 48h22.558c4.013 0 6.135-2.241 6.135-6.601v-10.7h-2.214v10.626c0 2.734-1.384 4.286-4.036 4.286H6.25c-2.653 0-4.014-1.552-4.014-4.286V6.65c0-2.783 1.361-4.285 4.014-4.285h22.328c2.652 0 4.036 1.502 4.036 4.285v10.675h2.214V6.576C34.83 2.241 32.754 0 28.694 0H6.136C2.099 0 0 2.241 0 6.576z" fill="#000"/></svg>