<svg xmlns="http://www.w3.org/2000/svg" width="48" height="48" fill="none"><path fill="#D0D1D3" d="M41.34 42.872c.658.639 1.707.618 2.324 0 .637-.659.637-1.689 0-2.307L6.653 3.487c-.638-.639-1.686-.66-2.324 0-.637.618-.617 1.689 0 2.307L41.34 42.872zm-17.91-26.16c.248-.042.535-.063.803-.063 7.587.145 13.982 3.07 19.04 8.26.432.433 1.09.413 1.521-.04l2.88-2.905c.43-.412.41-.947.081-1.339C42.718 14.57 33.568 10.12 24.007 10.12c-2.098 0-4.195.206-6.457.68l5.88 5.911zM8.77 13.93c-3.413 1.772-6.353 4.08-8.533 6.695-.329.392-.329.927.083 1.34l2.878 2.904c.453.453 1.131.453 1.563-.021 2.57-2.72 5.49-4.779 8.8-6.139l-4.79-4.779zm29.445 17.572l1.213-1.216c.411-.391.432-.886.082-1.298-2.118-2.616-5.737-4.861-9.643-5.85l8.348 8.363zm-20.192-8.343c-3.968 1.092-7.34 3.213-9.54 5.83-.35.411-.309.926.082 1.297l3.228 3.172c.494.474 1.151.433 1.624-.082 2.447-2.678 6.272-4.511 10.199-4.614l-5.593-5.603zm5.984 11.185c-2.94 0-5.593 1.545-7.012 3.481-.247.371-.144.824.226 1.175l5.038 4.861c.822.803 1.254 1.03 1.748 1.03.514 0 .945-.247 1.768-1.03L30.813 39c.37-.35.452-.927.123-1.34-1.44-1.833-4.03-3.316-6.93-3.316z"/></svg>