<svg width="48" height="48" fill="none" xmlns="http://www.w3.org/2000/svg"><path fill-rule="evenodd" clip-rule="evenodd" d="M2.978 2.35a1.203 1.203 0 00-1.697 0 1.192 1.192 0 000 1.69l42.783 42.61a1.203 1.203 0 001.697 0 1.191 1.191 0 000-1.69L2.978 2.35zM0 15.744c0-3.19 1.284-5.06 3.851-5.692l1.998 1.99c-2.421.08-3.556 1.281-3.556 3.773v3.73c4.378 1.522 9.046 2.478 14.045 2.944l6.325 6.299h-2.054c-1.433 0-2.245-.798-2.245-2.182v-1.76c-5.588-.375-10.937-1.29-16.071-2.885v15.695c0 2.604 1.217 3.8 3.82 3.8h29.27l2.237 2.229H6.09c-4.06 0-6.09-1.948-6.09-5.936V15.744zm45.708 3.8c-5.724 1.991-11.94 3.012-18.747 3.237l2.675 2.664v-.598c5.588-.376 10.937-1.29 16.072-2.886v15.695c0 1.298-.303 2.246-.93 2.87l1.701 1.694C47.496 41.235 48 39.748 48 37.75V15.743c0-4.011-2.006-5.935-6.09-5.935h-5.922v-3.12c0-2.862-1.863-4.575-4.991-4.575H17.003c-3.104 0-4.991 1.713-4.991 4.575v1.203l4.162 4.146h25.713c2.603 0 3.82 1.196 3.82 3.777v3.73zM14.305 6.784c0-1.549 1.05-2.51 2.77-2.51h13.85c1.72 0 2.794.961 2.794 2.51V9.81H14.304V6.783z" fill="#383C43"/></svg>