<svg xmlns="http://www.w3.org/2000/svg" width="48" height="48" fill="none"><path fill="#fff" d="M25.512 48c.44 0 1.064-.19 1.666-.5C40.51 40.535 45 36.72 45 28.184V10.659c0-3.076-1.065-4.292-3.634-5.413C38.96 4.22 30.626 1.24 28.336.476 27.455.192 26.39 0 25.511 0c-.903 0-1.945.215-2.824.477-2.315.74-10.647 3.767-13.031 4.769C7.065 6.343 6 7.583 6 10.659v17.526c0 8.536 4.652 12.065 17.845 19.314.602.334 1.227.501 1.667.501zM23.29 35.243c-.88 0-1.597-.405-2.269-1.24l-6.272-7.821c-.44-.525-.648-1.097-.648-1.693 0-1.288.995-2.29 2.199-2.29.717 0 1.319.31 1.874 1.026l5.046 6.486 9.721-16c.533-.859 1.204-1.264 1.968-1.264 1.157 0 2.268.859 2.268 2.122 0 .549-.255 1.145-.579 1.67l-11.133 17.74c-.532.835-1.296 1.264-2.175 1.264z"/></svg>