<svg xmlns="http://www.w3.org/2000/svg" width="48" height="48" fill="none"><path fill="#fff" d="M25.512 48c.44 0 1.064-.19 1.666-.5C40.51 40.535 45 36.72 45 28.184V10.659c0-3.076-1.065-4.292-3.634-5.413C38.96 4.22 30.626 1.24 28.336.476 27.455.192 26.39 0 25.511 0c-.903 0-1.945.215-2.824.477-2.315.74-10.647 3.767-13.031 4.769C7.065 6.343 6 7.583 6 10.659v17.526c0 8.536 4.652 12.065 17.845 19.314.602.334 1.227.501 1.667.501zm-7.824-13.83c-1.365 0-2.43-1.097-2.43-2.504 0-.644.278-1.264.74-1.717l6.088-6.27L16 17.382a2.42 2.42 0 01-.74-1.717c0-1.407 1.064-2.48 2.43-2.48.694 0 1.272.239 1.712.716l6.087 6.247 6.134-6.247c.486-.525 1.018-.74 1.713-.74 1.365 0 2.407 1.073 2.407 2.48a2.31 2.31 0 01-.718 1.717l-6.087 6.32 6.087 6.247c.44.476.718 1.073.718 1.74 0 1.407-1.065 2.504-2.43 2.504-.718 0-1.297-.262-1.736-.74l-6.088-6.223-6.04 6.224c-.463.5-1.065.739-1.76.739z"/></svg>