<svg viewBox="0 0 48 48" fill="none" xmlns="http://www.w3.org/2000/svg"><path d="M14.889 10.757h18.237c-.088-1.275-.864-1.978-2.227-1.978H17.13c-1.376 0-2.138.703-2.24 1.978zm-2.725 4.116h23.701c-.19-1.348-.893-2.139-2.431-2.139H14.58c-1.523 0-2.226.791-2.417 2.139zm1.406 26.338h20.845c3.047 0 4.658-1.611 4.658-4.614v-14.81c0-3.003-1.611-4.614-4.658-4.614H13.57c-3.047 0-4.658 1.597-4.658 4.614v14.81c0 3.017 1.611 4.614 4.658 4.614zm.25-3.003c-1.231 0-1.905-.63-1.905-1.919V22.095c0-1.29.674-1.92 1.904-1.92h20.362c1.216 0 1.89.63 1.89 1.92v14.194c0 1.29-.674 1.919-1.89 1.919h-2.154c-1.186-2.783-4.32-4.673-8.027-4.673-3.72 0-6.84 1.89-8.027 4.673h-2.154zM24 31.528c2.432.015 4.321-2.05 4.321-4.716 0-2.535-1.904-4.644-4.321-4.644s-4.336 2.11-4.321 4.643c0 2.666 1.89 4.703 4.321 4.717z" fill="#43A5A1"/></svg>