<svg width="48" height="48" fill="none" xmlns="http://www.w3.org/2000/svg"><path d="M7.687 7.779C9.064 7.5 10.87 7.5 13.5 7.5h21c2.63 0 4.436 0 5.813.279-.097-.581-.244-1.065-.467-1.503a6 6 0 00-2.622-2.622C35.94 3 34.26 3 30.9 3H17.1c-3.36 0-5.04 0-6.324.654a6 6 0 00-2.622 2.622c-.223.438-.37.922-.467 1.503zM3 18.6c0-3.36 0-5.04.654-6.324a6 6 0 012.622-2.622C7.56 9 9.24 9 12.6 9h22.8c3.36 0 5.04 0 6.324.654a6 6 0 012.622 2.622C45 13.56 45 15.24 45 18.6v16.8c0 3.36 0 5.04-.654 6.324a6 6 0 01-2.622 2.622C40.44 45 38.76 45 35.4 45H12.6c-3.36 0-5.04 0-6.324-.654a6 6 0 01-2.622-2.622C3 40.44 3 38.76 3 35.4V18.6z" fill="#9ABDE8"/><path fill-rule="evenodd" clip-rule="evenodd" d="M45 33.9c0 3.36 0 5.04-.654 6.324a6 6 0 01-2.622 2.622c-1.283.654-2.964.654-6.324.654H12.6c-3.36 0-5.04 0-6.324-.654a6 6 0 01-2.622-2.622C3 38.941 3 37.26 3 33.9v1.5c0 3.36 0 5.04.654 6.324a6 6 0 002.622 2.622C7.56 45 9.24 45 12.6 45h22.8c3.36 0 5.04 0 6.324-.654a6 6 0 002.622-2.622C45 40.441 45 38.76 45 35.4v-1.5z" fill="#78A1D2"/><path d="M24.011 26.732c2.345 0 4.243-2.085 4.243-4.8 0-2.597-1.921-4.682-4.243-4.682-2.31 0-4.254 2.097-4.23 4.694 0 2.703 1.898 4.788 4.23 4.788zM16.933 36.75h14.134c1.338 0 1.933-.396 1.933-1.351 0-2.808-3.454-6.687-9-6.687-5.546 0-9 3.88-9 6.687 0 .955.595 1.351 1.933 1.351z" fill="#78A1D2"/><path d="M24.011 25.982c2.345 0 4.243-2.085 4.243-4.8 0-2.597-1.921-4.682-4.243-4.682-2.31 0-4.254 2.097-4.23 4.694 0 2.703 1.898 4.788 4.23 4.788zM16.933 36h14.134C32.405 36 33 35.604 33 34.649c0-2.808-3.454-6.687-9-6.687-5.546 0-9 3.88-9 6.687 0 .955.595 1.351 1.933 1.351z" fill="#fff"/></svg>