<svg xmlns="http://www.w3.org/2000/svg" viewBox="0 0 48 48" fill="none"><rect width="48" height="48" fill="url(#prefix__paint0_linear)" rx="24"/><path fill="#FE3F59" d="M22.585 16.072c0 .729-.539 1.268-1.252 1.268-.38 0-.681-.127-.919-.365l-3.283-3.315a1.29 1.29 0 01-.396-.95c0-.35.142-.698.396-.951l3.283-3.379c.222-.253.539-.38.935-.38.697 0 1.236.57 1.236 1.3 0 .332-.111.65-.349.903l-.985.906a15.875 15.875 0 012.757-.254A13.946 13.946 0 0138 24.848c0 7.781-6.227 14.024-13.992 14.024A13.977 13.977 0 0110 24.847c0-.76.539-1.315 1.315-1.315.76 0 1.236.555 1.236 1.316 0 6.37 5.103 11.472 11.457 11.472 6.354 0 11.44-5.102 11.44-11.473 0-6.354-5.086-11.44-11.44-11.44-1.22 0-2.314.095-3.28.3l1.492 1.462c.254.253.365.57.365.903z"/><path fill="#FE3F59" fill-rule="evenodd" d="M20.167 28.135h-.926c-.659 0-1.045-.361-1.045-.938 0-.723.475-1.185 1.274-1.185h1.122l.373-1.908h-.944c-.646 0-1.046-.374-1.046-.95 0-.724.476-1.193 1.28-1.193h1.135l.406-2.066c.14-.71.545-1.052 1.223-1.052.64 0 1.002.361 1.002.919 0 .114-.013.273-.038.38l-.355 1.82h1.927l.405-2.067c.14-.703.533-1.052 1.223-1.052.628 0 .996.361.996.919 0 .114-.02.273-.038.38l-.355 1.82h.982c.66 0 1.046.36 1.046.938 0 .722-.476 1.204-1.274 1.204h-1.18l-.373 1.908h.995c.647 0 1.046.374 1.046.944 0 .723-.475 1.18-1.28 1.18h-1.18l-.443 2.262c-.14.71-.558 1.052-1.236 1.052-.627 0-.989-.361-.989-.925 0-.102.013-.267.038-.374l.393-2.016h-1.927l-.443 2.263c-.14.71-.552 1.052-1.23 1.052-.628 0-.995-.361-.995-.925 0-.102.012-.267.038-.374l.393-2.016zm3.036-4.031l-.374 1.908h1.92l.38-1.908h-1.926z" clip-rule="evenodd"/><defs><linearGradient id="prefix__paint0_linear" x1=".342" x2=".342" y1=".665" y2="47.981" gradientUnits="userSpaceOnUse"><stop stop-color="#605973"/><stop offset="1" stop-color="#181F2E"/></linearGradient></defs></svg>