<svg viewBox="0 0 48 48" fill="none" xmlns="http://www.w3.org/2000/svg"><path d="M11.39 36.348h26.22c3.033 0 4.659-1.612 4.659-4.63V18.243c0-3.003-1.626-4.614-4.659-4.614H11.39c-3.047 0-4.659 1.597-4.659 4.614V31.72c0 3.032 1.612 4.629 4.659 4.629zm.249-3.003c-1.23 0-1.905-.63-1.905-1.92V18.55c0-1.29.674-1.92 1.905-1.92H37.36c1.23 0 1.905.63 1.905 1.92v12.876c0 1.289-.674 1.919-1.905 1.919H11.64zM13 21.905h1.274c.41 0 .66-.25.66-.66v-1.274c0-.425-.25-.674-.66-.674H13c-.41 0-.66.249-.66.674v1.274c0 .41.25.66.66.66zm4.336 0h1.274c.41 0 .66-.25.66-.66v-1.274c0-.425-.25-.674-.66-.674h-1.274c-.41 0-.66.249-.66.674v1.274c0 .41.25.66.66.66zm4.336 0h1.274c.41 0 .66-.25.66-.66v-1.274c0-.425-.25-.674-.66-.674h-1.274c-.41 0-.66.249-.66.674v1.274c0 .41.25.66.66.66zm4.336 0h1.274c.41 0 .66-.25.66-.66v-1.274c0-.425-.25-.674-.66-.674H26.01c-.41 0-.66.249-.66.674v1.274c0 .41.25.66.66.66zm4.38 0h1.23c.41 0 .66-.25.66-.66v-1.274c0-.425-.25-.674-.66-.674h-1.23c-.44 0-.703.249-.703.674v1.274c0 .41.263.66.703.66zm4.292 0h1.274c.41 0 .66-.25.66-.66v-1.274c0-.425-.25-.674-.66-.674H34.68c-.425 0-.674.249-.674.674v1.274c0 .41.249.66.674.66zM13 26.284h1.274c.41 0 .66-.25.66-.66V24.35c0-.425-.25-.674-.66-.674H13c-.41 0-.66.249-.66.674v1.274c0 .41.25.66.66.66zm4.336 0h1.274c.41 0 .66-.25.66-.66V24.35c0-.425-.25-.674-.66-.674h-1.274c-.41 0-.66.249-.66.674v1.274c0 .41.25.66.66.66zm4.336 0h1.274c.41 0 .66-.25.66-.66V24.35c0-.425-.25-.674-.66-.674h-1.274c-.41 0-.66.249-.66.674v1.274c0 .41.25.66.66.66zm4.336 0h1.274c.41 0 .66-.25.66-.66V24.35c0-.425-.25-.674-.66-.674H26.01c-.41 0-.66.249-.66.674v1.274c0 .41.25.66.66.66zm4.38 0h1.23c.41 0 .66-.25.66-.66V24.35c0-.425-.25-.674-.66-.674h-1.23c-.44 0-.703.249-.703.674v1.274c0 .41.263.66.703.66zm4.292 0h1.274c.41 0 .66-.25.66-.66V24.35c0-.425-.25-.674-.66-.674H34.68c-.425 0-.674.249-.674.674v1.274c0 .41.249.66.674.66zM13 30.664h1.274c.41 0 .66-.25.66-.66V28.73c0-.425-.25-.674-.66-.674H13c-.41 0-.66.249-.66.674v1.274c0 .41.25.66.66.66zm4.438 0h14.078c.483 0 .761-.28.761-.763v-1.069c0-.483-.278-.776-.761-.776H17.439c-.483 0-.761.293-.761.776v1.07c0 .483.278.761.761.761zm17.242 0h1.274c.41 0 .66-.25.66-.66V28.73c0-.425-.25-.674-.66-.674H34.68c-.425 0-.674.249-.674.674v1.274c0 .41.249.66.674.66z" fill="#43A5A1"/></svg>