<svg width="48" height="48" fill="none" xmlns="http://www.w3.org/2000/svg"><path fill-rule="evenodd" clip-rule="evenodd" d="M10.5 14h27a6 6 0 016 6v22a6 6 0 01-6 6h-27a6 6 0 01-6-6V20a6 6 0 016-6z" fill="#F3C638"/><mask id="a" maskUnits="userSpaceOnUse" x="4" y="0" width="40" height="47"><path d="M10.5 0h17.068c.27 0 .529.11.717.303l14.932 15.35c.181.186.283.437.283.697V40.8a6 6 0 01-6 6h-27a6 6 0 01-6-6V6a6 6 0 016-6z" fill="#fff"/></mask><g mask="url(#a)"><path d="M10.5 0h17.068c.27 0 .529.11.717.301l14.932 15.252a.992.992 0 01.283.692v24.293c0 3.293-2.686 5.962-6 5.962h-27c-3.314 0-6-2.669-6-5.962V5.962C4.5 2.669 7.186 0 10.5 0z" fill="#FFE68C"/><path d="M66-30H33a6 6 0 00-6 6v36a6 6 0 006 6h33a6 6 0 006-6v-36a6 6 0 00-6-6z" fill="#F3C638"/><path d="M64.7-30H32.8c-3.203 0-5.8 2.67-5.8 5.962v34.576c0 3.293 2.597 5.962 5.8 5.962h31.9c3.203 0 5.8-2.67 5.8-5.961V-24.04c0-3.29-2.597-5.96-5.8-5.96z" fill="#FDEBAB"/><path opacity=".6" d="M24.75 22.5h-10.5a.75.75 0 000 1.5h10.5a.75.75 0 000-1.5zm9 4.5h-19.5a.75.75 0 000 1.5h19.5a.75.75 0 000-1.5zm0 4.5h-19.5a.75.75 0 000 1.5h19.5a.75.75 0 000-1.5zm0 4.5h-19.5a.75.75 0 000 1.5h19.5a.75.75 0 000-1.5z" fill="#151922"/></g></svg>