<svg xmlns="http://www.w3.org/2000/svg" fill="none" viewBox="0 0 48 48"><path fill="#383C43" d="M31.482 19.021a1.8 1.8 0 10-2.964-2.043l-6.939 10.073-2.211-2.585a1.8 1.8 0 00-2.736 2.341l3.734 4.363a1.803 1.803 0 002.85-.149l8.266-12z"/><path fill="#383C43" fill-rule="evenodd" d="M42 24.009C42 33.857 33.857 42 23.991 42 14.143 42 6 33.857 6 24.009 6 14.143 14.126 6 23.974 6 33.84 6 42 14.143 42 24.009zm-32.38 0c0 7.969 6.385 14.39 14.371 14.39 7.987 0 14.425-6.421 14.407-14.39A14.394 14.394 0 0023.974 9.602c-7.97 0-14.355 6.42-14.355 14.407z" clip-rule="evenodd"/></svg>