<svg viewBox="0 0 48 48" fill="none" xmlns="http://www.w3.org/2000/svg"><path d="M9.687 34.546h27.626c2.593 0 3.97-1.333 3.97-3.97V14.551c0-2.637-1.377-3.985-3.97-3.985H9.687c-2.593 0-3.97 1.348-3.97 3.985v16.025c0 2.637 1.377 3.97 3.97 3.97zm.234-2.9c-.894 0-1.304-.367-1.304-1.304V14.77c0-.938.41-1.304 1.304-1.304h27.158c.894 0 1.304.366 1.304 1.303v15.572c0 .937-.41 1.303-1.304 1.303H9.921zm5.771 7.822h15.616c.747 0 1.333-.616 1.333-1.333 0-.718-.586-1.333-1.333-1.333H15.692c-.747 0-1.333.615-1.333 1.333s.586 1.333 1.333 1.333z" fill="#43A5A1"/></svg>