<svg viewBox="0 0 36 36" fill="none" xmlns="http://www.w3.org/2000/svg"><path fill-rule="evenodd" clip-rule="evenodd" d="M36 18.009C36 27.857 27.857 36 17.991 36 8.143 36 0 27.857 0 18.009 0 8.143 8.126 0 17.974 0 27.84 0 36 8.143 36 18.009zm-32.38 0c0 7.969 6.385 14.39 14.371 14.39 7.987 0 14.425-6.421 14.407-14.39A14.395 14.395 0 0017.974 3.602c-7.97 0-14.355 6.42-14.355 14.407z" fill="current"/><path d="M18 21.319c1.018 0 1.558-.613 1.595-1.656l.184-8.491c.012-.123.012-.27.012-.368 0-1.13-.687-1.804-1.779-1.804-1.104 0-1.803.675-1.803 1.804 0 .098.012.245.012.368l.196 8.49c.025 1.044.565 1.657 1.583 1.657zm0 5.963c1.117 0 2-.846 2-1.926s-.883-1.927-2-1.927-2 .847-2 1.927.883 1.926 2 1.926z" fill="current"/></svg>