<svg width="96" height="96" viewBox="0 0 96 96" fill="none" xmlns="http://www.w3.org/2000/svg">
<circle opacity="0.2" cx="48" cy="48" r="48" fill="white"/>
<path fill-rule="evenodd" clip-rule="evenodd" d="M65.6564 66.7565H30.9397C27.51 66.7565 25.2974 64.2649 25.2974 61.2099C25.2974 60.2999 25.5629 59.3899 26.0497 58.5015L43.4191 28.0815C44.4812 26.1965 46.4062 25.2432 48.3091 25.2432C50.212 25.2432 52.1149 26.1965 53.1769 28.0815L70.5685 58.5015C71.0553 59.3682 71.2987 60.2999 71.2987 61.2099C71.2987 64.2649 69.086 66.7565 65.6564 66.7565ZM50.6139 49.7449C50.5695 51.3638 49.7998 52.3069 48.3048 52.3069C46.795 52.3069 46.0401 51.3638 45.9957 49.7449L45.7145 39.9681C45.7145 39.8359 45.7104 39.6949 45.7065 39.5612C45.703 39.4408 45.6997 39.3262 45.6997 39.2294C45.6997 37.4846 46.6766 36.463 48.3196 36.463C49.9478 36.463 50.9099 37.4846 50.9099 39.2294C50.9099 39.4337 50.8951 39.7166 50.8803 39.9681L50.6139 49.7449ZM51.1023 57.1953C51.1023 58.7829 49.8442 60.0246 48.3048 60.0246C46.7506 60.0246 45.4924 58.7829 45.4924 57.1953C45.4924 55.6235 46.7506 54.3817 48.3048 54.3817C49.8442 54.3817 51.1023 55.6235 51.1023 57.1953Z" fill="white"/>
</svg>
