<svg xmlns="http://www.w3.org/2000/svg" fill="none" viewBox="0 0 96 96"><circle cx="48" cy="48" r="48" fill="#fff" opacity=".2"/><path fill="#fff" d="M24 36.42v24.156c0 3.518 2.817 6.375 6.31 6.424h35.38c3.493-.049 6.31-2.906 6.31-6.424V36.419c0-1.973-2.234-3.11-3.82-1.942L48 49.332 27.82 34.477C26.233 33.31 24 34.446 24 36.419z" opacity=".5"/><path fill="#fff" d="M30.399 67.002h35.2a6.377 6.377 0 005.007-2.423l-20.54-34.372c-.924-1.607-3.605-1.607-4.529 0L25.392 64.58a6.377 6.377 0 005.007 2.423z" opacity=".5"/><path fill="#fff" d="M30.34 67.001a6.367 6.367 0 01-4.17-1.6l21.828-16.067 21.826 16.067a6.363 6.363 0 01-4.17 1.6H30.341z"/></svg>