<svg xmlns="http://www.w3.org/2000/svg" viewBox="0 0 48 48"><defs><linearGradient id="a" x1="50%" x2="50%" y1="0%" y2="100%"><stop offset="0%" stop-color="#007AFF"/><stop offset="100%" stop-color="#015FF1"/></linearGradient></defs><g fill="none" fill-rule="evenodd"><rect width="48" height="48" fill="url(#a)" rx="24"/><path fill="#FFF" fill-rule="nonzero" d="M39 16h-2l-3.2 9h1.9l.7-2h3.2l.7 2h1.9L39 16zm-2.15 5.65L38 18l1.15 3.65h-2.3z"/><path fill="#FFF" d="M30 20a2 2 0 012 2v8a2 2 0 01-2 2H10a2 2 0 01-2-2v-8a2 2 0 012-2h20zm-1 2h-2v8h2v-8zm-16 2a2 2 0 10-.001 3.999A2 2 0 0013 24zm5 0a2 2 0 10-.001 3.999A2 2 0 0018 24zm5 0a2 2 0 10-.001 3.999A2 2 0 0023 24z"/></g></svg>