<svg width="48" height="48" fill="none" xmlns="http://www.w3.org/2000/svg"><path d="M24 48c13.165 0 24-10.835 24-24S37.165 0 24 0 0 10.835 0 24s10.835 24 24 24zm0-2.561c-11.86 0-21.413-9.58-21.413-21.439C2.587 12.14 12.141 2.561 24 2.561c11.86 0 21.439 9.58 21.439 21.439 0 11.86-9.58 21.439-21.439 21.439zM10.578 26.203H24c.64 0 1.127-.487 1.127-1.127V7.76c0-.615-.487-1.101-1.127-1.101-.615 0-1.101.486-1.101 1.1v16.214h-12.32c-.64 0-1.102.487-1.102 1.102 0 .64.461 1.127 1.101 1.127z" fill="#383C43"/></svg>