<svg width="21" height="20" fill="none" xmlns="http://www.w3.org/2000/svg"><path d="M3.49 15.576h1.594v1.441c0 1.982 1.01 2.983 2.99 2.983h9.436c1.97 0 2.99-1.001 2.99-2.983v-9.6c0-1.982-1.02-2.993-2.99-2.993h-1.604V2.983c0-1.972-1.01-2.983-2.98-2.983H3.49C1.5 0 .5 1.011.5 2.983v9.61c0 1.982 1 2.983 2.99 2.983zm.06-1.642c-.911 0-1.416-.49-1.416-1.451v-9.39c0-.95.505-1.441 1.416-1.441h9.316c.901 0 1.416.49 1.416 1.441v1.331H8.074c-1.98 0-2.99 1.011-2.99 2.993v6.517H3.55zm4.584 4.424c-.911 0-1.416-.49-1.416-1.451v-9.38c0-.96.505-1.45 1.416-1.45h9.317c.9 0 1.415.49 1.415 1.45v9.38c0 .96-.514 1.451-1.415 1.451H8.134z" fill="#43A5A1"/></svg>