<svg viewBox="0 0 24 24" fill="none" xmlns="http://www.w3.org/2000/svg">
<path d="M12 0L12.9487 1.45861L14.1427 0.192845L14.8157 1.79742L16.2165 0.765182L16.5922 2.46415L18.1548 1.69861L18.2211 3.43736L19.8953 2.96314L19.6501 4.68579L21.382 4.51812L20.8331 6.16931L22.5671 6.31358L21.7323 7.84022L23.4127 8.2918L22.3186 9.64484L23.8914 10.3892L22.5733 11.5252L23.9879 12.5384L22.4882 13.4207L23.6991 14.6703L22.066 15.2706L23.0343 16.7163L21.3202 17.0154L22.0149 18.6108L20.2749 18.599L20.6735 20.2928L18.9636 19.9705L19.0534 21.7082L17.4285 21.0858L17.2066 22.8116L15.719 21.9091L15.1924 23.5676L13.8898 22.4139L13.0757 23.9517L12 22.584L10.9243 23.9517L10.1102 22.4139L8.80756 23.5676L8.28105 21.9091L6.7934 22.8116L6.57147 21.0858L4.94658 21.7082L5.03638 19.9705L3.32646 20.2928L3.7251 18.599L1.98512 18.6108L2.67978 17.0154L0.965667 16.7163L1.93402 15.2706L0.300865 14.6703L1.51179 13.4207L0.0120831 12.5384L1.42666 11.5252L0.108603 10.3892L1.68136 9.64484L0.587322 8.2918L2.26772 7.84022L1.43285 6.31358L3.16688 6.16931L2.61802 4.51812L4.34994 4.68579L4.10474 2.96314L5.77888 3.43736L5.84521 1.69861L7.40777 2.46415L7.7835 0.765182L9.18427 1.79742L9.85732 0.192845L11.0513 1.45861L12 0Z" fill="url(#paint0_linear_11960:52627)"/>
<path d="M8.61872 18H14.9313C16.0605 18 16.6851 17.4049 16.6851 16.2687V12.5777H16.7271C17.2557 12.4635 17.55 12.0366 17.55 11.4235V9.84246C17.55 9.10907 17.1416 8.64618 16.4088 8.64618H15.1956C15.5139 8.32758 15.7001 7.89475 15.7001 7.3958C15.7001 6.22958 14.7811 5.4 13.6159 5.4C12.775 5.4 12.0783 5.86288 11.772 6.66842C11.4657 5.86288 10.775 5.4 9.92808 5.4C8.76888 5.4 7.84392 6.22958 7.84392 7.3958C7.84392 7.89475 8.03011 8.32758 8.35445 8.64618H7.14119C6.43846 8.64618 6 9.10907 6 9.84246V11.4235C6 12.0366 6.2883 12.4635 6.81685 12.5777H6.85889V16.2687C6.85889 17.4049 7.48354 18 8.61872 18ZM11.2795 8.64618H10.3425C9.39953 8.64618 8.84696 8.11116 8.84696 7.44991C8.84696 6.78865 9.32746 6.40391 9.98814 6.40391C10.7029 6.40391 11.2795 6.94494 11.2795 7.83464V8.64618ZM12.2645 8.64618V7.83464C12.2645 6.94494 12.8411 6.40391 13.5559 6.40391C14.2165 6.40391 14.697 6.78865 14.697 7.44991C14.697 8.11116 14.1505 8.64618 13.2015 8.64618H12.2645ZM11.2374 11.712H7.38744C7.08713 11.712 6.967 11.5858 6.967 11.2852V9.97471C6.967 9.67414 7.08713 9.55391 7.38744 9.55391H11.2374V11.712ZM12.3066 11.712V9.55391H16.1686C16.4689 9.55391 16.583 9.67414 16.583 9.97471V11.2852C16.583 11.5858 16.4689 11.712 16.1686 11.712H12.3066ZM11.2374 17.0983H8.60671C8.10819 17.0983 7.8259 16.8157 7.8259 16.3168V12.6198H11.2374V17.0983ZM12.3066 17.0983V12.6198H15.7181V16.3168C15.7181 16.8157 15.4358 17.0983 14.9373 17.0983H12.3066Z" fill="#44474E"/>
<defs>
<linearGradient id="paint0_linear_11960:52627" x1="12" y1="0" x2="12" y2="24" gradientUnits="userSpaceOnUse">
<stop stop-color="#C8F476"/>
<stop offset="1" stop-color="#9BE01A"/>
</linearGradient>
</defs>
</svg>
