<svg xmlns="http://www.w3.org/2000/svg" fill="none" viewBox="0 0 58 58"><circle cx="29" cy="29" r="29" fill="#151922" opacity=".2"/><path fill="#fff" fill-rule="evenodd" d="M39 34v-4c0-.971-.002-1.566-.042-2.01a2.465 2.465 0 00-.062-.403c-.017-.067-.03-.087-.03-.087a1.004 1.004 0 00-.366-.366s-.02-.013-.087-.03a2.483 2.483 0 00-.404-.062C37.566 27.002 36.971 27 36 27c-.971 0-1.566.002-2.01.042-.206.019-.33.042-.403.062-.065.017-.086.03-.087.03a1.004 1.004 0 00-.366.366c0 .001-.013.022-.03.087-.02.074-.043.197-.062.404-.04.443-.042 1.038-.042 2.009v4c0 .971.002 1.566.042 2.01.019.206.042.33.062.403.017.067.03.087.03.087.088.152.214.278.366.366 0 0 .02.013.087.03.074.02.197.043.404.062.443.04 1.038.042 2.009.042.971 0 1.566-.002 2.01-.042.206-.019.33-.042.403-.062.065-.017.086-.03.087-.03.152-.088.278-.214.366-.366 0 0 .013-.02.03-.087.02-.074.043-.197.062-.404.04-.443.042-1.038.042-2.009zm.5-8.598C38.804 25 37.87 25 36 25s-2.804 0-3.5.402a2.996 2.996 0 00-1.098 1.098C31 27.196 31 28.13 31 30v4c0 1.87 0 2.804.402 3.5.263.456.642.835 1.098 1.098.696.402 1.63.402 3.5.402s2.804 0 3.5-.402a2.996 2.996 0 001.098-1.098C41 36.804 41 35.87 41 34v-4c0-1.87 0-2.804-.402-3.5a2.996 2.996 0 00-1.098-1.098z" clip-rule="evenodd"/><path fill="#fff" d="M17 36a1 1 0 011-1h14a1 1 0 010 2H18a1 1 0 01-1-1zm18-1a1 1 0 112 0 1 1 0 01-2 0zM25 22h6c1.47 0 2.373.004 3.025.092.574.077.67.187.681.2h.001l.001.002c.013.011.123.107.2.68.066.49.085 1.12.09 2.026h2c-.012-2.175-.108-3.353-.877-4.121C35.243 20 33.828 20 31 20h-6c-2.828 0-4.243 0-5.121.879C19 21.757 19 23.172 19 26v1c0 2.828 0 4.243.879 5.121C20.757 33 22.172 33 25 33h6v-2h-6c-1.47 0-2.373-.004-3.025-.092-.574-.077-.67-.187-.681-.2h-.001l-.001-.002c-.013-.011-.123-.107-.2-.68C21.004 29.372 21 28.47 21 27v-1c0-1.47.004-2.373.092-3.025.077-.574.187-.67.2-.681v-.001l.002-.001c.011-.013.107-.123.68-.2C22.628 22.004 23.53 22 25 22z"/></svg>