<svg viewBox="0 0 58 58" fill="none" xmlns="http://www.w3.org/2000/svg"><circle opacity=".2" cx="29" cy="29" r="29" fill="#151922"/><path d="M41 29c0 6.627-5.373 12-12 12s-12-5.373-12-12 5.373-12 12-12 12 5.373 12 12Zm-7.488 8.926-2.287-2.287A6.99 6.99 0 0 1 29 36a6.99 6.99 0 0 1-2.225-.361l-2.287 2.287A9.958 9.958 0 0 0 29 39a9.958 9.958 0 0 0 4.512-1.074Zm1.722-1.106c.586-.468 1.118-1 1.586-1.586l-2.14-2.14a7.04 7.04 0 0 1-1.587 1.585l2.14 2.14Zm2.692-3.308A9.958 9.958 0 0 0 39 29a9.958 9.958 0 0 0-1.074-4.512l-2.287 2.287A6.99 6.99 0 0 1 36 29a6.99 6.99 0 0 1-.361 2.225l2.287 2.287Zm-13.02 1.167a7.04 7.04 0 0 1-1.585-1.586l-2.14 2.14c.467.587 1 1.119 1.585 1.587l2.14-2.14Zm8.187-11.358a7.04 7.04 0 0 1 1.586 1.586l2.14-2.14a10.06 10.06 0 0 0-1.585-1.587l-2.14 2.14Zm-10.732 7.904A6.99 6.99 0 0 1 22 29c0-.778.127-1.526.361-2.225l-2.288-2.287A9.959 9.959 0 0 0 19 29c0 1.623.387 3.157 1.073 4.512l2.288-2.287Zm2.546-7.904-2.14-2.14c-.587.467-1.119 1-1.587 1.585l2.14 2.14a7.04 7.04 0 0 1 1.587-1.585ZM29 22a6.99 6.99 0 0 1 2.225.361l2.287-2.288A9.958 9.958 0 0 0 29 19a9.958 9.958 0 0 0-4.512 1.073l2.287 2.288A6.99 6.99 0 0 1 29 22Zm5 7a5 5 0 1 0-10 0 5 5 0 0 0 10 0Z" fill="#fff"/></svg>