<svg xmlns="http://www.w3.org/2000/svg" width="72" height="72" fill="none"><mask id="a" width="72" height="72" x="0" y="0" maskUnits="userSpaceOnUse"><path fill="#fff" d="M23.075 0h25.85c8.023 0 10.933.836 13.867 2.404a16.356 16.356 0 016.804 6.804C71.164 12.142 72 15.052 72 23.075v25.85c0 8.023-.836 10.933-2.404 13.867a16.356 16.356 0 01-6.804 6.804C59.858 71.164 56.948 72 48.925 72h-25.85c-8.023 0-10.933-.836-13.867-2.404a16.356 16.356 0 01-6.804-6.804C.836 59.858 0 56.948 0 48.925v-25.85c0-8.023.836-10.933 2.404-13.867a16.373 16.373 0 016.804-6.804C12.142.836 15.052 0 23.075 0z"/></mask><g mask="url(#a)"><path fill="url(#paint0_linear)" d="M0 0h72v72H0z"/><path fill="#fff" d="M47.728 48.843l1.017-22.126h1.44c1.048 0 1.815-.75 1.815-1.784 0-1.017-.767-1.752-1.815-1.752H43.58V21.46c0-2.692-1.909-4.46-5.038-4.46h-5.101c-3.114 0-5.04 1.768-5.04 4.46v1.72h-6.587c-1.033 0-1.815.736-1.815 1.753 0 1.033.782 1.784 1.815 1.784h1.44l1.017 22.142c.125 2.723 1.784 4.194 4.507 4.194H43.22c2.723 0 4.382-1.471 4.507-4.21zm-15.6-27.274c0-.813.61-1.377 1.501-1.377h4.742c.892 0 1.486.564 1.502 1.377l.016 1.612h-7.793l.031-1.612zm-2.849 27.885c-.814 0-1.33-.563-1.377-1.487l-.986-21.25h18.152l-.97 21.25c-.032.94-.548 1.487-1.377 1.487H29.279zM40.561 47.2c.705 0 1.22-.579 1.252-1.377l.47-15.381c.015-.783-.517-1.393-1.22-1.393-.69 0-1.237.626-1.268 1.377l-.47 15.366c-.016.783.532 1.408 1.236 1.408zm-9.122 0c.72 0 1.267-.625 1.236-1.408l-.47-15.366c-.03-.751-.579-1.377-1.267-1.377-.704 0-1.236.61-1.205 1.393l.47 15.382c.015.797.547 1.377 1.236 1.377zm4.569 0c.673 0 1.236-.625 1.236-1.377V30.427c0-.751-.563-1.377-1.236-1.377-.689 0-1.252.626-1.252 1.377v15.398c0 .75.563 1.377 1.252 1.377z"/></g><defs><linearGradient id="paint0_linear" x1=".513" x2=".513" y1=".997" y2="71.972" gradientUnits="userSpaceOnUse"><stop stop-color="#625B75"/><stop offset="1" stop-color="#171F2D"/></linearGradient></defs></svg>