<svg viewBox="0 0 48 46" fill="none" xmlns="http://www.w3.org/2000/svg"><path d="M11 16a2 2 0 11-4 0 2 2 0 014 0zm-.586 8.914a2 2 0 10-2.828-2.828 2 2 0 002.828 2.828zM16.74 22.5H14a1 1 0 000 2h2.734a3.756 3.756 0 01.006-2zm-3.447-7.207A1 1 0 0014 17h9a1 1 0 000-2h-9a1 1 0 00-.707.293zM11 31a2 2 0 11-4 0 2 2 0 014 0zm2.293-.707A1 1 0 0014 32h9a1 1 0 000-2h-9a1 1 0 00-.707.293zm15.805-8.263H19.54c-.875 0-1.541.704-1.541 1.476 0 .771.666 1.477 1.54 1.477h9.558l-1.733 1.576a1.412 1.412 0 00-.363.47 1.325 1.325 0 00-.129.568c0 .753.62 1.403 1.476 1.403.466 0 .81-.197 1.061-.437l.007-.005 4.107-4.003a1.57 1.57 0 00.361-.494c.088-.194.115-.381.115-.555 0-.375-.14-.728-.476-1.05l-4.1-3.995A1.464 1.464 0 0028.348 18c-.848 0-1.476.63-1.476 1.403 0 .377.168.764.482 1.042l1.743 1.585z" fill="#383C43"/><path fill-rule="evenodd" clip-rule="evenodd" d="M5 2a5 5 0 00-5 5v33a5 5 0 005 5h24a5 5 0 004.9-4.005h8.01c4.084 0 6.09-2.01 6.09-6.126V19.16c0-4.116-2.006-6.126-6.09-6.126h-2.826v-1.47c0-3.73-1.706-5.461-5.184-5.563A5 5 0 0029 2H5zM3.09 5.09A2.7 2.7 0 015 4.3h24A2.7 2.7 0 0131.7 7v11.34l2.3 2.337v-5.345h7.887c2.603 0 3.82 1.235 3.82 3.923v4.036h-9.718c.007.072.011.144.011.217 0 .237-.036.493-.15.758a2.14 2.14 0 01-.472.672l-.548.557h10.877v9.302c0 2.663-1.218 3.898-3.821 3.898H34V26.338l-2.3 2.338V40a2.7 2.7 0 01-2.7 2.7H5A2.7 2.7 0 012.3 40V7a2.7 2.7 0 01.79-1.91zM34 8.163v4.871h2.838v-1.566c0-2.18-.84-3.189-2.838-3.305z" fill="#383C43"/></svg>