<svg viewBox="0 0 250 460" fill="none" xmlns="http://www.w3.org/2000/svg">
  <path d="M0 15C0 6.71573 6.71573 0 15 0H250V460H15C6.71573 460 0 453.284 0 445V15Z" fill="#1B99FF"/>
  <path d="M24.8783 278.891V290.629H50.0318V278.891H24.8783ZM56.4351 282.397C56.4351 285.598 56.6637 295.66 61.4658 301.91C64.8958 306.331 71.0698 310.294 79.8354 310.294C90.8877 310.294 102.092 302.901 102.092 289.562C102.092 278.891 94.0129 270.049 82.6557 270.049C77.8536 270.049 73.0516 271.878 69.4691 276.146C69.9265 268.296 75.2621 260.292 84.7137 260.292C87.6101 260.292 92.5646 261.512 95.6135 263.189L100.034 252.213C95.4611 250.155 89.8968 249.011 84.8661 249.011C66.8776 249.011 56.4351 262.808 56.4351 282.397ZM69.4691 289.638C69.4691 283.921 74.4236 280.491 79.6068 280.491C85.4759 280.491 89.6682 284.226 89.6682 289.714C89.6682 295.05 85.2472 299.166 79.683 299.166C74.3474 299.166 69.4691 295.126 69.4691 289.638ZM107.071 279.653C107.071 295.355 115.074 310.294 132.529 310.294C149.755 310.294 158.216 295.126 158.216 279.348C158.216 263.57 149.755 248.935 132.758 248.935C115.303 248.935 107.071 263.875 107.071 279.653ZM119.495 279.5C119.495 271.649 123.154 260.75 132.605 260.75C142.057 260.75 145.716 271.649 145.716 279.5C145.716 287.427 142.057 298.404 132.605 298.404C123.154 298.404 119.495 287.427 119.495 279.5ZM175.715 276.223C183.185 276.223 189.207 270.125 189.207 262.731C189.207 255.261 183.185 249.164 175.715 249.164C168.245 249.164 162.224 255.261 162.224 262.731C162.224 270.125 168.245 276.223 175.715 276.223ZM179.145 309.532L217.943 249.85H207.653L168.779 309.532H179.145ZM175.715 258.005C178.307 258.005 180.441 260.14 180.441 262.731C180.441 265.247 178.307 267.381 175.715 267.381C173.124 267.381 170.989 265.247 170.989 262.731C170.989 260.14 173.124 258.005 175.715 258.005ZM211.159 309.837C218.629 309.837 224.65 303.815 224.65 296.422C224.65 288.952 218.629 282.854 211.159 282.854C203.689 282.854 197.667 288.952 197.667 296.422C197.667 303.815 203.689 309.837 211.159 309.837ZM211.159 291.696C213.75 291.696 215.885 293.754 215.885 296.422C215.885 298.937 213.75 301.071 211.159 301.071C208.567 301.071 206.433 298.937 206.433 296.422C206.433 293.754 208.567 291.696 211.159 291.696Z" fill="white"/>
  <path d="M51.7023 171.466C58.8868 171.466 62.848 166.689 62.848 161.99C62.848 157.68 59.8965 154.068 54.2654 153.058L50.0324 152.281C47.8188 151.854 46.8868 150.573 46.8868 149.136C46.8868 147.349 48.712 145.757 51.314 145.757C54.4208 145.757 56.1295 147.544 56.6344 149.913L62.3431 148.204C61.7994 144.32 58.3819 140.126 51.3528 140.126C45.5275 140.126 40.5955 144.165 40.5955 149.602C40.5955 154.223 43.78 157.369 48.712 158.34L53.0227 159.194C55.1198 159.621 56.479 160.864 56.479 162.379C56.479 164.243 54.8091 165.796 51.8965 165.796C48.5567 165.796 45.877 163.971 45.3722 160.631L39.5081 162.029C40.479 167.777 44.4013 171.466 51.7023 171.466ZM89.1254 150.34C89.1254 143.893 84.3487 140.592 78.2515 140.592H66.9505V171H73.2418V160.282H78.0185C84.3875 160.282 89.1254 157.058 89.1254 150.34ZM82.7952 150.495C82.7952 153.33 80.2321 154.417 77.7467 154.417H73.2418V146.534H77.7079C80.3098 146.534 82.7952 147.544 82.7952 150.495ZM92.6742 171H112.674V165.136H98.8878V158.573H111.16V152.67H98.8878V146.495H112.597V140.592H92.6742V171ZM130.554 171.427C139.602 171.427 144.146 165.058 145.039 161.33L139.02 159.272C138.437 161.524 135.835 165.33 130.631 165.33C125.194 165.33 121.427 160.981 121.427 155.738C121.427 150.573 125.311 146.262 130.631 146.262C135.874 146.262 138.398 150.107 138.864 152.048L144.845 149.951C143.796 145.835 139.253 140.126 130.709 140.126C122.282 140.126 114.903 146.728 114.903 155.815C114.903 165.214 122.243 171.427 130.554 171.427ZM148.369 140.592V171H154.66V140.592H148.369ZM178.922 164.476L181.368 171H187.854L176.203 140.592H168.63L157.019 171H163.465L165.873 164.476H178.922ZM167.931 158.65L172.359 146.689L176.786 158.65H167.931ZM190.184 171H209.446V165.019H196.436V140.592H190.184V171ZM59.5009 201.815C59.5009 210.592 66.4912 217.466 75.2291 217.466C83.967 217.466 91.0738 210.515 91.0738 201.66C91.0738 192.922 84.1223 186.126 75.3844 186.126C66.6465 186.126 59.5009 193.078 59.5009 201.815ZM65.9475 201.777C65.9475 196.534 70.064 192.223 75.3068 192.223C80.5495 192.223 84.666 196.534 84.666 201.777C84.666 207.019 80.5495 211.369 75.3068 211.369C70.064 211.369 65.9475 207.019 65.9475 201.777ZM101.42 192.573H115.168V186.592H95.1287V217H101.42V205H113.731V199.019H101.42V192.573ZM125.475 192.573H139.223V186.592H119.184V217H125.475V205H137.786V199.019H125.475V192.573ZM143.239 217H163.239V211.136H149.452V204.573H161.724V198.67H149.452V192.495H163.161V186.592H143.239V217ZM191.32 217L184.873 204.922C188.252 203.563 190.582 200.728 190.582 196.223C190.582 189.777 185.728 186.592 179.825 186.592H167.825V217H174.116V206.087H178.698L184.485 217H191.32ZM174.116 192.534H179.32C181.689 192.534 184.213 193.427 184.213 196.34C184.213 199.214 181.689 200.262 179.359 200.262H174.116V192.534Z" fill="white"/>
</svg>
