<svg width="46" height="36" viewBox="0 0 46 36" fill="none" xmlns="http://www.w3.org/2000/svg">
<path fill-rule="evenodd" clip-rule="evenodd" d="M6.541 0H10.138C10.91 0 11.541 0.0499999 12.11 0.172C12.678 0.294 13.182 0.49 13.684 0.784C14.185 1.078 14.684 1.469 15.252 1.991L15.272 2.009C15.841 2.531 16.339 2.922 16.842 3.216C17.343 3.51 17.847 3.706 18.415 3.828C18.984 3.951 19.615 4 20.386 4H38.308C40.983 4 41.953 4.278 42.931 4.801C43.908 5.324 44.676 6.091 45.199 7.069C45.722 8.047 46 9.017 46 11.692V28.308C46 30.983 45.722 31.953 45.199 32.931C44.676 33.908 43.909 34.676 42.931 35.199C41.953 35.722 40.983 36 38.308 36H7.692C5.017 36 4.047 35.722 3.069 35.199C2.092 34.676 1.324 33.909 0.801 32.931C0.278 31.953 0 30.983 0 28.308V6.541C0 5.202 0.28 4.03 0.803 3.06C1.326 2.09 2.091 1.326 3.06 0.803C4.029 0.28 5.202 0 6.54 0H6.541Z" fill="#96B8EE"/>
<path fill-rule="evenodd" clip-rule="evenodd" d="M6.41 6H39.59C41.82 6 42.627 6.232 43.442 6.668C44.257 7.104 44.896 7.743 45.332 8.558C45.768 9.373 46 10.181 46 12.41V27.108C46 29.783 45.722 30.753 45.199 31.731C44.676 32.708 43.909 33.476 42.931 33.999C41.953 34.522 40.983 34.8 38.308 34.8H7.692C5.017 34.8 4.047 34.522 3.069 33.999C2.092 33.476 1.324 32.709 0.801 31.731C0.278 30.753 0 29.783 0 27.108V12.41C0 10.18 0.232 9.373 0.668 8.558C1.104 7.743 1.743 7.104 2.558 6.668C3.373 6.232 4.18 6 6.41 6Z" fill="#C1D9FF"/>
</svg>
