<svg xmlns="http://www.w3.org/2000/svg" width="23" height="18" fill="none" viewBox="0 0 23 18">
  <path fill="#96B8EE" fill-rule="evenodd" d="M3.27 0H5.07c.386 0 .702.025.986.086.284.061.536.159.787.306.25.147.5.343.784.604l.01.008c.284.262.533.457.785.604.25.147.503.245.787.306.284.062.6.086.985.086h8.961c1.337 0 1.823.139 2.311.4.489.262.873.646 1.134 1.135.262.489.401.973.401 2.311v8.308c0 1.338-.139 1.822-.4 2.311-.262.489-.646.873-1.135 1.134-.488.262-.974.401-2.311.401H3.846c-1.337 0-1.823-.139-2.312-.4-.488-.262-.872-.646-1.133-1.135C.139 15.976 0 15.492 0 14.154V3.271C0 2.6.14 2.014.402 1.53.663 1.045 1.046.663 1.53.401 2.014.14 2.601 0 3.27 0z" clip-rule="evenodd"/>
  <path fill="#C1D9FF" fill-rule="evenodd" d="M3.205 3h16.59c1.115 0 1.518.116 1.926.334.407.218.727.538.945.945.218.407.334.811.334 1.926v7.349c0 1.338-.139 1.822-.4 2.312-.262.488-.646.872-1.135 1.134-.488.261-.974.4-2.311.4H3.846c-1.337 0-1.823-.139-2.312-.4-.488-.262-.872-.645-1.133-1.134-.262-.49-.401-.974-.401-2.312V6.205C0 5.09.116 4.686.334 4.279c.218-.407.538-.727.945-.945C1.687 3.116 2.09 3 3.205 3z" clip-rule="evenodd"/>
  <path fill="#C1D9FF" d="M11 7H12V14H11z"/>
  <path fill="#C1D9FF" d="M15 10H16V17H15z" transform="rotate(90 15 10)"/>
</svg>
