<svg width="32" height="25" fill="none" xmlns="http://www.w3.org/2000/svg"><path opacity=".3" fill-rule="evenodd" clip-rule="evenodd" d="M29.301 6.225c0 3.601-2.643 6.393-5.724 6.393-3.097 0-5.74-2.792-5.74-6.362C17.837 2.73 20.496 0 23.577 0 26.643 0 29.3 2.67 29.3 6.225zM12.082 7.37c0 3.143-2.31 5.584-4.984 5.584-2.689 0-5-2.441-5-5.554 0-3.067 2.326-5.432 5-5.432 2.673 0 4.984 2.304 4.984 5.402zM9.968 26c-1.51-2.182.256-6.561 3.383-9.002-1.586-1.069-3.625-1.847-6.268-1.847-6.42 0-10.483 4.791-10.483 8.759 0 1.342.71 2.09 2.568 2.09h10.8zM35.6 24.047c0 1.282-.8 1.953-3.081 1.953H14.605c-2.281 0-3.082-.671-3.082-1.953 0-3.723 4.637-8.85 12.039-8.85 7.416 0 12.038 5.127 12.038 8.85z" fill="#fff"/></svg>