<svg xmlns="http://www.w3.org/2000/svg" fill="none" viewBox="0 0 58 58"><circle cx="29" cy="29" r="29" fill="#151922" opacity=".2"/><path stroke="#fff" stroke-linecap="round" stroke-linejoin="round" stroke-width="2" d="M29.006 41c.405 0 1.018-.382 1.598-.787C36.233 36.402 40 31.815 40 27.24c0-4.362-2.979-7.24-6.428-7.24-2.157 0-3.68 1.214-4.567 2.945-.897-1.72-2.42-2.945-4.577-2.945C20.978 20 18 22.878 18 27.24c0 4.575 3.767 9.162 9.396 12.973.591.405 1.193.787 1.61.787z"/><path fill="#fff" d="M22.932 31.937h2.17c.51 0 .865-.252.976-.714l.584-2.653 1.471 8.731c.156.93 1.605.93 1.79.008l1.346-6.273.022.115c.103.512.444.786.983.786h2.794c.518 0 .932-.39.932-.887 0-.519-.407-.901-.932-.901h-2.232l-.717-2.24c-.207-.886-1.575-.872-1.775.03l-1.286 4.697-1.48-7.942c-.147-.916-1.515-.93-1.722-.014l-1.405 5.469h-1.52c-.517 0-.931.396-.931.901 0 .498.414.887.932.887z"/></svg>