<svg xmlns="http://www.w3.org/2000/svg" width="86" height="86" fill="none"><g filter="url(#filter0_dd)"><rect width="80" height="80" x="3" y="3" fill="#3B3E44" rx="40"/><rect width="80" height="80" x="3" y="3" fill="url(#paint0_linear)" fill-opacity=".15" rx="40"/></g><g fill-rule="evenodd" clip-rule="evenodd" opacity=".9"><path fill="#fff" d="M19.722 60.5c-3.442-4.804-5.472-10.715-5.472-17.107C14.25 27.298 27.122 14.25 43 14.25s28.75 13.048 28.75 29.143c0 6.392-2.03 12.303-5.472 17.107L52.469 37.77l-1.333 2.282 1.353 6.347L43 29.942l-5.87 10.046 1.367 6.411-4.974-8.616-13.8 22.717z"/><path fill="url(#paint1_linear)" fill-opacity=".2" d="M19.722 60.5c-3.442-4.804-5.472-10.715-5.472-17.107C14.25 27.298 27.122 14.25 43 14.25s28.75 13.048 28.75 29.143c0 6.392-2.03 12.303-5.472 17.107L52.469 37.77l-1.333 2.282 1.353 6.347L43 29.942l-5.87 10.046 1.367 6.411-4.974-8.616-13.8 22.717z"/></g><defs><linearGradient id="paint0_linear" x1="43" x2="43" y1="3" y2="83" gradientUnits="userSpaceOnUse"><stop stop-color="#fff"/><stop offset="1" stop-color="#fff" stop-opacity="0"/></linearGradient><linearGradient id="paint1_linear" x1="43" x2="43" y1="14.25" y2="60.5" gradientUnits="userSpaceOnUse"><stop stop-opacity="0"/><stop offset="1"/></linearGradient><filter id="filter0_dd" width="85" height="85" x=".5" y=".5" color-interpolation-filters="sRGB" filterUnits="userSpaceOnUse"><feFlood flood-opacity="0" result="BackgroundImageFix"/><feColorMatrix in="SourceAlpha" values="0 0 0 0 0 0 0 0 0 0 0 0 0 0 0 0 0 0 127 0"/><feOffset/><feGaussianBlur stdDeviation="1.25"/><feColorMatrix values="0 0 0 0 0 0 0 0 0 0 0 0 0 0 0 0 0 0 0.15 0"/><feBlend in2="BackgroundImageFix" result="effect1_dropShadow"/><feColorMatrix in="SourceAlpha" values="0 0 0 0 0 0 0 0 0 0 0 0 0 0 0 0 0 0 127 0"/><feOffset dy="1.25"/><feGaussianBlur stdDeviation=".625"/><feColorMatrix values="0 0 0 0 0 0 0 0 0 0 0 0 0 0 0 0 0 0 0.2 0"/><feBlend in2="effect1_dropShadow" result="effect2_dropShadow"/><feBlend in="SourceGraphic" in2="effect2_dropShadow" result="shape"/></filter></defs></svg>