<svg viewBox="0 0 80 80" fill="none" xmlns="http://www.w3.org/2000/svg">
<g opacity="0.5">
<path d="M43.8499 37.9947C42.7196 38.7046 41.3685 39.0588 40 39.0038C38.6314 39.0588 37.2803 38.7046 36.15 37.9947L7 23.6154V56.6626C7 58.6698 7.86919 60.5948 9.41637 62.0141C10.9635 63.4333 13.062 64.2307 15.25 64.2307H64.7499C66.9379 64.2307 69.0364 63.4333 70.5835 62.0141C72.1307 60.5948 72.9999 58.6698 72.9999 56.6626V23.6154L43.8499 37.9947Z" fill="#82A6DF"/>
<path d="M43.5538 40.3692C42.5104 41.0836 41.2633 41.4399 39.9999 41.3846C38.7366 41.4399 37.4895 41.0836 36.4461 40.3692L7 25.9V54.0769C7 56.0966 7.80233 58.0336 9.23049 59.4618C10.6587 60.8899 12.5957 61.6923 14.6154 61.6923H65.3845C67.4042 61.6923 69.3412 60.8899 70.7694 59.4618C72.1976 58.0336 72.9999 56.0966 72.9999 54.0769V25.9L43.5538 40.3692Z" fill="#A4C4F7"/>
<path d="M65.3846 18.5385H14.6154C12.5957 18.5385 10.6587 19.3408 9.23053 20.7689C7.80237 22.1971 7.00004 24.1341 7.00004 26.1538C6.99761 26.6116 7.11312 27.0622 7.33542 27.4624C7.55772 27.8625 7.87933 28.1987 8.26927 28.4384L38.7308 43.6692C39.1205 43.8744 39.5613 43.9625 40 43.923C40.4387 43.9625 40.8795 43.8744 41.2692 43.6692L71.7307 28.4384C72.1206 28.1987 72.4423 27.8625 72.6646 27.4624C72.8869 27.0622 73.0024 26.6116 72.9999 26.1538C72.9999 24.1341 72.1976 22.1971 70.7695 20.7689C69.3413 19.3408 67.4043 18.5385 65.3846 18.5385Z" fill="#82A6DF"/>
<path d="M65.3846 16H14.6154C12.5957 16 10.6587 16.8023 9.23053 18.2305C7.80237 19.6587 7.00004 21.5957 7.00004 23.6154C6.99761 24.0731 7.11312 24.5238 7.33542 24.9239C7.55772 25.3241 7.87933 25.6602 8.26927 25.9L38.7308 41.1307C39.1205 41.3359 39.5613 41.4241 40 41.3846C40.4387 41.4241 40.8795 41.3359 41.2692 41.1307L71.7307 25.9C72.1206 25.6602 72.4423 25.3241 72.6646 24.9239C72.8869 24.5238 73.0024 24.0731 72.9999 23.6154C72.9999 21.5957 72.1976 19.6587 70.7695 18.2305C69.3413 16.8023 67.4043 16 65.3846 16Z" fill="#C1D9FF"/>
</g>
</svg>
