<svg xmlns="http://www.w3.org/2000/svg" fill="none" viewBox="0 0 86 86"><g filter="url(#filter0_d)"><rect width="80" height="80" x="3" y="2" fill="#fff" rx="40"/><rect width="80" height="80" x="3" y="2" fill="url(#paint0_linear)" rx="40"/></g><g filter="url(#filter1_i)"><path fill="url(#paint1_linear)" fill-rule="evenodd" d="M19.722 59.5c-3.442-4.804-5.472-10.715-5.472-17.107C14.25 26.298 27.122 13.25 43 13.25s28.75 13.048 28.75 29.143c0 6.392-2.03 12.303-5.472 17.107L52.469 36.77l-1.333 2.282 1.353 6.347L43 28.942l-5.87 10.046 1.367 6.411-4.974-8.616-13.8 22.717z" clip-rule="evenodd"/></g><g filter="url(#filter2_d)"><path fill="#FFBD2F" d="M47.029 82H77.97c3.058 0 5.03-2.22 5.03-4.944 0-.81-.217-1.641-.65-2.413L66.848 47.53c-.947-1.68-2.643-2.53-4.34-2.53-1.695 0-3.41.85-4.358 2.53L42.67 74.642c-.434.792-.671 1.603-.671 2.414C42 79.78 43.972 82 47.029 82z"/><path fill="url(#paint2_linear)" fill-opacity=".2" d="M47.029 82H77.97c3.058 0 5.03-2.22 5.03-4.944 0-.81-.217-1.641-.65-2.413L66.848 47.53c-.947-1.68-2.643-2.53-4.34-2.53-1.695 0-3.41.85-4.358 2.53L42.67 74.642c-.434.792-.671 1.603-.671 2.414C42 79.78 43.972 82 47.029 82z"/></g><path fill="#000" d="M62.507 69.121c1.332 0 2.018-.84 2.058-2.283l.237-8.714c.013-.224.026-.476.026-.658 0-1.555-.857-2.466-2.308-2.466-1.465 0-2.335.91-2.335 2.466 0 .182.013.434.013.658l.25 8.714c.04 1.443.713 2.283 2.059 2.283zm0 6.879A2.497 2.497 0 0065 73.478c0-1.4-1.121-2.507-2.493-2.507A2.496 2.496 0 0060 73.478 2.5 2.5 0 0062.507 76z"/><defs><linearGradient id="paint0_linear" x1="3" x2="3" y1="2" y2="82" gradientUnits="userSpaceOnUse"><stop stop-color="#43A5A2" stop-opacity=".01"/><stop offset="1" stop-color="#439FA1" stop-opacity=".1"/></linearGradient><linearGradient id="paint1_linear" x1="14.25" x2="14.25" y1="13.25" y2="59.5" gradientUnits="userSpaceOnUse"><stop stop-color="#43A5A1"/><stop offset="1" stop-color="#4295A3"/></linearGradient><linearGradient id="paint2_linear" x1="62.5" x2="62.5" y1="45" y2="82" gradientUnits="userSpaceOnUse"><stop stop-color="#fff"/><stop offset="1" stop-color="#fff" stop-opacity="0"/></linearGradient><filter id="filter0_d" width="86" height="86" x="0" y="0" color-interpolation-filters="sRGB" filterUnits="userSpaceOnUse"><feFlood flood-opacity="0" result="BackgroundImageFix"/><feColorMatrix in="SourceAlpha" values="0 0 0 0 0 0 0 0 0 0 0 0 0 0 0 0 0 0 127 0"/><feOffset dy="1"/><feGaussianBlur stdDeviation="1.5"/><feColorMatrix values="0 0 0 0 0 0 0 0 0 0 0 0 0 0 0 0 0 0 0.3 0"/><feBlend in2="BackgroundImageFix" result="effect1_dropShadow"/><feBlend in="SourceGraphic" in2="effect1_dropShadow" result="shape"/></filter><filter id="filter1_i" width="57.5" height="46.602" x="14.25" y="12.898" color-interpolation-filters="sRGB" filterUnits="userSpaceOnUse"><feFlood flood-opacity="0" result="BackgroundImageFix"/><feBlend in="SourceGraphic" in2="BackgroundImageFix" result="shape"/><feColorMatrix in="SourceAlpha" result="hardAlpha" values="0 0 0 0 0 0 0 0 0 0 0 0 0 0 0 0 0 0 127 0"/><feOffset dy="-.352"/><feGaussianBlur stdDeviation=".176"/><feComposite in2="hardAlpha" k2="-1" k3="1" operator="arithmetic"/><feColorMatrix values="0 0 0 0 0 0 0 0 0 0 0 0 0 0 0 0 0 0 0.2 0"/><feBlend in2="shape" result="effect1_innerShadow"/></filter><filter id="filter2_d" width="47" height="43" x="39" y="43" color-interpolation-filters="sRGB" filterUnits="userSpaceOnUse"><feFlood flood-opacity="0" result="BackgroundImageFix"/><feColorMatrix in="SourceAlpha" values="0 0 0 0 0 0 0 0 0 0 0 0 0 0 0 0 0 0 127 0"/><feOffset dy="1"/><feGaussianBlur stdDeviation="1.5"/><feColorMatrix values="0 0 0 0 0 0 0 0 0 0 0 0 0 0 0 0 0 0 0.3 0"/><feBlend in2="BackgroundImageFix" result="effect1_dropShadow"/><feBlend in="SourceGraphic" in2="effect1_dropShadow" result="shape"/></filter></defs></svg>