<svg width="117" height="64" viewBox="0 0 64 64" fill="none" xmlns="http://www.w3.org/2000/svg"><rect x=".5" y=".5" width="63" height="63" rx="31.5" fill="#fff"/><rect x=".5" y=".5" width="63" height="63" rx="31.5" fill="url(#paint0_linear)"/><rect x=".5" y=".5" width="63" height="63" rx="31.5" stroke="#E8E8E9"/><g filter="url(#filter0_i)"><path fill-rule="evenodd" clip-rule="evenodd" d="M13.378 46A23.423 23.423 0 019 32.314C9 19.438 19.297 9 32 9s23 10.438 23 23.314A23.42 23.42 0 0150.622 46L39.575 27.816l-1.066 1.826 1.082 5.077L32 21.554l-4.696 8.037 1.093 5.128-3.979-6.893L13.378 46z" fill="url(#paint1_linear)"/></g><path d="M48.554 64h11.88C62.157 64 63 63.152 63 61.302v-9.108c0-1.66-.7-2.521-2.115-2.662v-2.78c0-4.537-3.148-6.752-6.39-6.752-3.244 0-6.392 2.215-6.392 6.751v2.804C46.748 49.732 46 50.58 46 52.195v9.107c0 1.85.843 2.698 2.554 2.698zm2.507-17.414c0-2.368 1.497-3.758 3.433-3.758 1.937 0 3.445 1.39 3.445 3.758v2.934h-6.878v-2.934z" fill="url(#paint2_linear)"/><defs><linearGradient id="paint0_linear" x1="0" y1="0" x2="0" y2="64" gradientUnits="userSpaceOnUse"><stop stop-color="#43A5A2" stop-opacity=".01"/><stop offset="1" stop-color="#439FA1" stop-opacity=".1"/></linearGradient><linearGradient id="paint1_linear" x1="9" y1="9" x2="9" y2="46" gradientUnits="userSpaceOnUse"><stop stop-color="#43A5A1"/><stop offset="1" stop-color="#4295A3"/></linearGradient><linearGradient id="paint2_linear" x1="54.5" y1="40" x2="54.5" y2="64" gradientUnits="userSpaceOnUse"><stop stop-color="#7B7C8A"/><stop offset="1" stop-color="#010101"/></linearGradient><filter id="filter0_i" x="9" y="8.75" width="46" height="37.25" filterUnits="userSpaceOnUse" color-interpolation-filters="sRGB"><feFlood flood-opacity="0" result="BackgroundImageFix"/><feBlend in="SourceGraphic" in2="BackgroundImageFix" result="shape"/><feColorMatrix in="SourceAlpha" values="0 0 0 0 0 0 0 0 0 0 0 0 0 0 0 0 0 0 127 0" result="hardAlpha"/><feOffset dy="-.25"/><feGaussianBlur stdDeviation=".125"/><feComposite in2="hardAlpha" operator="arithmetic" k2="-1" k3="1"/><feColorMatrix values="0 0 0 0 0 0 0 0 0 0 0 0 0 0 0 0 0 0 0.2 0"/><feBlend in2="shape" result="effect1_innerShadow"/></filter></defs></svg>