<svg viewBox="0 0 86 86" fill="none" xmlns="http://www.w3.org/2000/svg"><g filter="url(#filter0_d)"><rect x="3" y="2" width="80" height="80" rx="40" fill="#fff"/><rect x="3" y="2" width="80" height="80" rx="40" fill="url(#paint0_linear)"/></g><g filter="url(#filter1_i)"><path fill-rule="evenodd" clip-rule="evenodd" d="M19.722 59.5c-3.442-4.804-5.472-10.715-5.472-17.107C14.25 26.298 27.122 13.25 43 13.25s28.75 13.048 28.75 29.143c0 6.392-2.03 12.303-5.472 17.107L52.469 36.77l-1.333 2.282 1.353 6.347L43 28.942l-5.87 10.046 1.367 6.411-4.974-8.616-13.8 22.717z" fill="url(#paint1_linear)"/></g><defs><linearGradient id="paint0_linear" x1="3" y1="2" x2="3" y2="82" gradientUnits="userSpaceOnUse"><stop stop-color="#43A5A2" stop-opacity=".01"/><stop offset="1" stop-color="#439FA1" stop-opacity=".1"/></linearGradient><linearGradient id="paint1_linear" x1="14.25" y1="13.25" x2="14.25" y2="59.5" gradientUnits="userSpaceOnUse"><stop stop-color="#43A5A1"/><stop offset="1" stop-color="#4295A3"/></linearGradient><filter id="filter0_d" x="0" y="0" width="86" height="86" filterUnits="userSpaceOnUse" color-interpolation-filters="sRGB"><feFlood flood-opacity="0" result="BackgroundImageFix"/><feColorMatrix in="SourceAlpha" values="0 0 0 0 0 0 0 0 0 0 0 0 0 0 0 0 0 0 127 0"/><feOffset dy="1"/><feGaussianBlur stdDeviation="1.5"/><feColorMatrix values="0 0 0 0 0 0 0 0 0 0 0 0 0 0 0 0 0 0 0.3 0"/><feBlend in2="BackgroundImageFix" result="effect1_dropShadow"/><feBlend in="SourceGraphic" in2="effect1_dropShadow" result="shape"/></filter><filter id="filter1_i" x="14.25" y="12.898" width="57.5" height="46.602" filterUnits="userSpaceOnUse" color-interpolation-filters="sRGB"><feFlood flood-opacity="0" result="BackgroundImageFix"/><feBlend in="SourceGraphic" in2="BackgroundImageFix" result="shape"/><feColorMatrix in="SourceAlpha" values="0 0 0 0 0 0 0 0 0 0 0 0 0 0 0 0 0 0 127 0" result="hardAlpha"/><feOffset dy="-.352"/><feGaussianBlur stdDeviation=".176"/><feComposite in2="hardAlpha" operator="arithmetic" k2="-1" k3="1"/><feColorMatrix values="0 0 0 0 0 0 0 0 0 0 0 0 0 0 0 0 0 0 0.2 0"/><feBlend in2="shape" result="effect1_innerShadow"/></filter></defs></svg>