<svg xmlns="http://www.w3.org/2000/svg" width="117" height="68" fill="none" viewBox="0 0 68 68"><g filter="url(#filter0_dd)"><rect width="64" height="64" x="2" y="2" fill="#3B3E44" rx="32"/><rect width="64" height="64" x="2" y="2" fill="url(#paint0_linear)" fill-opacity=".15" rx="32"/></g><g fill-rule="evenodd" clip-rule="evenodd" opacity=".9"><path fill="#fff" d="M15.378 48A23.42 23.42 0 0111 34.314C11 21.438 21.297 11 34 11s23 10.438 23 23.314A23.42 23.42 0 0152.622 48L41.575 29.816l-1.066 1.826 1.082 5.077L34 23.554l-4.696 8.037 1.093 5.128-3.979-6.893L15.378 48z"/><path fill="url(#paint1_linear)" fill-opacity=".2" d="M15.378 48A23.42 23.42 0 0111 34.314C11 21.438 21.297 11 34 11s23 10.438 23 23.314A23.42 23.42 0 0152.622 48L41.575 29.816l-1.066 1.826 1.082 5.077L34 23.554l-4.696 8.037 1.093 5.128-3.979-6.893L15.378 48z"/></g><path fill="url(#paint2_linear)" d="M50.554 66h11.88C64.156 66 65 65.152 65 63.302v-9.108c0-1.66-.7-2.521-2.115-2.662v-2.78c0-4.537-3.148-6.752-6.39-6.752-3.244 0-6.392 2.215-6.392 6.751v2.804C48.748 51.732 48 52.58 48 54.195v9.107c0 1.85.843 2.698 2.554 2.698zm2.507-17.414c0-2.368 1.497-3.758 3.433-3.758 1.937 0 3.445 1.39 3.445 3.758v2.934h-6.878v-2.934z"/><defs><linearGradient id="paint0_linear" x1="34" x2="34" y1="2" y2="66" gradientUnits="userSpaceOnUse"><stop stop-color="#fff"/><stop offset="1" stop-color="#fff" stop-opacity="0"/></linearGradient><linearGradient id="paint1_linear" x1="34" x2="34" y1="11" y2="48" gradientUnits="userSpaceOnUse"><stop stop-opacity="0"/><stop offset="1"/></linearGradient><linearGradient id="paint2_linear" x1="56.5" x2="56.5" y1="42" y2="66" gradientUnits="userSpaceOnUse"><stop stop-color="#fff"/><stop offset="1" stop-color="#E5E7EA"/></linearGradient><filter id="filter0_dd" width="68" height="68" x="0" y="0" color-interpolation-filters="sRGB" filterUnits="userSpaceOnUse"><feFlood flood-opacity="0" result="BackgroundImageFix"/><feColorMatrix in="SourceAlpha" values="0 0 0 0 0 0 0 0 0 0 0 0 0 0 0 0 0 0 127 0"/><feOffset/><feGaussianBlur stdDeviation="1"/><feColorMatrix values="0 0 0 0 0 0 0 0 0 0 0 0 0 0 0 0 0 0 0.15 0"/><feBlend in2="BackgroundImageFix" result="effect1_dropShadow"/><feColorMatrix in="SourceAlpha" values="0 0 0 0 0 0 0 0 0 0 0 0 0 0 0 0 0 0 127 0"/><feOffset dy="1"/><feGaussianBlur stdDeviation=".5"/><feColorMatrix values="0 0 0 0 0 0 0 0 0 0 0 0 0 0 0 0 0 0 0.2 0"/><feBlend in2="effect1_dropShadow" result="effect2_dropShadow"/><feBlend in="SourceGraphic" in2="effect2_dropShadow" result="shape"/></filter></defs></svg>