<svg viewBox="0 0 20 19" fill="none" xmlns="http://www.w3.org/2000/svg">
  <path
    d="M3.83319 18.8159C4.25937 19.1335 4.78323 19.0276 5.38699 18.5954L10.004 15.2256L14.6121 18.5954C15.2159 19.0276 15.7397 19.1335 16.1659 18.8159C16.5832 18.4983 16.672 17.9779 16.4323 17.281L14.6121 11.9L19.2647 8.58315C19.8684 8.15973 20.117 7.68338 19.9483 7.18938C19.7796 6.69539 19.309 6.44839 18.5632 6.45721L12.863 6.50132L11.1227 1.08502C10.8919 0.379317 10.5279 0 10.004 0C9.47127 0 9.10723 0.379317 8.87638 1.08502L7.14501 6.50132L1.4359 6.45721C0.690071 6.44839 0.219491 6.69539 0.0507929 7.18056C-0.117906 7.68338 0.139582 8.15973 0.734465 8.58315L5.38699 11.9L3.56682 17.281C3.32709 17.9779 3.41588 18.4983 3.83319 18.8159ZM5.42251 16.6547C5.40475 16.637 5.40475 16.6282 5.42251 16.5753L7.10061 11.8735C7.25155 11.4324 7.20716 11.1678 6.78985 10.8943L2.64342 8.07151C2.60791 8.04505 2.59015 8.02741 2.60791 8.00976C2.61678 7.9833 2.63454 7.9833 2.67894 7.9833L7.70437 8.09798C8.16607 8.11562 8.4058 7.96566 8.53899 7.51577L9.95073 2.73461C9.96848 2.68168 9.97736 2.66404 10.004 2.66404C10.0218 2.66404 10.0395 2.68168 10.0484 2.73461L11.4601 7.51577C11.5933 7.96566 11.833 8.11562 12.3036 8.09798L17.3202 7.9833C17.3735 7.9833 17.3912 7.9833 17.4001 8.00976C17.409 8.02741 17.3912 8.04505 17.3557 8.07151L13.2093 10.8943C12.8008 11.1678 12.7476 11.4324 12.9074 11.8735L14.5766 16.5753C14.5944 16.6282 14.5944 16.637 14.5766 16.6547C14.5677 16.6723 14.5411 16.6635 14.5056 16.637L10.5279 13.5848C10.1549 13.3026 9.84418 13.3026 9.47127 13.5848L5.49354 16.637C5.45802 16.6635 5.44026 16.6723 5.42251 16.6547Z"
    fill="#FF7E23"/>
</svg>
