<svg viewBox="0 0 20 19" fill="none" xmlns="http://www.w3.org/2000/svg">
  <path
    d="M3.83319 18.8159C4.25937 19.1335 4.78323 19.0276 5.38699 18.5954L10.004 15.2256L14.6121 18.5954C15.2159 19.0276 15.7397 19.1335 16.1659 18.8159C16.5832 18.4983 16.672 17.9779 16.4323 17.281L14.6121 11.9L19.2647 8.58315C19.8684 8.15973 20.117 7.68338 19.9483 7.18938C19.7796 6.69539 19.309 6.44839 18.5632 6.45721L12.863 6.50132L11.1227 1.08502C10.8919 0.379317 10.5279 0 10.004 0C9.47127 0 9.10723 0.379317 8.87638 1.08502L7.14501 6.50132L1.4359 6.45721C0.690071 6.44839 0.219491 6.69539 0.0507929 7.18056C-0.117906 7.68338 0.139582 8.15973 0.734465 8.58315L5.38699 11.9L3.56682 17.281C3.32709 17.9779 3.41588 18.4983 3.83319 18.8159Z"
    fill="#FF7E23"/>
</svg>
