<svg width="48" height="44" fill="none" xmlns="http://www.w3.org/2000/svg"><path d="M6.09 43.003h35.82c4.084 0 6.09-2.01 6.09-6.126v-22.71c0-4.116-2.006-6.126-6.09-6.126h-5.826v-2.47c0-3.849-1.815-5.568-5.517-5.568H17.433c-3.606 0-5.517 1.719-5.517 5.569v2.47H6.09C2.03 8.041 0 10.05 0 14.166v22.71c0 4.116 2.03 6.126 6.09 6.126zm8.07-37.528c0-2.325.955-3.317 3.248-3.317H30.59c2.293 0 3.248.992 3.248 3.317V8.04H14.16V5.475zM2.293 14.264c0-2.688 1.217-3.923 3.82-3.923h35.774c2.603 0 3.82 1.235 3.82 3.923v6.392H2.294v-6.392zm3.82 26.439c-2.603 0-3.82-1.235-3.82-3.898V22.859H14.28v1.525c0 2.252 1.337 3.56 3.558 3.56H30.16c2.245 0 3.558-1.308 3.558-3.56V22.86h11.989v13.946c0 2.663-1.218 3.898-3.821 3.898H6.113z" fill="#383C43"/></svg>