<svg xmlns="http://www.w3.org/2000/svg" fill="none"><ellipse cx="48" cy="62.883" fill="#D0D1D3" rx="48" ry="48.118"/><path fill="#000" d="M48 110.999c26.51 0 48-21.543 48-48.117 0-2.25-.154-4.463-.452-6.63-5.37-3.989-12.56-5.522-19.676-3.163l-20.86 6.913a36.22 36.22 0 01-15.364 1.623l-16.843-1.853c-5.341-.588-10.232.693-14.235 3.204L.23 67.614C2.6 91.967 23.083 110.999 48 110.999z"/><path fill="url(#paint0_linear)" d="M15.451 98.249v-9.27c0-5.036 0-7.554.886-9.516a9.999 9.999 0 014.999-4.999c1.962-.886 4.48-.886 9.515-.886h40.215c5.035 0 7.552 0 9.515.886a10.003 10.003 0 014.999 4.999c.886 1.962.886 4.48.886 9.515v2.693C77.712 103.405 63.74 111 48 111c-12.56 0-23.994-4.836-32.549-12.752z"/><g fill="#fff" clip-path="url(#clip0)"><path d="M40.284 86.937v11.136a2.953 2.953 0 002.902 2.961h16.27a2.953 2.953 0 002.902-2.961V86.937c0-.91-1.028-1.434-1.757-.896l-9.28 6.849-9.28-6.849c-.73-.538-1.757-.014-1.757.896z" opacity=".5"/><path d="M43.227 101.033h16.188c.932 0 1.763-.436 2.303-1.117L52.27 84.071c-.424-.74-1.657-.74-2.082 0l-9.264 15.845a2.93 2.93 0 002.303 1.117z" opacity=".5"/><path d="M43.2 101.031a2.924 2.924 0 01-1.917-.737l10.038-7.407 10.037 7.407a2.925 2.925 0 01-1.918.737H43.2z"/></g><ellipse fill="#8A6B59" rx="17.566" ry="17.605" transform="matrix(.9578 -.28766 .28633 .95806 45.053 39.536)"/><ellipse fill="#8A6B59" rx="5.122" ry="5.129" transform="matrix(.7675 -.64172 .63931 .76839 29.37 42.084)"/><ellipse fill="#8A6B59" rx="5.122" ry="5.129" transform="matrix(.7675 -.64172 .63931 .76839 60.738 36.99)"/><path fill="#000" d="M55.316 25.244a17.596 17.596 0 015.547 6.621L44.25 34.558l-16.614 2.694a17.645 17.645 0 013.163-8.008 17.592 17.592 0 015.013-4.685 17.53 17.53 0 0119.504.685z"/><path fill="#000" d="M32.617 14.254a7.927 7.927 0 016.409-9.189 7.911 7.911 0 019.18 6.405l3.834 21.584-15.589 2.783-3.834-21.584z"/><path fill="#000" d="M24.347 18.937a7.926 7.926 0 016.41-9.188 7.912 7.912 0 019.18 6.405l3.258 18.345-15.589 2.783-3.259-18.345zm18.183-.007a7.928 7.928 0 016.41-9.189 7.911 7.911 0 019.18 6.405l2.792 15.71-15.644 2.481-2.737-15.408z"/><defs><linearGradient id="paint0_linear" x1="26.155" x2="93.474" y1="60.615" y2="101.83" gradientUnits="userSpaceOnUse"><stop stop-color="#6B59F7"/><stop offset="1" stop-color="#C742D8"/></linearGradient><clipPath id="clip0"><path fill="#fff" d="M0 0h22.074v22.128H0z" transform="translate(40.284 81.215)"/></clipPath></defs></svg>