<svg width="340" height="460" fill="none" xmlns="http://www.w3.org/2000/svg"><path d="M42 15c0-8.284 6.716-15 15-15h283v460H57c-8.284 0-15-6.716-15-15V15z" fill="#fff"/><path d="M41 15c0-8.284 6.716-15 15-15h235v460H56c-8.284 0-15-6.716-15-15V15z" fill="#7B83F9"/><path d="M291 127.281v276.438C269.428 427.248 238.437 442 204 442c-65.17 0-118-52.83-118-118V207c0-65.17 52.83-118 118-118 34.437 0 65.428 14.752 87 38.281z" fill="#959CFA"/><path d="M13.185 242.769a6.824 6.824 0 00-11.553 7.262l59.88 95.265a6.824 6.824 0 0011.553-7.262l-59.88-95.265z" fill="#fff"/><path d="M69.765 315.743l28.83 46.291-22.346 53.652c-10.6-15.997-32.476-62.485-45.38-85.361-10.323-18.301-6.036-31.282-.296-34.579 14.011 23.762 30.879 44.284 39.239 53.505-1.122-2.535-4.104-10.175-7.062-20.46-2.05-7.128 3.988-11.89 7.015-13.048z" fill="#78665B"/><path d="M291 252.901V460H86.837c-.69-.96-1.371-1.913-2.043-2.86-11.28-15.841-19.908-29.84-25.75-39.945-2.972-5.068-5.186-9.004-6.642-11.808l-1.457-2.804 51.226-46.953 70.883 64.396-1.516-53.383.057-.021c-.362-7.94.142-16.043 1.588-24.196 10.005-56.392 61.771-94.928 117.817-89.525z" fill="#FA6E57"/><path d="M169.132 153.078c-17.194 28.762-7.816 66.018 20.947 83.211 28.763 17.194 66.018 7.816 83.212-20.947 17.194-28.763 7.815-66.018-20.948-83.212-28.762-17.193-66.017-7.815-83.211 20.948z" fill="#78665B"/><path d="M185.032 135.454a60.667 60.667 0 0167.338-3.287 60.669 60.669 0 0128.806 60.954 60.564 60.564 0 01-1.212 6.035l-21.883-13.096a17.635 17.635 0 001.241-5.877c.373-9.76-7.236-17.974-16.995-18.347-5.671-.217-10.82 2.261-14.212 6.29l-47.924-28.681a60.404 60.404 0 014.841-3.991zm123.532-74.232c6.791-14.707.375-32.135-14.333-38.927-14.707-6.791-32.135-.374-38.927 14.333l-22.007 47.656c-6.791 14.707-.375 32.136 14.333 38.927 14.707 6.792 32.135.375 38.927-14.332l22.007-47.657z" fill="#003247"/></svg>