<svg xmlns="http://www.w3.org/2000/svg" width="263" height="460" fill="none"><path fill="#4AA16F" d="M13 15c0-8.284 5.634-15 12.584-15H263v460H25.584C18.634 460 13 453.284 13 445V15z"/><path fill="#fff" d="M13 36.074C89.088 53.102 145.932 120.8 145.932 201.718c0 80.92-56.844 148.617-132.932 165.644V36.074zM230.52 460a111.346 111.346 0 014.197-10.419c6.029-13.4 14.84-24.995 25.202-34.847A95.679 95.679 0 01263 411.93V460h-32.48z" opacity=".2"/><path fill="#003247" d="M142 74H59.983v.126C52.1 75.12 46.002 81.848 46.002 90c0 8.152 6.097 14.88 13.98 15.874V106h82.133c8.783-.062 15.884-7.202 15.884-16s-7.101-15.937-15.884-16H142z"/><path fill="#fff" d="M142.487 96.168a5.796 5.796 0 110-11.592 5.796 5.796 0 010 11.592zm-16.368 0a5.796 5.796 0 110-11.592 5.796 5.796 0 010 11.592zm-16.022 0c-3.012 0-5.455-2.595-5.455-5.796 0-3.2 2.443-5.796 5.455-5.796 3.013 0 5.455 2.595 5.455 5.796s-2.442 5.796-5.455 5.796zm-16.023 0a5.796 5.796 0 110-11.592 5.796 5.796 0 010 11.592zm-16.368 0a5.797 5.797 0 11.001-11.593 5.797 5.797 0 01-.001 11.593zm-15.343 0c-3.39 0-6.137-2.595-6.137-5.796 0-3.2 2.748-5.796 6.137-5.796 3.39 0 6.137 2.595 6.137 5.796s-2.748 5.796-6.137 5.796z"/><circle r="23.959" fill="#FFA785" transform="scale(-1 1) rotate(-39.056 142.444 371.515)"/><path fill="#003247" d="M239.686 114.285c5.461 3.33 7.189 10.457 3.859 15.918l-10.79 17.697c-3.33 5.462-10.457 7.19-15.919 3.86-5.461-3.33-7.189-10.457-3.859-15.919l10.79-17.697c3.33-5.461 10.457-7.189 15.919-3.859zm-39.9 34.654a23.985 23.985 0 00-11.051 4.038l17.485 14.203a6.984 6.984 0 0110.742 8.726l7.411 6.019a23.962 23.962 0 00-15.281-32.107 23.959 23.959 0 00-9.306-.879z"/><path fill="#F6AA72" d="M127.352 460l-18.269-72.278h.09a42.492 42.492 0 01-.763-8.625c.359-20.798 16.486-37.553 36.79-39.17l86.651-10.152c0-4.223-.135-8.445-.539-12.264-.269-2.605-.629-4.986-1.168-7.052-.359-1.393-.808-2.695-1.303-3.773l34.159.495v88.595l-16.011 12.879-48.648 5.525L210.125 460h-82.773z"/><path fill="#FDCB6C" d="M45.985 460l26.846-99.465c2.66-14.851 13.657-27.539 29.227-31.627a39.993 39.993 0 0117.243-.67l94.549.3c.974-4.02 1.728-7.669 2.306-10.796a168.457 168.457 0 001.392-8.67c.058-.485.108-.844.15-1.143v-.002c.054-.392.094-.68.12-1.011.045-.045.089-.079.134-.112.045-.034.09-.068.135-.113l44.913.084V406.79c-.829.149-1.665.278-2.508.389l-12.263 1.617-.049-.079.051.585-105.513-1.003L129.056 460H45.985z"/><path fill="#fff" d="M.169 219.68l6.558-1.662 16.785 67.332h61.657v6.668H17.824L.17 219.68z"/><path fill="#FFA785" d="M61.402 283.01c-.629.584-.314 1.662.54 1.796h.044c1.393.27 3.19.495 5.211.584a65.53 65.53 0 0013.836-.898c5.21-.943 10.6.764 14.733 2.65a40.96 40.96 0 015.076 2.785c.539.36 1.034.674 1.348.899l11.23-16.441c-4.088-3.1-10.242-3.729-15.722-3.504-2.83.135-5.435.494-7.277.854-.943.179-1.707.314-2.201.449-.27.045-.45.09-.584.135-.09 0-.135.044-.135.044s-15.318 4.358-21.876 7.278c-1.123.539-2.965 2.156-4.223 3.369z"/><path fill="#EB6447" d="M263 306.764l-45.131-.087a10.464 10.464 0 00-.164-.808v-.002l-.061-.268c-.273-1.131-2.509-4.699-4.299-7.06l-.012.028-4.31-3.408a294.64 294.64 0 01-3.781 10.845c-3.314 8.852-6.59 15.902-9.13 20.93-1.954 7.268-7.758 13.229-15.62 15.008a20.964 20.964 0 01-12.653-1.056c-19.883-6.801-37.536-18.063-50.325-27.733a214.399 214.399 0 01-15.453-12.802c-1.841-1.662-3.234-2.965-4.177-3.908l-.943-.944 14.644-25.425 54.14 24.906 6.502-49.751a46.5 46.5 0 01.718-8.35c4.447-25.066 28.434-41.776 53.5-37.284 15.279 2.738 27.437 12.704 33.595 25.746l.189-.195c0 .023.011.034.022.045.012.012.023.023.023.045l.25.442c.393.693.918 1.616 1.502 2.748.301.583.627 1.221.974 1.913v76.425z"/></svg>