<svg width="752" height="232" viewBox="0 0 752 232" fill="none" xmlns="http://www.w3.org/2000/svg">
<g clip-path="url(#clip0_11572_66517)">
<path d="M0.0771484 0H752V232.094H0.0771484V0Z" fill="#FFECE8"/>
<path d="M447.086 145.407C457.518 145.44 466.516 139.241 470.553 130.313C471.4 130.269 472.253 130.078 473.078 129.729C476.88 128.117 478.656 123.728 477.044 119.926C476.17 117.865 474.48 116.399 472.51 115.746C470.591 103.513 460.025 94.1383 447.247 94.0983C436.803 94.0655 427.798 100.278 423.766 109.22C422.838 109.238 421.896 109.429 420.989 109.814C417.187 111.426 415.411 115.814 417.023 119.616C417.939 121.777 419.751 123.283 421.843 123.885C423.814 136.056 434.352 145.367 447.086 145.407Z" fill="#8A6B59"/>
<path d="M467.55 104.168C469.596 106.845 471.094 109.898 471.959 113.154C472.187 114.011 472.37 114.877 472.507 115.749L448.146 112.469L423.784 109.188C424.141 108.398 424.538 107.626 424.974 106.873C426.664 103.959 428.912 101.406 431.589 99.3605C434.266 97.3149 437.319 95.8166 440.575 94.9511C443.831 94.0857 447.226 93.87 450.565 94.3163C453.904 94.7627 457.123 95.8625 460.037 97.5528C462.952 99.2431 465.504 101.491 467.55 104.168Z" fill="black"/>
<path d="M585.526 232.094C587.086 230.545 588.48 228.788 589.665 226.841C596.381 215.8 594.549 201.579 585.253 192.6L537.253 146.236C531.26 140.448 523.325 137.91 515.629 138.584C514.099 138.681 512.552 138.925 511.005 139.327L459.743 152.636C452.999 154.387 446.021 155.059 439.066 154.626L405.511 152.539C387.851 151.441 374.064 167.572 377.899 184.845L388.39 232.094L585.526 232.094Z" fill="#FA7B60"/>
<path d="M490.161 165.225L488.105 165.293C480.82 161.285 473.079 160.959 468.872 161.17C464.666 161.381 456.824 162.994 454.32 170.613L483.569 184.794L490.161 165.225Z" fill="#8A6B59"/>
<path d="M337.354 125.125C335.341 135.174 327.551 143.563 316.889 145.826C303.852 148.592 291.021 141.244 286.559 129.088C284.417 128.866 282.378 127.754 281.041 125.854C278.589 122.37 279.426 117.558 282.91 115.107C283.754 114.513 284.676 114.112 285.623 113.895C287.897 104.227 295.544 96.2467 305.902 94.0486C318.603 91.3537 331.108 98.2575 335.87 109.855C338.268 109.88 340.619 111.019 342.104 113.13C344.556 116.614 343.719 121.425 340.235 123.877C339.341 124.505 338.36 124.918 337.354 125.125Z" fill="#8A6B59"/>
<path d="M306.822 67.0301C302.705 67.4193 299.276 69.8566 297.446 73.2394C296.287 72.992 295.071 72.9145 293.829 73.0319C287.27 73.6519 282.455 79.4718 283.075 86.031L285.708 113.889L288.617 113.614L299.165 112.786L299.167 112.809L300.612 112.673L334.762 109.991L336.391 109.869L334.134 86.0158C333.514 79.4567 327.694 74.6423 321.135 75.2623C320.54 75.3185 319.96 75.4175 319.396 75.556C317.827 70.1711 312.613 66.4828 306.822 67.0301Z" fill="black"/>
<path d="M397.934 232.094L383.612 167.645C381.474 158.027 372.673 151.381 362.837 151.957L315.815 154.715C308.267 155.157 300.711 154.018 293.629 151.371L256.009 137.31C255.728 137.205 255.445 137.106 255.163 137.013C246.093 132.438 234.781 133.431 226.555 140.423L169.106 189.254C159.992 197 157.327 209.959 162.644 220.673C165.133 225.688 169.071 229.607 173.754 232.094L397.934 232.094Z" fill="#2C2249"/>
<path d="M287.838 193.294L319.282 177.223C316.619 169.658 308.745 168.21 304.535 168.088C300.325 167.966 292.592 168.454 285.393 172.615L283.277 172.589L287.838 193.294Z" fill="#8A6B59"/>
<path d="M410.953 142.986L360.26 139.236L332.058 198.394L426.836 198.394L410.953 142.986Z" fill="black"/>
<circle r="11.9555" transform="matrix(-0.56626 -0.824227 -0.824227 0.56626 389.179 106.822)" fill="black"/>
<path d="M358.995 154.922C361.277 164.841 369.17 172.997 379.801 175.102C392.821 177.68 405.502 170.299 409.964 158.237C412.109 157.978 414.135 156.831 415.45 154.908C417.871 151.366 416.962 146.533 413.42 144.112C412.648 143.585 411.814 143.215 410.958 142.997C408.676 133.078 400.783 124.921 390.152 122.816C377.131 120.238 364.448 127.621 359.987 139.686C357.847 139.948 355.826 141.094 354.514 143.014C352.094 146.555 353.003 151.388 356.544 153.809C357.313 154.334 358.142 154.703 358.995 154.922Z" fill="#FFA785"/>
<path d="M367.411 128.908C364.779 131.215 362.627 134.017 361.078 137.156C360.671 137.982 360.307 138.826 359.989 139.687L385.471 141.338L410.953 142.989C410.752 142.112 410.506 141.244 410.216 140.388C409.092 137.074 407.326 134.014 405.019 131.382C402.712 128.75 399.909 126.598 396.771 125.05C393.632 123.501 390.219 122.586 386.727 122.356C383.235 122.126 379.732 122.587 376.417 123.711C373.103 124.835 370.042 126.601 367.411 128.908Z" fill="black"/>
<path d="M521.947 232.094H253.914C253.84 231.83 253.771 231.564 253.705 231.296C250.575 218.546 256.764 205.34 268.566 199.589L316.697 176.134C316.85 176.06 317.003 175.987 317.156 175.916C322.059 173.172 327.885 172.109 333.71 173.201L376.394 181.196C383.745 182.573 391.319 182.168 398.481 180.014L439.305 167.738C446.347 165.62 453.361 166.519 459.211 169.519C459.953 169.805 460.689 170.125 461.417 170.48L509.548 193.935C521.35 199.686 527.539 212.892 524.409 225.641C523.848 227.928 523.014 230.09 521.947 232.094Z" fill="white"/>
<rect x="448.529" y="28" width="25.9632" height="58.9954" rx="12.9816" transform="rotate(9.7637 448.529 28)" fill="black"/>
</g>
<defs>
<clipPath id="clip0_11572_66517">
<rect width="752" height="232" fill="white"/>
</clipPath>
</defs>
</svg>
