<svg xmlns="http://www.w3.org/2000/svg" fill="none" viewBox="0 0 58 58"><circle cx="29" cy="29" r="29" fill="#151922" opacity=".2"/><path fill="#fff" d="M29.707 16.703a1 1 0 00-1.414 0l-3.828 3.829a.999.999 0 101.414 1.414L28 19.824v10.172a1 1 0 002 0V19.824l2.121 2.122c.39.39 1.024.39 1.415 0 .39-.39.39-1.024 0-1.415l-3.829-3.828z"/><path fill="#fff" d="M23.994 24.013a.984.984 0 011.006.99c0 .55-.445.994-.994 1.01-.452.014-.833.04-1.165.084-.706.095-1.033.262-1.255.485-.223.222-.39.55-.485 1.255-.099.735-.101 1.716-.101 3.159v2c0 1.442.002 2.424.1 3.158.096.707.263 1.034.486 1.256.222.223.55.39 1.255.485.735.099 1.716.1 3.159.1h6c1.443 0 2.424-.001 3.159-.1.706-.095 1.033-.262 1.255-.485.223-.222.39-.55.485-1.255.099-.735.101-1.717.101-3.16v-2c0-1.442-.002-2.423-.1-3.158-.096-.706-.263-1.033-.486-1.255-.222-.223-.55-.39-1.255-.485a11.44 11.44 0 00-1.164-.084 1.018 1.018 0 01-.995-1.01.984.984 0 011.006-.99c.526.015.999.045 1.42.102.927.124 1.746.396 2.402 1.053.656.656.928 1.475 1.053 2.403.12.884.119 2 .119 3.354v2.141c0 1.355 0 2.471-.119 3.355-.124.928-.397 1.747-1.053 2.403-.656.657-1.475.928-2.403 1.053-.884.119-2 .119-3.354.119h-6.142c-1.354 0-2.47 0-3.354-.119-.928-.125-1.747-.397-2.403-1.053-.657-.656-.928-1.475-1.053-2.403-.12-.884-.119-2-.119-3.354v-2.142c0-1.354 0-2.47.119-3.354.125-.928.396-1.747 1.053-2.404.656-.656 1.475-.928 2.403-1.052.42-.057.893-.086 1.42-.102z"/></svg>