<svg viewBox="0 0 6 6" fill="none" xmlns="http://www.w3.org/2000/svg">
<path fill-rule="evenodd" clip-rule="evenodd" d="M5.85355 0.853553C6.04882 0.658291 6.04882 0.341709 5.85355 0.146447C5.65829 -0.0488156 5.34171 -0.0488156 5.14645 0.146447L0.146447 5.14645C-0.0488156 5.34171 -0.0488156 5.65829 0.146447 5.85355C0.341709 6.04882 0.658291 6.04882 0.853553 5.85355L5.85355 0.853553ZM5.85355 3.85355C6.04882 3.65829 6.04882 3.34171 5.85355 3.14645C5.65829 2.95118 5.34171 2.95118 5.14645 3.14645L3.14645 5.14645C2.95118 5.34171 2.95118 5.65829 3.14645 5.85355C3.34171 6.04882 3.65829 6.04882 3.85355 5.85355L5.85355 3.85355Z" fill="#8A8C91"/>
</svg>
