<svg width="7" height="13" viewBox="0 0 7 13" fill="none" xmlns="http://www.w3.org/2000/svg">
  <path d="M0.813477 12.127C1.03906 12.127 1.22363 12.0449 1.38086 11.8945L6.69922 6.69922C6.88379 6.50781 6.97949 6.30957 6.97949 6.06348C6.97949 5.82422 6.89062 5.6123 6.69922 5.43457L1.38086 0.232422C1.22363 0.0820312 1.03906 0 0.813477 0C0.355469 0 0 0.355469 0 0.806641C0 1.02539 0.0957031 1.2373 0.246094 1.39453L5.03809 6.07031L0.246094 10.7324C0.0888672 10.8965 0 11.0947 0 11.3203C0 11.7715 0.355469 12.127 0.813477 12.127Z" fill="white"/>
</svg>
