<svg xmlns="http://www.w3.org/2000/svg" fill="none" viewBox="0 0 34 34">
    <path fill="#F0F2F5" fill-rule="evenodd" d="M17 34c9.389 0 17-7.611 17-17S26.389 0 17 0 0 7.611 0 17s7.611 17 17 17z" clip-rule="evenodd"/>
    <path fill="#44474E" d="M16.162 23.172c0 .435.378.833.838.828.455 0 .838-.393.838-.828l-.005-5.334h5.34c.444 0 .827-.383.827-.838-.01-.455-.383-.838-.833-.833l-5.334-.005v-5.33c.005-.45-.378-.832-.833-.832-.455.01-.838.383-.838.827v5.34l-5.334-.005c-.435 0-.838.383-.828.838 0 .455.393.838.828.838l5.334-.005v5.34z"/>
</svg>
