<svg xmlns="http://www.w3.org/2000/svg" width="34" height="34" fill="none"><circle cx="17" cy="17" r="17" fill="#98B1BC"/><path fill="#fff" d="M4.496 28.517c2.16-3.162 6.558-5.98 12.496-5.98 5.949 0 10.35 2.819 12.512 5.98A16.956 16.956 0 0117 34a16.953 16.953 0 01-12.504-5.483zm19.167-16.342c0 4.17-3.095 7.374-6.655 7.374-3.577 0-6.655-3.203-6.655-7.341C10.353 8.12 13.448 5 17.008 5s6.655 3.053 6.655 7.175z" opacity=".3"/><path fill="#fff" d="M16.162 23.172c0 .435.378.833.838.828a.853.853 0 00.838-.828l-.005-5.334h5.34A.846.846 0 0024 17c-.01-.455-.383-.838-.833-.833l-5.334-.005v-5.33A.839.839 0 0017 10c-.455.01-.838.383-.838.827v5.34l-5.334-.005c-.435 0-.838.383-.828.838 0 .455.393.838.828.838l5.334-.005v5.34z"/></svg>