<svg xmlns="http://www.w3.org/2000/svg" width="34" height="35" fill="none"><circle cx="17" cy="17.5" r="13.964" fill="url(#paint0_linear)"/><path fill="#48D982" d="M17 25.995A8.495 8.495 0 018.505 17.5 8.495 8.495 0 0117 9.005a8.495 8.495 0 018.495 8.495A8.495 8.495 0 0117 25.995zm0 1.978c5.784 0 10.473-4.689 10.473-10.473 0-5.784-4.689-10.473-10.473-10.473-5.784 0-10.473 4.689-10.473 10.473 0 5.784 4.689 10.473 10.473 10.473z"/><path fill="#48D982" fill-rule="evenodd" d="M17 21.224a3.724 3.724 0 100-7.447 3.724 3.724 0 000 7.447zm0 2.095a5.818 5.818 0 100-11.637 5.818 5.818 0 000 11.637z" clip-rule="evenodd"/><rect width="2.327" height="13.267" x="24.723" y="8.031" fill="#48D982" rx="1.164" transform="rotate(45 24.723 8.031)"/><defs><linearGradient id="paint0_linear" x1="17" x2="17" y1="3.536" y2="31.464" gradientUnits="userSpaceOnUse"><stop stop-color="#2D6568"/><stop offset="1" stop-color="#333E67"/></linearGradient></defs></svg>