<svg xmlns="http://www.w3.org/2000/svg" width="34" height="35" fill="none"><path fill="url(#paint0_linear)" d="M17.007 30.802c.514 0 1.293-.485 2.03-.999 7.145-4.838 11.927-10.66 11.927-16.47 0-5.536-3.781-9.19-8.16-9.19-2.739 0-4.671 1.541-5.797 3.74-1.14-2.184-3.072-3.74-5.811-3.74-4.379 0-8.16 3.654-8.16 9.19 0 5.81 4.782 11.632 11.927 16.47.751.514 1.516 1 2.044 1z"/><path fill="#151515" d="M8.196 19.382h3.148c.74 0 1.255-.343 1.416-.97l.848-3.61 2.135 11.877c.225 1.265 2.328 1.265 2.596.01l1.953-8.533.032.157c.15.697.643 1.07 1.427 1.07h4.053c.751 0 1.352-.53 1.352-1.207 0-.706-.59-1.226-1.352-1.226h-3.238l-1.04-3.046c-.301-1.206-2.286-1.186-2.576.04l-1.866 6.39L14.938 9.53c-.215-1.245-2.2-1.265-2.5-.02L10.4 16.95H8.196c-.751 0-1.352.54-1.352 1.226 0 .677.601 1.206 1.352 1.206z"/><defs><linearGradient id="paint0_linear" x1="17" x2="17" y1="4.143" y2="30.802" gradientUnits="userSpaceOnUse"><stop stop-color="#FF8F6E"/><stop offset="1" stop-color="#EA5176"/></linearGradient></defs></svg>