<svg xmlns="http://www.w3.org/2000/svg" width="34" height="35" fill="none"><path fill="url(#paint0_linear)" d="M5.804 17.5c0-6.157 5.05-11.2 11.217-11.2 3.498 0 6.624 1.57 8.651 4.07l-2.976-.23a1.384 1.384 0 00-.213 2.757l4.754.366a2.538 2.538 0 002.684-2.028l1.016-5.023a1.384 1.384 0 00-2.714-.549l-.56 2.773c-2.549-3.027-6.39-4.9-10.642-4.9-7.695 0-13.985 6.28-13.985 13.964s6.29 13.965 13.985 13.965c7.228 0 13.216-5.542 13.916-12.583.076-.76-.55-1.382-1.315-1.382-.765 0-1.375.623-1.47 1.381-.688 5.513-5.433 9.82-11.131 9.82-6.166 0-11.217-5.044-11.217-11.2z"/><path fill="url(#paint1_linear)" d="M14.518 18.986a.644.644 0 00-.323-1.025l-2.273-.645c-.705-.2-1.1-.95-.868-1.646l.031-.093a1.286 1.286 0 011.72-.777l2.168.915a.643.643 0 00.892-.636l-.178-2.589a1.286 1.286 0 011.283-1.375h.201c.746 0 1.336.633 1.283 1.377l-.189 2.682a.644.644 0 00.894.638l2.034-.865a1.287 1.287 0 011.725.78l.037.113a1.288 1.288 0 01-.874 1.643l-2.33.653a.643.643 0 00-.327 1.022l1.559 1.94c.465.58.344 1.433-.264 1.86l-.142.099c-.61.428-1.454.25-1.84-.387l-1.278-2.114a.644.644 0 00-1.095-.01l-1.283 2.038a1.286 1.286 0 01-1.806.382l-.122-.081a1.287 1.287 0 01-.28-1.881l1.645-2.018z"/><defs><linearGradient id="paint0_linear" x1="17" x2="17" y1="3.536" y2="31.465" gradientUnits="userSpaceOnUse"><stop stop-color="#5CB8D5"/><stop offset="1" stop-color="#7F63D0"/></linearGradient><linearGradient id="paint1_linear" x1="17" x2="17" y1="3.536" y2="31.465" gradientUnits="userSpaceOnUse"><stop stop-color="#5CB8D5"/><stop offset="1" stop-color="#7F63D0"/></linearGradient></defs></svg>