<svg xmlns="http://www.w3.org/2000/svg" width="16" height="16" fill="none"><path fill="#F86E80" d="M3.972 13h9.056c.895 0 1.472-.66 1.472-1.47 0-.24-.058-.488-.19-.717L9.773 2.74A1.443 1.443 0 008.503 2c-.497 0-1.004.247-1.276.74l-4.53 8.078a1.385 1.385 0 00-.197.712c0 .81.577 1.47 1.472 1.47zm4.53-3.973c-.34 0-.53-.19-.542-.534l-.086-2.635c-.012-.35.248-.603.623-.603.37 0 .64.259.63.609L9.04 8.487c-.018.35-.208.54-.537.54zm0 2.153c-.386 0-.703-.27-.703-.654 0-.385.317-.655.704-.655.387 0 .704.264.704.655 0 .39-.323.654-.704.654z"/></svg>