<svg width="16" height="16" fill="none" xmlns="http://www.w3.org/2000/svg"><path fill-rule="evenodd" clip-rule="evenodd" d="M8 14A6 6 0 108 2a6 6 0 000 12zm-2.778-3.224c-.3-.3-.287-.821-.014-1.094l1.685-1.681-1.685-1.685c-.273-.273-.287-.794.014-1.091.3-.3.822-.287 1.095-.014l1.681 1.681 1.679-1.677a.788.788 0 011.095.013c.3.297.303.805.013 1.095L9.107 8l1.678 1.678c.29.29.287.794-.013 1.094-.297.297-.805.304-1.095.014L7.998 9.105 6.317 10.79c-.273.273-.795.287-1.095-.014z" fill="#F64F64"/></svg>