<svg xmlns="http://www.w3.org/2000/svg" width="16" height="16" fill="none"><path fill="#FF7E23" d="M8.504 16c.146 0 .355-.064.555-.167C13.503 13.513 15 12.24 15 9.395V3.553c0-1.025-.355-1.43-1.211-1.804-.803-.342-3.58-1.336-4.344-1.59A3.258 3.258 0 008.504 0c-.301 0-.648.072-.941.159-.772.246-3.55 1.256-4.344 1.59C2.355 2.114 2 2.528 2 3.553v5.842c0 2.845 1.55 4.022 5.948 6.438.201.111.41.167.556.167zm0-7.034c-.494 0-.772-.278-.795-.787l-.116-3.434c-.023-.524.363-.906.903-.906s.926.382.903.914l-.116 3.418c-.023.524-.3.795-.78.795zm0 3.02c-.571 0-.995-.373-.995-.938 0-.564.424-.938.995-.938.563 0 .995.374.995.938 0 .565-.432.938-.995.938z"/></svg>