<svg xmlns="http://www.w3.org/2000/svg" width="16" height="16" fill="none"><path fill="#B9BABD" d="M7.996 16C12.381 16 16 12.38 16 8.004 16 3.619 12.373 0 7.988 0 3.611 0 0 3.62 0 8.004 0 12.38 3.62 16 7.996 16zm-.155-6.395c-.502 0-.78-.232-.78-.696v-.093c0-.727.417-1.145.997-1.54.688-.479 1.02-.75 1.02-1.252 0-.533-.41-.897-1.059-.897-.471 0-.835.232-1.075.634-.247.279-.355.518-.835.518-.371 0-.68-.24-.68-.634 0-.147.03-.286.077-.425.232-.766 1.199-1.392 2.59-1.392 1.447 0 2.66.773 2.66 2.119 0 .936-.51 1.4-1.314 1.933-.518.348-.82.619-.843 1.036 0 .031 0 .062-.007.093-.031.333-.302.596-.75.596zm.031 2.397c-.51 0-.943-.364-.943-.882s.425-.881.943-.881c.519 0 .944.355.944.881s-.425.882-.944.882z"/></svg>