<svg xmlns="http://www.w3.org/2000/svg" width="16" height="16"><path fill="#8A8C91" d="M13.194 11.248l.323-7.273h1.084a.576.576 0 00.577-.577.577.577 0 00-.577-.584h-3.29V1.761C11.31.692 10.587 0 9.426 0H6.75C5.59 0 4.866.692 4.866 1.76v.94H4.63l3.006 3.006v-.361a.483.483 0 01.454-.346c.269 0 .507.246.507.538v1.13l1.761 1.768.115-2.898c.008-.292.223-.538.492-.538.277 0 .5.238.485.545l-.146 3.83 1.891 1.875zm1.815 3.883a.57.57 0 000-.8L1.969 1.285a.572.572 0 00-.808 0 .577.577 0 000 .8L14.21 15.13a.562.562 0 00.8 0zM10.088 2.814h-3.99V1.83c0-.408.3-.7.738-.7H9.35c.438 0 .738.292.738.7v.984zM11.518 16c.684 0 1.176-.292 1.376-.8l.008-.13-1.738-1.73-.023.4c-.007.307-.207.522-.476.522-.285 0-.485-.246-.477-.553l.046-1.3-1.638-1.637v2.875c0 .3-.238.546-.507.546-.27 0-.5-.246-.5-.546V9.765l-1.799-1.8.215 5.675c.008.307-.2.553-.484.553-.27 0-.461-.223-.477-.546l-.261-6.689-2.076-2.076.43 9.673c.039.938.592 1.445 1.53 1.445h6.851z"/></svg>