<svg width="16" height="16" xmlns="http://www.w3.org/2000/svg"><path stroke="null" d="M7.999 15.87c.159 0 .384-.063.602-.164 4.817-2.281 6.44-3.531 6.441-6.33l.004-5.746c0-1.009-.384-1.408-1.312-1.776C12.865 1.517 9.855.538 9.028.287a3.88 3.88 0 00-1.02-.156c-.326 0-.703.07-1.02.155C6.15.53 3.14 1.52 2.278 1.847c-.936.36-1.32.766-1.321 1.774L.954 9.368c-.002 2.799 1.678 3.957 6.443 6.337.217.11.443.164.602.164zm-.8-4.184c-.318 0-.577-.133-.82-.407L4.115 8.713a.805.805 0 01-.234-.555c0-.422.36-.75.795-.75.26 0 .476.101.677.336l1.821 2.128 3.515-5.244c.193-.282.435-.414.711-.414.418 0 .82.282.82.696-.001.18-.093.376-.21.548l-4.025 5.814a.931.931 0 01-.786.414z" fill="#06c000"/></svg>