<svg xmlns="http://www.w3.org/2000/svg" width="16" height="16" fill="none"><g clip-path="url(#clip0)"><path fill="#F64F64" d="M8.504 16c.146 0 .355-.064.555-.167C13.503 13.513 15 12.24 15 9.395V3.553c0-1.025-.355-1.43-1.211-1.804-.803-.342-3.58-1.336-4.344-1.59A3.258 3.258 0 008.504 0c-.301 0-.648.072-.941.159-.772.246-3.55 1.256-4.344 1.59C2.355 2.114 2 2.528 2 3.553v5.842c0 2.845 1.55 4.022 5.948 6.438.201.111.41.167.556.167zm-2.608-4.61c-.455 0-.81-.366-.81-.835a.81.81 0 01.247-.572l2.029-2.09-2.03-2.099a.809.809 0 01-.246-.572c0-.469.355-.827.81-.827.232 0 .424.08.571.239l2.03 2.082 2.044-2.082a.72.72 0 01.57-.247c.456 0 .803.358.803.827a.765.765 0 01-.24.572L9.647 7.893l2.029 2.082c.146.16.239.358.239.58 0 .47-.355.835-.81.835a.76.76 0 01-.579-.246l-2.03-2.075-2.014 2.075a.769.769 0 01-.586.246z"/></g><defs><clipPath id="clip0"><path fill="#fff" d="M0 0h16v16H0z"/></clipPath></defs></svg>