<svg viewBox="0 0 80 80" fill="none" xmlns="http://www.w3.org/2000/svg"><g clip-path="url(#clip0)"><path fill-rule="evenodd" clip-rule="evenodd" d="M12.402 68.955C4.762 61.67 0 51.39 0 40 0 17.909 17.909 0 40 0s40 17.909 40 40c0 5.908-1.28 11.516-3.58 16.563a11.591 11.591 0 00-9.092-1.203l-2.116.595a74.32 74.32 0 01-8.502 1.861l-3.517-4.367-14.776 4.979c-.42-.038-.84-.08-1.26-.125L25.93 49.25l-7.187 4.649a74.306 74.306 0 01-6.811-2.982 14.314 14.314 0 00-10.66-.875 39.968 39.968 0 0011.13 18.913zM40 80c16.184 0 30.123-9.611 36.42-23.437C70.123 70.39 56.184 80 40 80z" fill="#4AA16F"/><circle r="15.179" transform="scale(-1 1) rotate(-18.524 96.807 145.653)" fill="#FFA785"/><circle r="4.424" transform="scale(-1 1) rotate(-41.676 26.406 92.368)" fill="#FFA785"/><circle r="4.424" transform="scale(-1 1) rotate(-41.676 32.97 54.33)" fill="#FFA785"/><path d="M32.79 25.7a15.18 15.18 0 00-4.976 5.55l14.276 2.784 14.276 2.783a15.156 15.156 0 00-2.51-6.988 15.18 15.18 0 00-21.066-4.13z" fill="#000"/><path d="M52.701 16.876a6.842 6.842 0 10-13.388-2.832L35.404 32.52l13.389 2.833L52.7 16.876z" fill="#000"/><path d="M59.713 21.145a6.842 6.842 0 00-13.388-2.832l-3.322 15.703 13.388 2.832 3.322-15.703zm-15.705-.513A6.842 6.842 0 0030.619 17.8l-2.845 13.445 13.444 2.574 2.79-13.186z" fill="#000"/><path d="M54.353 39.4l-25.29-5.058a6.938 6.938 0 018.164-5.442l11.684 2.336a6.938 6.938 0 015.442 8.164z" fill="#FFA785"/><path d="M1.271 50.041C5.726 67.272 21.377 80 40.001 80c16.183 0 30.122-9.612 36.42-23.438a11.592 11.592 0 00-9.093-1.203l-2.116.595a74.32 74.32 0 01-8.502 1.861l-3.517-4.367-14.776 4.979c-.42-.038-.84-.08-1.26-.125L25.93 49.25l-7.187 4.649a74.334 74.334 0 01-6.811-2.982 14.314 14.314 0 00-10.66-.875z" fill="#fff"/><path d="M4.507 26.133h17.119c2.985 0 4.507-1.507 4.507-4.462V4.448c0-2.94-1.522-4.448-4.507-4.448H4.507C1.522 0 0 1.492 0 4.448V21.67c0 2.955 1.522 4.462 4.507 4.462z" fill="#000"/><path d="M13.072 22.011c4.89 0 8.939-4.052 8.939-8.944 0-4.892-4.06-8.944-8.949-8.944s-8.939 4.052-8.939 8.944c0 4.892 4.06 8.944 8.949 8.944zm-.028-4.901c-.489 0-.775-.35-.775-.877V13.86H9.751c-.526 0-.895-.286-.895-.785 0-.507.35-.803.895-.803h2.518v-2.52c0-.526.286-.886.775-.886.507 0 .803.342.803.886v2.52h2.527c.545 0 .886.296.886.803 0 .499-.36.785-.886.785h-2.527v2.372c0 .544-.296.877-.803.877z" fill="#fff"/></g><defs><clipPath id="clip0"><path fill="#fff" d="M0 0h80v80H0z"/></clipPath></defs></svg>