<svg width="80" height="80" fill="none" xmlns="http://www.w3.org/2000/svg"><circle r="40" transform="matrix(-1 0 0 1 40 40)" fill="#FFAA6E"/><path d="M2.45 53.814C8.073 69.098 22.763 80 40 80c13.972 0 26.27-7.164 33.424-18.018a15.927 15.927 0 0 0-8.917-.435c-.167.023-.334.05-.502.08l-1.904.343a80.33 80.33 0 0 1-10.295 1.175l-1.073-1.78a5 5 0 0 0-3.555-2.366l-17.294-2.544a5 5 0 0 0-4.38 1.532l-1.519 1.625a80.327 80.327 0 0 1-10.34-4.02 16.18 16.18 0 0 0-1.265-.532c-3.408-1.551-6.866-2.179-9.93-1.246Z" fill="#fff"/><path d="M4.507 26.133h17.119c2.985 0 4.507-1.507 4.507-4.462V4.448c0-2.94-1.522-4.448-4.507-4.448H4.507C1.522 0 0 1.492 0 4.448V21.67c0 2.955 1.522 4.462 4.507 4.462Z" fill="#000"/><path d="M10.036 21.66h6.068c1.332 0 2.215-.858 2.215-2.13V6.603c0-1.281-.883-2.13-2.215-2.13h-6.068c-1.332 0-2.223.849-2.223 2.13V19.53c0 1.273.89 2.13 2.223 2.13Z" fill="#fff"/><path d="M48.511 24.928a6.438 6.438 0 0 0-11.945-1.134l-.23-.036a7 7 0 0 0-8.019 5.804l-1.112 6.942 2.942.47-.151.94 25.765 4.128 1.062-6.625a6 6 0 0 0-2.437-5.832 4.957 4.957 0 0 0-5.875-4.657Z" fill="#000"/><path d="M23.872 35.494a4.42 4.42 0 0 1 3.766-1.67c3.012-6.681 10.512-10.375 17.81-8.394 5.966 1.62 10.13 6.579 11.026 12.316a4.424 4.424 0 0 1-1.229 8.718c-3.049 6.6-10.5 10.233-17.751 8.264-5.907-1.604-10.048-6.482-10.998-12.146a4.424 4.424 0 0 1-2.624-7.088Z" fill="#8A6B59"/><path d="M28.22 31.944c1.004-1.722 2.101-3.363 3.688-4.57 1.4-1.064 3.274-1.543 5.02-1.99l.691-.178c.531-.14 1.086-.324 1.653-.513 1.491-.496 3.065-1.019 4.497-.824 1.67.227 3.58 1.375 5.171 2.332.29.174.57.342.836.497 1.722 1.005 3.13 2.407 4.335 3.993 1.207 1.587 1.847 3.376 2.355 5.304.13.498.072 1.048 0 1.723l-2.373-.321a4.865 4.865 0 0 0-3.651-2.535l-15.907-2.13a4.864 4.864 0 0 0-4.164 1.458l-2.732-.37c.113-.635.317-1.423.58-1.876Z" fill="#000"/></svg>