<svg xmlns="http://www.w3.org/2000/svg" fill="none" viewBox="0 0 80 80"><circle cx="40" cy="40" r="32.857" fill="url(#paint0_linear)"/><path fill="#48D982" d="M40 59.988c-11.04 0-19.988-8.949-19.988-19.988S28.96 20.012 40 20.012 59.988 28.962 59.988 40c0 11.04-8.95 19.988-19.988 19.988zm0 4.655c13.61 0 24.643-11.033 24.643-24.643 0-13.61-11.033-24.643-24.643-24.643-13.61 0-24.643 11.033-24.643 24.643 0 13.61 11.033 24.643 24.643 24.643z"/><path fill="#48D982" fill-rule="evenodd" d="M40 48.762c4.839 0 8.761-3.923 8.761-8.762S44.84 31.238 40 31.238A8.762 8.762 0 0031.238 40 8.76 8.76 0 0040 48.762zm0 4.928c7.56 0 13.69-6.129 13.69-13.69S47.56 26.31 40 26.31c-7.562 0-13.69 6.129-13.69 13.69S32.437 53.69 40 53.69z" clip-rule="evenodd"/><rect width="5.476" height="31.217" x="58.172" y="17.721" fill="#48D982" rx="2.738" transform="rotate(45 58.172 17.72)"/><defs><linearGradient id="paint0_linear" x1="40" x2="40" y1="7.143" y2="72.857" gradientUnits="userSpaceOnUse"><stop stop-color="#2D6568"/><stop offset="1" stop-color="#333E67"/></linearGradient></defs></svg>