<svg viewBox="0 0 80 80" fill="none" xmlns="http://www.w3.org/2000/svg"><path d="M2.03 52.613C7.311 68.524 22.315 80 40 80c16.189 0 30.131-9.617 36.426-23.45l-3.297-2.587a14 14 0 00-10.847-2.813l-20.917 3.333c-1.675.267-3.39.143-5.009-.363l-18.34-5.725a15 15 0 00-13.509 2.347L2.03 52.613z" fill="#fff"/><path fill-rule="evenodd" clip-rule="evenodd" d="M2.03 52.613A39.96 39.96 0 010 40C0 17.909 17.909 0 40 0s40 17.909 40 40a39.822 39.822 0 01-3.574 16.55l-3.297-2.587a14 14 0 00-10.847-2.813l-20.917 3.333c-1.675.267-3.39.143-5.009-.363l-18.34-5.725a15 15 0 00-13.509 2.347L2.03 52.613z" fill="#AEB8FE"/><circle r="15.179" transform="scale(-1 1) rotate(-14.728 113.672 170.48)" fill="#8A6B59"/><circle r="4.424" transform="scale(-1 1) rotate(-37.88 26.182 95.675)" fill="#8A6B59"/><circle r="4.424" transform="scale(-1 1) rotate(-37.88 34.754 54.249)" fill="#8A6B59"/><path d="M30.323 22.486a15.18 15.18 0 00-4.597 5.868l14.429 1.832 14.428 1.833a15.18 15.18 0 00-24.26-9.532zm19.972-11.098a7.425 7.425 0 00-6.391-8.33 7.425 7.425 0 00-8.333 6.388 7.426 7.426 0 006.39 8.33 7.425 7.425 0 008.334-6.388zm-28.67 14.745H4.508C1.522 26.133 0 24.626 0 21.671V4.448C0 1.508 1.522 0 4.507 0h17.118c2.985 0 4.508 1.492 4.508 4.448V21.67c0 2.955-1.523 4.462-4.508 4.462z" fill="#000"/><path d="M13.056 12.828c-1.952 0-3.627-1.752-3.627-4.01 0-2.23 1.685-3.905 3.627-3.905 1.953 0 3.637 1.713 3.637 3.924-.01 2.24-1.675 3.99-3.637 3.99zm5.676 8.393H7.39c-1.445 0-1.953-.421-1.953-1.225 0-2.335 2.929-5.551 7.628-5.551 4.69 0 7.627 3.216 7.627 5.55 0 .805-.507 1.226-1.962 1.226z" fill="#fff"/></svg>
