<svg viewBox="0 0 81 81" fill="none" xmlns="http://www.w3.org/2000/svg"><path d="M2.156 51.89A40.006 40.006 0 01.5 40.464c0-22.091 17.909-40 40-40s40 17.909 40 40a39.84 39.84 0 01-3.953 17.359l-1.793-1.554a14 14 0 00-11.67-3.198L42.32 56.837a11 11 0 01-6.644-.87l-15.634-7.351A15 15 0 005.215 49.79l-3.063 2.086.004.013z" fill="#F6D1C9"/><path d="M63.622 59.471L57.22 33.077l-28.745-2.435-10.739 25.13 45.886 3.7z" fill="#000"/><path d="M2.152 51.877C7.065 68.407 22.375 80.464 40.5 80.464c15.872 0 29.584-9.244 36.047-22.64l-1.793-1.555a14 14 0 00-11.67-3.198L42.32 56.837a11 11 0 01-6.644-.87l-15.634-7.351A15 15 0 005.215 49.79l-3.063 2.086z" fill="#fff"/><circle r="15.179" transform="scale(-1 1) rotate(-12.764 140.842 207.95)" fill="#8A6B59"/><circle r="4.424" transform="scale(-1 1) rotate(-35.916 29.817 105.359)" fill="#8A6B59"/><circle r="4.424" transform="scale(-1 1) rotate(-35.916 39.587 61.911)" fill="#8A6B59"/><path d="M32.772 24.566a15.178 15.178 0 00-4.393 6.022l14.482 1.336 14.483 1.337a15.171 15.171 0 00-3.198-6.701 15.18 15.18 0 00-21.374-1.994zM5.007 27.315h17.119c2.985 0 4.507-1.508 4.507-4.463V5.63c0-2.94-1.522-4.447-4.507-4.447H5.007C2.022 1.182.5 2.674.5 5.629v17.223c0 2.956 1.522 4.463 4.507 4.463z" fill="#000"/><rect width="20.954" height="6.519" rx="3.26" transform="matrix(1 0 0 -1 3.09 16.79)" fill="#fff"/><circle r="1.297" transform="matrix(1 0 0 -1 11.735 13.53)" fill="#000"/><circle r="1.297" transform="matrix(1 0 0 -1 8.069 13.53)" fill="#000"/><circle r="1.297" transform="matrix(1 0 0 -1 15.4 13.53)" fill="#000"/><circle r="1.297" transform="matrix(1 0 0 -1 19.067 13.53)" fill="#000"/></svg>