<svg viewBox="0 0 81 80" fill="none" xmlns="http://www.w3.org/2000/svg"><path d="M.002 40.004c0 3.122.36 6.16 1.035 9.077 4.363-2.663 10.057-3.101 15.082-.266 1.569.884 3.16 1.71 4.777 2.479l5.9-4.09 11.72 9.977a80.95 80.95 0 001.7.327l14.548-4.52 3.082 5.643a76.63 76.63 0 005.271-.454l2.233-.27a12.147 12.147 0 019.03 2.557 39.816 39.816 0 005.622-20.46c0-22.091-17.908-40-40-40s-40 17.909-40 40z" fill="#3366E8"/><circle r="15.179" transform="scale(-1 1) rotate(-22.874 69.685 126.958)" fill="#FFA785"/><path d="M36.383 23.862A15.18 15.18 0 0031 29.02l14.023 3.858 14.024 3.859a15.182 15.182 0 00-17.042-14.734 15.179 15.179 0 00-5.623 1.86z" fill="#000"/><path d="M55.096 22.763a6.842 6.842 0 00-13.135-3.84l-3.49 11.938 13.135 3.84 3.49-11.938z" fill="#000"/><path d="M62.548 33.415a6.842 6.842 0 00-4.649-8.485 6.842 6.842 0 00-8.486 4.646 6.842 6.842 0 004.648 8.485 6.842 6.842 0 008.487-4.646zm-19.299-5.057a6.842 6.842 0 00-13.135-3.84 6.842 6.842 0 004.648 8.485 6.842 6.842 0 008.487-4.645z" fill="#000"/><path d="M61.53 28.349a6.842 6.842 0 00-13.136-3.84l-2.46 8.42 13.135 3.839 2.46-8.42zm-14.99-3.857a6.843 6.843 0 00-13.136-3.84L30.96 29.01l13.192 3.648 2.387-8.166z" fill="#000"/><circle r="4.424" transform="scale(-1 1) rotate(-46.026 19.378 87.585)" fill="#FFA785"/><circle r="4.424" transform="scale(-1 1) rotate(-46.026 24.034 52.772)" fill="#FFA785"/><path d="M56.844 39.158l-4.406 4.008-19.95-4.529-.477-6.44a6.938 6.938 0 018.553-4.808l11.473 3.216a6.938 6.938 0 014.807 8.553z" fill="#FFA785"/><path d="M1.035 49.077C5.146 66.796 21.032 80 40.001 80c14.614 0 27.398-7.838 34.378-19.539a12.147 12.147 0 00-9.032-2.557l-2.231.27a76.843 76.843 0 01-5.272.454l-3.083-5.644-14.546 4.52a76.628 76.628 0 01-1.7-.327l-11.72-9.976-5.9 4.09a76.84 76.84 0 01-4.778-2.48c-5.025-2.834-10.718-2.396-15.082.266z" fill="#fff"/><path d="M4.839 26.133h18.37c3.203 0 4.836-1.507 4.836-4.462V4.448c0-2.94-1.633-4.448-4.837-4.448H4.838C1.637 0 .003 1.492.003 4.448V21.67c0 2.955 1.634 4.462 4.837 4.462z" fill="#000"/><path d="M23.152 13.097a4.728 4.728 0 00-4.738-4.747c-1.98 0-3.718 1.177-4.427 3.016H6.754a.666.666 0 00-.506.21l-1.24 1.248c-.132.132-.171.405 0 .576l2.33 2.33c.18.18.43.172.6 0l1.396-1.41 1.948 1.949c.164.163.406.163.585-.016l1.933-1.917c.92 2.252 2.603 3.515 4.614 3.515a4.74 4.74 0 004.738-4.754zm-4.497 0a1.3 1.3 0 011.31-1.302c.724 0 1.301.577 1.301 1.302a1.306 1.306 0 11-2.61 0z" fill="#fff"/></svg>