<svg viewBox="0 0 80 80" fill="none" xmlns="http://www.w3.org/2000/svg"><path d="M1.343 50.277h-.01A40.06 40.06 0 010 40C0 17.909 17.909 0 40 0s40 17.909 40 40a39.813 39.813 0 01-5.686 20.568l-1.812-1.73a14 14 0 00-11.505-3.752l-20.92 2.77a11 11 0 01-6.595-1.186l-15.265-8.09a15 15 0 00-14.866.465l-2.008 1.232z" fill="#FDCB6C"/><path d="M61.23 61.505l-5.133-26.67L27.5 31.03 15.574 55.617l45.657 5.888z" fill="#000"/><path d="M1.334 50.282C5.872 67.392 21.464 80 40 80c14.57 0 27.32-7.79 34.314-19.432l-1.812-1.73a14 14 0 00-11.505-3.752l-20.92 2.77a11 11 0 01-6.595-1.186l-15.265-8.09a15 15 0 00-14.866.465l-2.017 1.237z" fill="#fff"/><circle r="15.179" transform="scale(-1 1) rotate(-15.503 116.425 169.996)" fill="#8A6B59"/><circle r="4.424" transform="scale(-1 1) rotate(-38.655 28.516 97.732)" fill="#8A6B59"/><circle r="4.424" transform="scale(-1 1) rotate(-38.655 36.647 57.049)" fill="#8A6B59"/><path d="M32.081 25.166a15.177 15.177 0 00-4.676 5.804l14.402 2.028 14.403 2.027a15.159 15.159 0 00-2.875-6.846 15.18 15.18 0 00-21.254-3.013z" fill="#000"/><circle r="7.567" transform="matrix(-1 0 0 1 45.029 12.567)" fill="#000"/><path d="M23.206 26.133H4.836C1.633 26.133 0 24.626 0 21.671V4.448C0 1.508 1.633 0 4.836 0h18.37c3.203 0 4.837 1.492 4.837 4.448V21.67c0 2.955-1.634 4.462-4.837 4.462z" fill="#000"/><path d="M6.023 7.165l11.185 11.803H6.023V7.165z" fill="#fff"/><path d="M22.02 7.164L10.95 18.968h11.07V7.164z" fill="#fff"/><path d="M13.992 7.164l5.534 8.874H8.457l5.535-8.874z" fill="#fff"/></svg>