<svg viewBox="0 0 25 25" fill="none" xmlns="http://www.w3.org/2000/svg"><rect x=".662" y=".744" width="23.588" height="23.587" rx="5.336" fill="url(#paint0_linear)"/><g filter="url(#filter0_b)"><path fill-rule="evenodd" clip-rule="evenodd" d="M19.618 15.576c-.08-.188-.159-.392-.238-.565-.127-.282-.254-.55-.365-.8l-.016-.016a162.954 162.954 0 00-3.51-7.096l-.048-.094c-.13-.244-.257-.49-.38-.738-.16-.283-.319-.58-.573-.863a2.576 2.576 0 00-2.017-.974c-.794 0-1.509.346-2.033.942a5.32 5.32 0 00-.571.864c-.124.247-.251.493-.381.737l-.048.095a183.27 183.27 0 00-3.51 7.095l-.016.031c-.111.252-.239.519-.366.8-.08.174-.158.362-.238.566-.206.58-.27 1.13-.19 1.696a3.343 3.343 0 002.064 2.606c.413.172.842.25 1.287.25a4.228 4.228 0 002.001-.565c.652-.36 1.271-.878 1.97-1.632.699.754 1.334 1.272 1.97 1.633a4.228 4.228 0 002 .565c.445 0 .89-.079 1.287-.251a3.337 3.337 0 002.065-2.606c.126-.55.063-1.099-.144-1.68zm-7.163.816c-.857-1.067-1.414-2.072-1.604-2.92a2.501 2.501 0 01-.048-.957 1.51 1.51 0 01.255-.66c.302-.423.81-.69 1.397-.69.588 0 1.112.251 1.398.69.127.189.223.409.255.66a2.5 2.5 0 01-.048.958c-.191.832-.747 1.836-1.605 2.92zm6.337.738a2.338 2.338 0 01-1.445 1.837c-.381.157-.794.204-1.207.157a3.153 3.153 0 01-1.207-.408c-.572-.315-1.143-.8-1.81-1.523 1.048-1.272 1.683-2.433 1.921-3.47.111-.486.127-.925.08-1.334a2.528 2.528 0 00-.43-1.067c-.492-.707-1.318-1.115-2.239-1.115-.92 0-1.747.424-2.24 1.115a2.531 2.531 0 00-.428 1.067c-.064.409-.048.864.08 1.335.237 1.036.889 2.213 1.92 3.485-.65.722-1.238 1.209-1.81 1.523-.413.235-.81.36-1.207.408a2.568 2.568 0 01-1.207-.157 2.337 2.337 0 01-1.445-1.837 2.57 2.57 0 01.143-1.225c.047-.157.127-.313.206-.502.112-.251.238-.518.366-.785l.016-.031a170.3 170.3 0 013.494-7.048l.047-.095c.128-.235.255-.486.382-.722.127-.251.27-.487.444-.69a1.67 1.67 0 011.271-.582c.493 0 .937.205 1.27.581.175.205.318.44.445.691.128.236.255.487.382.722l.047.095a206.885 206.885 0 013.479 7.064v.015c.127.252.238.534.365.786.08.188.159.345.206.502.127.407.175.8.111 1.208z" fill="#fff"/></g><defs><linearGradient id="paint0_linear" x1="-8.158" y1="9.636" x2="9.627" y2="32.038" gradientUnits="userSpaceOnUse"><stop stop-color="#FF585B"/><stop offset="1" stop-color="#FF5687"/></linearGradient><filter id="filter0_b" x="-44.415" y="-45.069" width="113.742" height="114.682" filterUnits="userSpaceOnUse" color-interpolation-filters="sRGB"><feFlood flood-opacity="0" result="BackgroundImageFix"/><feGaussianBlur in="BackgroundImage" stdDeviation="24.75"/><feComposite in2="SourceAlpha" operator="in" result="effect1_backgroundBlur"/><feBlend in="SourceGraphic" in2="effect1_backgroundBlur" result="shape"/></filter></defs></svg>