<svg viewBox="0 0 25 25" fill="none" xmlns="http://www.w3.org/2000/svg"><path fill="#fff" d="M.726.647h23.588v23.608H.726z"/><path fill-rule="evenodd" clip-rule="evenodd" d="M15.665 16.893a.525.525 0 00.582-.055l.006.005a95.733 95.733 0 011.892-1.568c.2-.156.167-.412.008-.626l-.148-.193c-.401-.517-.783-1.01-.783-1.994V8.785l.001-.373c.009-1.412.016-2.702-1.088-3.688-.946-.869-2.516-1.175-3.716-1.175-2.347 0-4.968.838-5.518 3.613-.06.294.167.45.369.493l2.39.248c.225-.011.387-.222.429-.434.205-.956 1.042-1.417 1.983-1.417.509 0 1.086.18 1.387.612.31.436.304 1.013.3 1.533l-.001.18v.307c-.22.023-.448.045-.684.068-1.307.126-2.822.272-3.957.75-1.545.638-2.631 1.94-2.631 3.856 0 2.452 1.617 3.678 3.694 3.678 1.755 0 2.714-.396 4.068-1.716l.194.271c.318.453.53.753 1.223 1.302zM13.759 11.2v-.118h.001v-.511c-1.784 0-3.67.366-3.67 2.376 0 1.022.553 1.712 1.5 1.712.692 0 1.316-.409 1.708-1.074.463-.783.462-1.517.461-2.385z" fill="#151922"/><path fill-rule="evenodd" clip-rule="evenodd" d="M19.654 20.135c-.159.13-.31.06-.24-.111.233-.565.754-1.833.508-2.142-.245-.307-1.614-.148-2.24-.075l-.01.002c-.19.022-.219-.138-.049-.254 1.104-.755 2.911-.537 3.121-.284.212.255-.055 2.02-1.09 2.864zm-7.287-.14c2.1 0 4.407-.534 6.53-1.642.32-.167.59.26.276.545-1.894 1.716-4.64 2.63-7.004 2.63-3.314 0-6.297-1.506-8.557-4.01-.177-.197-.02-.465.194-.313 2.437 1.742 5.45 2.79 8.56 2.79z" fill="#FF9A00"/></svg>