<svg viewBox="0 0 25 25" fill="none" xmlns="http://www.w3.org/2000/svg"><rect x=".784" y=".745" width="23.588" height="23.587" rx="5.336" fill="#161616"/><path fill-rule="evenodd" clip-rule="evenodd" d="M12.577 11.958c2 0 3.621-1.58 3.621-3.526 0-1.948-1.621-3.526-3.62-3.526-2 0-3.622 1.578-3.622 3.526 0 1.947 1.621 3.526 3.621 3.526zm4.705.88c-2 0-3.622 1.58-3.622 3.527s1.621 3.526 3.622 3.526c2 0 3.62-1.58 3.62-3.526 0-1.948-1.62-3.526-3.62-3.526zm-9.408.002c-2 0-3.621 1.578-3.621 3.525 0 1.948 1.621 3.526 3.62 3.526 2 0 3.622-1.578 3.622-3.526 0-1.947-1.621-3.525-3.621-3.525z" fill="url(#paint0_radial)"/><defs><radialGradient id="paint0_radial" cx="0" cy="0" r="1" gradientUnits="userSpaceOnUse" gradientTransform="matrix(11.0388 0 0 9.93532 12.58 13.105)"><stop stop-color="#FFB900"/><stop offset=".6" stop-color="#F95D8F"/><stop offset=".999" stop-color="#F95353"/></radialGradient></defs></svg>