<svg viewBox="0 0 24 25" fill="none" xmlns="http://www.w3.org/2000/svg"><path fill-rule="evenodd" clip-rule="evenodd" d="M12.067 3.551a9.057 9.057 0 019.06 9.06c0 5.005-4.052 9.068-9.06 9.068a9.057 9.057 0 01-9.06-9.06c0-5.005 4.052-9.068 9.06-9.068z" fill="#E74D89"/><path fill-rule="evenodd" clip-rule="evenodd" d="M12.067 22.322c-5.358 0-9.713-4.351-9.713-9.705 0-5.362 4.355-9.713 9.713-9.713 5.357 0 9.712 4.351 9.712 9.705s-4.355 9.713-9.712 9.713zm8.187-8.383c-.28-.091-2.565-.767-5.167-.357 1.085 2.977 1.525 5.407 1.608 5.908a8.244 8.244 0 003.56-5.551zm-6.715.03c1.16 3.023 1.646 5.56 1.768 6.289a8.098 8.098 0 01-3.24.653 8.259 8.259 0 01-5.092-1.747c.152-.304 1.829-3.547 6.51-5.18a.14.14 0 00.054-.015zm-7.634 4.2c.19-.319 2.466-4.085 6.746-5.475.087-.031.179-.057.268-.082l.058-.017c-.205-.47-.433-.942-.675-1.405-4.143 1.238-8.165 1.185-8.53 1.177l-.003.126a2.763 2.763 0 00-.004.125 8.302 8.302 0 002.14 5.551zm5.714-8.255c-3.885 1.033-7.3 1.018-7.671 1.01a8.314 8.314 0 014.598-5.802l.025.035c.286.398 1.72 2.393 3.048 4.757zM10.124 4.56a43.68 43.68 0 013.096 4.853c2.951-1.109 4.196-2.78 4.347-2.992a8.267 8.267 0 00-5.5-2.088c-.668 0-1.321.083-1.943.227zm3.733 6.091c3.065-1.253 4.454-3.038 4.628-3.273a8.264 8.264 0 011.882 5.164l-.025-.005c-.385-.076-3.056-.601-5.75-.26-.06-.137-.12-.282-.181-.426a34.278 34.278 0 00-.554-1.2z" fill="#B2215A"/></svg>