<svg viewBox="0 0 24 24" fill="none" xmlns="http://www.w3.org/2000/svg"><path fill="#F3F3F4" d="M-.882-.715h24v24h-24z"/><path d="M7.957 16.347c2.811 0 5.09-2.308 5.09-5.156s-2.279-5.156-5.09-5.156c-2.81 0-5.09 2.308-5.09 5.156s2.28 5.156 5.09 5.156z" fill="#D82E2B"/><path d="M14.278 16.347c2.81 0 5.09-2.308 5.09-5.156s-2.28-5.156-5.09-5.156c-2.811 0-5.09 2.308-5.09 5.156s2.279 5.156 5.09 5.156z" fill="#4397D9"/><path d="M11.117 7.154a5.172 5.172 0 00-1.93 4.037c0 1.574.712 3.061 1.93 4.037a5.172 5.172 0 001.93-4.037 5.17 5.17 0 00-1.93-4.038z" fill="#6C6BB8"/></svg>