<svg width="24" height="25" fill="none" xmlns="http://www.w3.org/2000/svg"><mask id="a" maskUnits="userSpaceOnUse" x="0" y="0" width="24" height="25"><rect x=".186" y=".744" width="23.588" height="23.608" rx="5.336" fill="#fff"/></mask><g mask="url(#a)"><path fill="#fff" d="M1.13.843h22.277v23.348H1.13z"/><path fill-rule="evenodd" clip-rule="evenodd" d="M16.077 13.626l-.86-.884c-.119.007-.163-.073-.251-.231a9.647 9.647 0 00-.035-.064V5.965l.035-.064c.088-.158.132-.238.251-.23l.86-.885v-.295h-3.153l-2.293 5.894L8.05 4.49H4.897v.295l.86 1.179c.174.16.228.304.287.59v5.008c-.042.29-.1.485-.287.59l-1.146 1.473v.295h3.44v-.295l-1.147-1.473c-.212-.105-.273-.298-.287-.59v-4.42l3.154 6.778h.286l2.58-6.778v5.304l-.006.023c-.055.2-.063.227-.28.272l-.86.884v.295h4.586v-.295zm1.065-4.392c0-.201.163-.365.365-.365h1.359a.365.365 0 010 .73h-1.36a.365.365 0 01-.364-.365zm.365 1.824a.365.365 0 000 .73h1.359a.365.365 0 000-.73h-1.36zm-.365 2.554c0-.202.163-.365.365-.365h1.359a.365.365 0 010 .73h-1.36a.365.365 0 01-.364-.365zm-8.685 1.824a.365.365 0 000 .73h10.409a.365.365 0 000-.73H8.456zm-.365 2.554c0-.202.163-.365.365-.365h10.409a.365.365 0 010 .73H8.456a.365.365 0 01-.364-.365zm.365 1.824a.365.365 0 000 .73h10.409a.365.365 0 000-.73H8.456z" fill="#151922"/></g></svg>