<svg viewBox="0 0 25 24" fill="none" xmlns="http://www.w3.org/2000/svg"><rect x=".635" y=".196" width="23.588" height="23.587" rx="5.336" fill="#000"/><g clip-path="url(#clip0)" fill-rule="evenodd" clip-rule="evenodd"><path d="M13.744 4.42l-.006 3.445-.006 3.446-.283-.8v-.001l-.367 7.671c.36 1.017.553 1.56.555 1.563.003.002.208.015.456.027.752.037 1.683.117 2.39.205.163.02.304.03.312.023.009-.007.013-3.516.01-7.797L16.8 4.42h-3.056zm-5.528-.01v7.79c0 4.285.005 7.795.01 7.8.005.006.27-.02.59-.055.319-.036.76-.08.98-.1a52.005 52.005 0 011.461-.093c.034 0 .036-.175.041-3.3l.005-3.3.244.69.086.244.367-7.67-.126-.356-.565-1.594-.02-.057H8.216z" fill="#B1060F" stroke="#000" stroke-width=".082"/><path d="M8.216 4.41v4.372l3.081 8.172.001-.502.005-3.3.244.69a1897.06 1897.06 0 002.09 5.902c.003.002.208.015.456.027.752.037 1.683.117 2.39.205.163.02.304.03.312.023a407 407 0 00.011-4.152L13.74 7.03l-.002.834-.006 3.446-.283-.8a6531.005 6531.005 0 01-2.14-6.045l-.02-.057H8.216z" fill="url(#paint0_radial)"/><path d="M8.217 4.41l3.087 8.746v-.004l.243.69c1.357 3.839 2.086 5.897 2.09 5.902.003.002.208.015.457.027a35.12 35.12 0 012.389.205c.163.02.303.03.312.023l-3.063-8.69v.002l-.283-.8a7244.56 7244.56 0 01-2.14-6.045l-.02-.057H8.217z" fill="#E50914"/><path d="M13.744 4.42l-.006 3.445-.006 3.446-.283-.8v-.001l-.367 7.671c.36 1.017.553 1.56.555 1.563.003.002.208.015.456.027.752.037 1.683.117 2.39.205.163.02.304.03.312.023.009-.007.013-3.516.01-7.797L16.8 4.42h-3.056zm-5.528-.01v7.79c0 4.285.005 7.795.01 7.8.005.006.27-.02.59-.055.319-.036.76-.08.98-.1a52.005 52.005 0 011.461-.093c.034 0 .036-.175.041-3.3l.005-3.3.244.69.086.244.367-7.67-.126-.356-.565-1.594-.02-.057H8.216z" fill="#B1060F" stroke="#000" stroke-width=".082"/><path d="M8.216 4.41v4.372l3.081 8.172.001-.502.005-3.3.244.69a1897.06 1897.06 0 002.09 5.902c.003.002.208.015.456.027.752.037 1.683.117 2.39.205.163.02.304.03.312.023a407 407 0 00.011-4.152L13.74 7.03l-.002.834-.006 3.446-.283-.8a6531.005 6531.005 0 01-2.14-6.045l-.02-.057H8.216z" fill="url(#paint1_radial)"/><path d="M8.217 4.41l3.087 8.746v-.004l.243.69c1.357 3.839 2.086 5.897 2.09 5.902.003.002.208.015.457.027a35.12 35.12 0 012.389.205c.163.02.303.03.312.023l-3.063-8.69v.002l-.283-.8a7244.56 7244.56 0 01-2.14-6.045l-.02-.057H8.217z" fill="#E50914"/></g><defs><radialGradient id="paint0_radial" cx="0" cy="0" r="1" gradientUnits="userSpaceOnUse" gradientTransform="matrix(1.83971 -.637 23.33248 67.38702 12.369 12.115)"><stop/><stop offset="1" stop-opacity="0"/></radialGradient><radialGradient id="paint1_radial" cx="0" cy="0" r="1" gradientUnits="userSpaceOnUse" gradientTransform="matrix(1.83971 -.637 23.33248 67.38702 12.369 12.115)"><stop/><stop offset="1" stop-opacity="0"/></radialGradient><clipPath id="clip0"><path fill="#fff" transform="translate(8.216 4.41)" d="M0 0h8.587v15.584H0z"/></clipPath></defs></svg>