<svg viewBox="0 0 25 27" fill="none" xmlns="http://www.w3.org/2000/svg"><path fill="#fff" d="M.117.674h24.302v25.471H.117z"/><path fill-rule="evenodd" clip-rule="evenodd" d="M12.447 3.109c-5.53 0-10.007 4.696-10.007 10.496 0 4.444 2.63 8.242 6.356 9.77-.09-.835-.166-2.095.03-3.01.18-.819 1.172-5.216 1.172-5.216s-.3-.63-.3-1.56c0-1.466.81-2.553 1.802-2.553.857 0 1.262.678 1.262 1.481 0 .899-.54 2.254-.826 3.499-.24 1.04.496 1.891 1.488 1.891 1.773 0 3.14-1.97 3.14-4.807 0-2.505-1.728-4.27-4.177-4.27-2.84 0-4.523 2.237-4.523 4.554 0 .898.33 1.875.751 2.396.076.11.09.189.076.299-.076.33-.24 1.04-.27 1.182-.046.189-.151.236-.331.142-1.248-.615-2.029-2.522-2.029-4.066 0-3.31 2.299-6.351 6.611-6.351 3.471 0 6.16 2.6 6.16 6.051 0 3.61-2.178 6.525-5.183 6.525-1.007 0-1.968-.552-2.299-1.198l-.616 2.49c-.225.914-.841 2.049-1.247 2.758.931.3 1.923.473 2.96.473 5.53 0 10.007-4.697 10.007-10.496 0-5.784-4.478-10.48-10.007-10.48z" fill="#BD081C"/></svg>