<svg viewBox="0 0 25 25" fill="none" xmlns="http://www.w3.org/2000/svg"><rect x=".726" y=".745" width="23.588" height="23.608" rx="5.336" fill="#0D2481"/><rect x=".726" y=".744" width="23.588" height="23.587" rx="5.336" fill="#151922"/><path fill-rule="evenodd" clip-rule="evenodd" d="M3.675 12.54a8.845 8.845 0 1117.69 0 8.845 8.845 0 11-17.69 0zm14.078-1.002c-2.851-1.694-7.555-1.85-10.277-1.023a.827.827 0 11-.48-1.584c3.125-.948 8.319-.765 11.6 1.184a.827.827 0 11-.843 1.423zm-1.041 2.737a.69.69 0 10.721-1.175c-2.73-1.678-6.724-2.15-9.936-1.176a.69.69 0 00.4 1.32c2.813-.854 6.437-.43 8.815 1.031zm-.893 2.362a.551.551 0 10.575-.94c-2.331-1.426-5.221-1.757-8.59-.987a.55.55 0 10.245 1.075c3.079-.704 5.693-.416 7.77.852z" fill="#11FF8E"/></svg>