<svg viewBox="0 0 25 25" fill="none" xmlns="http://www.w3.org/2000/svg"><rect x=".664" y=".647" width="23.588" height="23.587" rx="5.336" fill="#319AFA"/><path fill-rule="evenodd" clip-rule="evenodd" d="M9.895 19.537c6.021 0 9.314-4.982 9.314-9.302a9.27 9.27 0 00-.01-.423 6.653 6.653 0 001.634-1.693 6.535 6.535 0 01-1.88.515 3.282 3.282 0 001.44-1.809 6.57 6.57 0 01-2.08.794 3.272 3.272 0 00-2.39-1.033 3.272 3.272 0 00-3.188 4.015 9.299 9.299 0 01-6.748-3.416A3.266 3.266 0 007 11.55a3.253 3.253 0 01-1.483-.41v.042a3.271 3.271 0 002.626 3.205 3.282 3.282 0 01-1.479.056 3.276 3.276 0 003.058 2.271 6.573 6.573 0 01-4.066 1.4 6.65 6.65 0 01-.78-.046 9.275 9.275 0 005.018 1.469" fill="#fff"/></svg>