<svg viewBox="0 0 25 24" fill="none" xmlns="http://www.w3.org/2000/svg"><rect x=".753" y=".196" width="23.588" height="23.587" rx="5.336" fill="#151922"/><path fill-rule="evenodd" clip-rule="evenodd" d="M21.194 7.738a2.269 2.269 0 00-1.59-1.602c-1.411-.39-7.057-.39-7.057-.39s-5.646 0-7.057.375A2.316 2.316 0 003.9 7.738c-.372 1.422-.372 4.372-.372 4.372s0 2.965.372 4.372a2.269 2.269 0 001.59 1.603c1.426.389 7.057.389 7.057.389s5.646 0 7.058-.375a2.269 2.269 0 001.59-1.602c.37-1.422.37-4.372.37-4.372s.016-2.965-.37-4.387z" fill="red"/><path fill-rule="evenodd" clip-rule="evenodd" d="M10.466 14.667l4.695-2.725-4.695-2.725v5.45z" fill="#fff"/></svg>