<svg width="307" height="47" viewBox="0 0 307 47" fill="none" xmlns="http://www.w3.org/2000/svg">
<path fill-rule="evenodd" clip-rule="evenodd" d="M5.72691 41.6369C5.45503 41.4086 5.7674 40.9928 6.08693 41.1475C6.65315 41.4216 7.23723 41.6717 7.83838 41.8961C18.2513 45.7838 29.8442 40.4941 33.7319 30.0812C37.6195 19.6684 32.3298 8.07547 21.917 4.18777C21.3161 3.96342 20.7113 3.76964 20.1042 3.60564C19.7615 3.51305 19.7981 2.99427 20.1531 3.00005C22.5808 3.03958 25.0433 3.4871 27.4479 4.38487C38.7663 8.61062 44.5159 21.2116 40.2902 32.5299C36.0644 43.8483 23.4635 49.598 12.1451 45.3722C9.74021 44.4743 7.58672 43.1983 5.72691 41.6369ZM24.4656 11.6978C25.2508 12.3384 25.9757 13.0578 26.627 13.8512C26.7082 13.9503 26.7155 14.0903 26.6467 14.1984L11.5889 37.8601C11.5373 37.9412 11.4352 37.9741 11.3459 37.9384L11.2902 37.9161C10.2063 37.4826 9.16565 36.9504 8.1811 36.3269C1.48638 32.9614 -1.73733 25.0214 0.943634 17.8407C3.81715 10.1442 12.3858 6.2344 20.0823 9.10792C21.826 9.75894 23.1979 10.5758 24.4656 11.6978ZM7.93361 33.145C4.67933 29.8604 4.10539 24.9527 6.04905 19.7467C8.45235 13.3097 15.0565 10.2454 21.5572 11.7276L7.93361 33.145Z" fill="#D80032"/>
<path d="M58.3977 45.64V21.84C58.3977 21.0133 58.3711 20.1733 58.3177 19.32C58.2644 18.4667 58.1844 17.6267 58.0777 16.8H62.9177L63.3577 21.04H62.9177C63.3177 19.6267 64.1577 18.5067 65.4377 17.68C66.7444 16.8267 68.2511 16.4 69.9577 16.4C71.7444 16.4 73.3044 16.8267 74.6377 17.68C75.9711 18.5067 77.0111 19.7067 77.7577 21.28C78.5044 22.8267 78.8777 24.6933 78.8777 26.88C78.8777 29.0667 78.5044 30.9467 77.7577 32.52C77.0111 34.0933 75.9711 35.3067 74.6377 36.16C73.3044 36.9867 71.7444 37.4 69.9577 37.4C68.2777 37.4 66.7977 36.9867 65.5177 36.16C64.2377 35.3333 63.3844 34.2267 62.9577 32.84H63.3977V45.64H58.3977ZM68.5577 33.56C70.1577 33.56 71.4377 33.0133 72.3977 31.92C73.3577 30.8 73.8377 29.12 73.8377 26.88C73.8377 24.64 73.3577 22.9733 72.3977 21.88C71.4377 20.7867 70.1577 20.24 68.5577 20.24C66.9844 20.24 65.7177 20.7867 64.7577 21.88C63.7977 22.9733 63.3177 24.64 63.3177 26.88C63.3177 29.12 63.7977 30.8 64.7577 31.92C65.7177 33.0133 66.9844 33.56 68.5577 33.56ZM91.5224 37.4C89.4424 37.4 87.6424 36.9733 86.1224 36.12C84.6024 35.2667 83.4158 34.0533 82.5624 32.48C81.7358 30.9067 81.3224 29.04 81.3224 26.88C81.3224 24.72 81.7358 22.8667 82.5624 21.32C83.4158 19.7467 84.6024 18.5333 86.1224 17.68C87.6424 16.8267 89.4424 16.4 91.5224 16.4C93.6024 16.4 95.4024 16.8267 96.9224 17.68C98.4691 18.5333 99.6558 19.7467 100.482 21.32C101.336 22.8667 101.762 24.72 101.762 26.88C101.762 29.04 101.336 30.9067 100.482 32.48C99.6558 34.0533 98.4691 35.2667 96.9224 36.12C95.4024 36.9733 93.6024 37.4 91.5224 37.4ZM91.5224 33.56C93.0958 33.56 94.3491 33.0133 95.2824 31.92C96.2158 30.8 96.6824 29.12 96.6824 26.88C96.6824 24.64 96.2158 22.9733 95.2824 21.88C94.3491 20.7867 93.0958 20.24 91.5224 20.24C89.9491 20.24 88.6958 20.7867 87.7624 21.88C86.8291 22.9733 86.3624 24.64 86.3624 26.88C86.3624 29.12 86.8291 30.8 87.7624 31.92C88.6958 33.0133 89.9491 33.56 91.5224 33.56ZM105.274 45.64V21.84C105.274 21.0133 105.248 20.1733 105.194 19.32C105.141 18.4667 105.061 17.6267 104.954 16.8H109.794L110.234 21.04H109.794C110.194 19.6267 111.034 18.5067 112.314 17.68C113.621 16.8267 115.128 16.4 116.834 16.4C118.621 16.4 120.181 16.8267 121.514 17.68C122.848 18.5067 123.888 19.7067 124.634 21.28C125.381 22.8267 125.754 24.6933 125.754 26.88C125.754 29.0667 125.381 30.9467 124.634 32.52C123.888 34.0933 122.848 35.3067 121.514 36.16C120.181 36.9867 118.621 37.4 116.834 37.4C115.154 37.4 113.674 36.9867 112.394 36.16C111.114 35.3333 110.261 34.2267 109.834 32.84H110.274V45.64H105.274ZM115.434 33.56C117.034 33.56 118.314 33.0133 119.274 31.92C120.234 30.8 120.714 29.12 120.714 26.88C120.714 24.64 120.234 22.9733 119.274 21.88C118.314 20.7867 117.034 20.24 115.434 20.24C113.861 20.24 112.594 20.7867 111.634 21.88C110.674 22.9733 110.194 24.64 110.194 26.88C110.194 29.12 110.674 30.8 111.634 31.92C112.594 33.0133 113.861 33.56 115.434 33.56ZM139.039 37.4C135.652 37.4 132.999 36.4667 131.079 34.6C129.159 32.7333 128.199 30.1733 128.199 26.92C128.199 24.8133 128.612 22.9733 129.439 21.4C130.266 19.8267 131.412 18.6 132.879 17.72C134.372 16.84 136.106 16.4 138.079 16.4C140.026 16.4 141.652 16.8133 142.959 17.64C144.266 18.4667 145.252 19.6267 145.919 21.12C146.612 22.6133 146.959 24.36 146.959 26.36V27.68H132.239V25.04H143.399L142.719 25.6C142.719 23.7333 142.319 22.3067 141.519 21.32C140.746 20.3333 139.612 19.84 138.119 19.84C136.466 19.84 135.186 20.4267 134.279 21.6C133.399 22.7733 132.959 24.4133 132.959 26.52V27.04C132.959 29.2267 133.492 30.8667 134.559 31.96C135.652 33.0267 137.186 33.56 139.159 33.56C140.306 33.56 141.372 33.4133 142.359 33.12C143.372 32.8 144.332 32.2933 145.239 31.6L146.719 34.96C145.759 35.7333 144.612 36.3333 143.279 36.76C141.946 37.1867 140.532 37.4 139.039 37.4ZM150.353 37V21.96C150.353 21.1067 150.326 20.24 150.273 19.36C150.246 18.48 150.18 17.6267 150.073 16.8H154.913L155.473 22.32H154.673C154.94 20.9867 155.38 19.88 155.993 19C156.633 18.12 157.406 17.4667 158.313 17.04C159.22 16.6133 160.206 16.4 161.273 16.4C161.753 16.4 162.14 16.4267 162.433 16.48C162.726 16.5067 163.02 16.5733 163.313 16.68L163.273 21.08C162.766 20.8667 162.326 20.7333 161.953 20.68C161.606 20.6267 161.166 20.6 160.633 20.6C159.486 20.6 158.513 20.84 157.713 21.32C156.94 21.8 156.353 22.4667 155.953 23.32C155.58 24.1733 155.393 25.1467 155.393 26.24V37H150.353ZM187.033 37.4C185.326 37.4 183.833 36.9867 182.553 36.16C181.273 35.3067 180.419 34.16 179.993 32.72H180.433V37H175.473V7.56H180.473V20.92H179.993C180.446 19.5333 181.313 18.44 182.593 17.64C183.873 16.8133 185.353 16.4 187.033 16.4C188.819 16.4 190.379 16.8267 191.713 17.68C193.046 18.5333 194.086 19.7467 194.833 21.32C195.579 22.8667 195.953 24.7333 195.953 26.92C195.953 29.1067 195.579 30.9867 194.833 32.56C194.086 34.1067 193.033 35.3067 191.673 36.16C190.339 36.9867 188.793 37.4 187.033 37.4ZM185.633 33.56C187.206 33.56 188.473 33.0133 189.433 31.92C190.419 30.8267 190.913 29.16 190.913 26.92C190.913 24.68 190.419 23.0133 189.433 21.92C188.473 20.8 187.206 20.24 185.633 20.24C184.059 20.24 182.793 20.7867 181.833 21.88C180.873 22.9733 180.393 24.64 180.393 26.88C180.393 29.12 180.873 30.8 181.833 31.92C182.793 33.0133 184.059 33.56 185.633 33.56ZM199.477 37V7.56H204.477V37H199.477ZM218.227 37.4C216.147 37.4 214.347 36.9733 212.827 36.12C211.307 35.2667 210.12 34.0533 209.267 32.48C208.44 30.9067 208.027 29.04 208.027 26.88C208.027 24.72 208.44 22.8667 209.267 21.32C210.12 19.7467 211.307 18.5333 212.827 17.68C214.347 16.8267 216.147 16.4 218.227 16.4C220.307 16.4 222.107 16.8267 223.627 17.68C225.174 18.5333 226.36 19.7467 227.187 21.32C228.04 22.8667 228.467 24.72 228.467 26.88C228.467 29.04 228.04 30.9067 227.187 32.48C226.36 34.0533 225.174 35.2667 223.627 36.12C222.107 36.9733 220.307 37.4 218.227 37.4ZM218.227 33.56C219.8 33.56 221.054 33.0133 221.987 31.92C222.92 30.8 223.387 29.12 223.387 26.88C223.387 24.64 222.92 22.9733 221.987 21.88C221.054 20.7867 219.8 20.24 218.227 20.24C216.654 20.24 215.4 20.7867 214.467 21.88C213.534 22.9733 213.067 24.64 213.067 26.88C213.067 29.12 213.534 30.8 214.467 31.92C215.4 33.0133 216.654 33.56 218.227 33.56ZM241.259 37.4C239.179 37.4 237.352 36.9733 235.779 36.12C234.232 35.2667 233.032 34.0533 232.179 32.48C231.326 30.88 230.899 28.9867 230.899 26.8C230.899 24.6133 231.326 22.7467 232.179 21.2C233.059 19.6533 234.272 18.4667 235.819 17.64C237.366 16.8133 239.179 16.4 241.259 16.4C242.592 16.4 243.886 16.6133 245.139 17.04C246.419 17.44 247.459 18.0267 248.259 18.8L246.739 22.28C246.019 21.6133 245.206 21.12 244.299 20.8C243.419 20.4533 242.552 20.28 241.699 20.28C239.912 20.28 238.512 20.84 237.499 21.96C236.512 23.08 236.019 24.7067 236.019 26.84C236.019 28.9733 236.512 30.6133 237.499 31.76C238.512 32.9067 239.912 33.48 241.699 33.48C242.526 33.48 243.379 33.32 244.259 33C245.166 32.68 245.992 32.1867 246.739 31.52L248.259 34.96C247.432 35.7333 246.379 36.3333 245.099 36.76C243.846 37.1867 242.566 37.4 241.259 37.4ZM251.335 37V7.56H256.335V25.4H256.415L264.615 16.8H270.655L260.455 27.48L260.495 25.48L271.375 37H265.175L256.415 27.96H256.335V37H251.335ZM281.975 37.4C278.588 37.4 275.935 36.4667 274.015 34.6C272.095 32.7333 271.135 30.1733 271.135 26.92C271.135 24.8133 271.548 22.9733 272.375 21.4C273.202 19.8267 274.348 18.6 275.815 17.72C277.308 16.84 279.042 16.4 281.015 16.4C282.962 16.4 284.588 16.8133 285.895 17.64C287.202 18.4667 288.188 19.6267 288.855 21.12C289.548 22.6133 289.895 24.36 289.895 26.36V27.68H275.175V25.04H286.335L285.655 25.6C285.655 23.7333 285.255 22.3067 284.455 21.32C283.682 20.3333 282.548 19.84 281.055 19.84C279.402 19.84 278.122 20.4267 277.215 21.6C276.335 22.7733 275.895 24.4133 275.895 26.52V27.04C275.895 29.2267 276.428 30.8667 277.495 31.96C278.588 33.0267 280.122 33.56 282.095 33.56C283.242 33.56 284.308 33.4133 285.295 33.12C286.308 32.8 287.268 32.2933 288.175 31.6L289.655 34.96C288.695 35.7333 287.548 36.3333 286.215 36.76C284.882 37.1867 283.468 37.4 281.975 37.4ZM293.289 37V21.96C293.289 21.1067 293.262 20.24 293.209 19.36C293.182 18.48 293.116 17.6267 293.009 16.8H297.849L298.409 22.32H297.609C297.876 20.9867 298.316 19.88 298.929 19C299.569 18.12 300.342 17.4667 301.249 17.04C302.156 16.6133 303.142 16.4 304.209 16.4C304.689 16.4 305.076 16.4267 305.369 16.48C305.662 16.5067 305.956 16.5733 306.249 16.68L306.209 21.08C305.702 20.8667 305.262 20.7333 304.889 20.68C304.542 20.6267 304.102 20.6 303.569 20.6C302.422 20.6 301.449 20.84 300.649 21.32C299.876 21.8 299.289 22.4667 298.889 23.32C298.516 24.1733 298.329 25.1467 298.329 26.24V37H293.289Z" fill="#D80032"/>
</svg>
