<svg width="109" height="20" viewBox="0 0 109 20" fill="none" xmlns="http://www.w3.org/2000/svg">
<path fill-rule="evenodd" clip-rule="evenodd" d="M2.64646 16.5102C2.45932 16.3792 2.65197 16.1011 2.86596 16.181C6.67323 17.6024 10.912 15.6684 12.3334 11.8611C13.7549 8.05381 11.8208 3.81508 8.01354 2.39361C7.79959 2.31373 7.83634 1.97748 8.06348 2.00119C8.72338 2.07009 9.3854 2.22283 10.0358 2.46568C14.1742 4.01075 16.2764 8.61806 14.7314 12.7564C13.1863 16.8947 8.57898 18.997 4.44064 17.4519C3.79019 17.2091 3.19005 16.8906 2.64646 16.5102ZM8.94518 5.1393C9.19765 5.34528 9.4331 5.57354 9.64817 5.8229C9.73185 5.91992 9.73871 6.06031 9.66992 6.16841L4.23801 14.7041C4.2187 14.7344 4.18053 14.7467 4.14713 14.7334C3.74802 14.5737 3.36458 14.3783 3.00141 14.1498C0.546727 12.9222 -0.636577 10.0147 0.345022 7.38553C1.39567 4.57146 4.52864 3.14192 7.34272 4.19257C7.98017 4.43057 8.48174 4.72919 8.94518 5.1393ZM2.90076 12.9813C1.71091 11.7803 1.50107 9.9859 2.21173 8.08246C3.09044 5.72889 5.50511 4.60847 7.88198 5.15041L2.90076 12.9813Z" fill="#D80032"/>
<path d="M21.9868 15.3557V8.81068C21.9868 8.58334 21.9794 8.35234 21.9648 8.11767C21.9501 7.88301 21.9281 7.65201 21.8988 7.42468H23.2298L23.3508 8.59068H23.2298C23.3398 8.20201 23.5708 7.89401 23.9228 7.66668C24.2821 7.43201 24.6964 7.31467 25.1658 7.31467C25.6571 7.31467 26.0861 7.43201 26.4528 7.66668C26.8194 7.89401 27.1054 8.22401 27.3108 8.65668C27.5161 9.08201 27.6188 9.59534 27.6188 10.1967C27.6188 10.798 27.5161 11.315 27.3108 11.7477C27.1054 12.1803 26.8194 12.514 26.4528 12.7487C26.0861 12.976 25.6571 13.0897 25.1658 13.0897C24.7038 13.0897 24.2968 12.976 23.9448 12.7487C23.5928 12.5213 23.3581 12.217 23.2408 11.8357H23.3618V15.3557H21.9868ZM24.7808 12.0337C25.2208 12.0337 25.5728 11.8833 25.8368 11.5827C26.1008 11.2747 26.2328 10.8127 26.2328 10.1967C26.2328 9.58068 26.1008 9.12234 25.8368 8.82168C25.5728 8.52101 25.2208 8.37067 24.7808 8.37067C24.3481 8.37067 23.9998 8.52101 23.7358 8.82168C23.4718 9.12234 23.3398 9.58068 23.3398 10.1967C23.3398 10.8127 23.4718 11.2747 23.7358 11.5827C23.9998 11.8833 24.3481 12.0337 24.7808 12.0337ZM31.0961 13.0897C30.5241 13.0897 30.0291 12.9723 29.6111 12.7377C29.1931 12.503 28.8667 12.1693 28.6321 11.7367C28.4047 11.304 28.2911 10.7907 28.2911 10.1967C28.2911 9.60268 28.4047 9.09301 28.6321 8.66768C28.8667 8.23501 29.1931 7.90134 29.6111 7.66668C30.0291 7.43201 30.5241 7.31467 31.0961 7.31467C31.6681 7.31467 32.1631 7.43201 32.5811 7.66668C33.0064 7.90134 33.3327 8.23501 33.5601 8.66768C33.7947 9.09301 33.9121 9.60268 33.9121 10.1967C33.9121 10.7907 33.7947 11.304 33.5601 11.7367C33.3327 12.1693 33.0064 12.503 32.5811 12.7377C32.1631 12.9723 31.6681 13.0897 31.0961 13.0897ZM31.0961 12.0337C31.5287 12.0337 31.8734 11.8833 32.1301 11.5827C32.3867 11.2747 32.5151 10.8127 32.5151 10.1967C32.5151 9.58068 32.3867 9.12234 32.1301 8.82168C31.8734 8.52101 31.5287 8.37067 31.0961 8.37067C30.6634 8.37067 30.3187 8.52101 30.0621 8.82168C29.8054 9.12234 29.6771 9.58068 29.6771 10.1967C29.6771 10.8127 29.8054 11.2747 30.0621 11.5827C30.3187 11.8833 30.6634 12.0337 31.0961 12.0337ZM34.8778 15.3557V8.81068C34.8778 8.58334 34.8705 8.35234 34.8558 8.11767C34.8412 7.88301 34.8192 7.65201 34.7898 7.42468H36.1208L36.2418 8.59068H36.1208C36.2308 8.20201 36.4618 7.89401 36.8138 7.66668C37.1732 7.43201 37.5875 7.31467 38.0568 7.31467C38.5482 7.31467 38.9772 7.43201 39.3438 7.66668C39.7105 7.89401 39.9965 8.22401 40.2018 8.65668C40.4072 9.08201 40.5098 9.59534 40.5098 10.1967C40.5098 10.798 40.4072 11.315 40.2018 11.7477C39.9965 12.1803 39.7105 12.514 39.3438 12.7487C38.9772 12.976 38.5482 13.0897 38.0568 13.0897C37.5948 13.0897 37.1878 12.976 36.8358 12.7487C36.4838 12.5213 36.2492 12.217 36.1318 11.8357H36.2528V15.3557H34.8778ZM37.6718 12.0337C38.1118 12.0337 38.4638 11.8833 38.7278 11.5827C38.9918 11.2747 39.1238 10.8127 39.1238 10.1967C39.1238 9.58068 38.9918 9.12234 38.7278 8.82168C38.4638 8.52101 38.1118 8.37067 37.6718 8.37067C37.2392 8.37067 36.8908 8.52101 36.6268 8.82168C36.3628 9.12234 36.2308 9.58068 36.2308 10.1967C36.2308 10.8127 36.3628 11.2747 36.6268 11.5827C36.8908 11.8833 37.2392 12.0337 37.6718 12.0337ZM44.1631 13.0897C43.2318 13.0897 42.5021 12.833 41.9741 12.3197C41.4461 11.8063 41.1821 11.1023 41.1821 10.2077C41.1821 9.62834 41.2958 9.12234 41.5231 8.68968C41.7504 8.25701 42.0658 7.91967 42.4691 7.67768C42.8798 7.43567 43.3564 7.31467 43.8991 7.31467C44.4344 7.31467 44.8818 7.42834 45.2411 7.65567C45.6004 7.88301 45.8718 8.20201 46.0551 8.61268C46.2458 9.02334 46.3411 9.50368 46.3411 10.0537V10.4167H42.2931V9.69068H45.3621L45.1751 9.84468C45.1751 9.33134 45.0651 8.93901 44.8451 8.66768C44.6324 8.39634 44.3208 8.26068 43.9101 8.26068C43.4554 8.26068 43.1034 8.42201 42.8541 8.74468C42.6121 9.06734 42.4911 9.51834 42.4911 10.0977V10.2407C42.4911 10.842 42.6378 11.293 42.9311 11.5937C43.2318 11.887 43.6534 12.0337 44.1961 12.0337C44.5114 12.0337 44.8048 11.9933 45.0761 11.9127C45.3548 11.8247 45.6188 11.6853 45.8681 11.4947L46.2751 12.4187C46.0111 12.6313 45.6958 12.7963 45.3291 12.9137C44.9624 13.031 44.5738 13.0897 44.1631 13.0897ZM47.2745 12.9797V8.84368C47.2745 8.60901 47.2671 8.37068 47.2525 8.12868C47.2451 7.88667 47.2268 7.65201 47.1975 7.42468H48.5285L48.6825 8.94268H48.4625C48.5358 8.57601 48.6568 8.27168 48.8255 8.02968C49.0015 7.78768 49.2141 7.60801 49.4635 7.49068C49.7128 7.37334 49.9841 7.31467 50.2775 7.31467C50.4095 7.31467 50.5158 7.32201 50.5965 7.33668C50.6771 7.34401 50.7578 7.36234 50.8385 7.39168L50.8275 8.60167C50.6881 8.54301 50.5671 8.50634 50.4645 8.49168C50.3691 8.47701 50.2481 8.46968 50.1015 8.46968C49.7861 8.46968 49.5185 8.53568 49.2985 8.66768C49.0858 8.79968 48.9245 8.98301 48.8145 9.21768C48.7118 9.45234 48.6605 9.72001 48.6605 10.0207V12.9797H47.2745ZM57.3614 13.0897C56.8921 13.0897 56.4814 12.976 56.1294 12.7487C55.7774 12.514 55.5427 12.1987 55.4254 11.8027H55.5464V12.9797H54.1824V4.88367H55.5574V8.55768H55.4254C55.5501 8.17634 55.7884 7.87568 56.1404 7.65567C56.4924 7.42834 56.8994 7.31467 57.3614 7.31467C57.8527 7.31467 58.2817 7.43201 58.6484 7.66668C59.0151 7.90134 59.3011 8.23501 59.5064 8.66768C59.7117 9.09301 59.8144 9.60634 59.8144 10.2077C59.8144 10.809 59.7117 11.326 59.5064 11.7587C59.3011 12.184 59.0114 12.514 58.6374 12.7487C58.2707 12.976 57.8454 13.0897 57.3614 13.0897ZM56.9764 12.0337C57.4091 12.0337 57.7574 11.8833 58.0214 11.5827C58.2927 11.282 58.4284 10.8237 58.4284 10.2077C58.4284 9.59168 58.2927 9.13334 58.0214 8.83268C57.7574 8.52468 57.4091 8.37067 56.9764 8.37067C56.5437 8.37067 56.1954 8.52101 55.9314 8.82168C55.6674 9.12234 55.5354 9.58068 55.5354 10.1967C55.5354 10.8127 55.6674 11.2747 55.9314 11.5827C56.1954 11.8833 56.5437 12.0337 56.9764 12.0337ZM60.7837 12.9797V4.88367H62.1587V12.9797H60.7837ZM65.9398 13.0897C65.3678 13.0897 64.8728 12.9723 64.4548 12.7377C64.0368 12.503 63.7105 12.1693 63.4758 11.7367C63.2485 11.304 63.1348 10.7907 63.1348 10.1967C63.1348 9.60268 63.2485 9.09301 63.4758 8.66768C63.7105 8.23501 64.0368 7.90134 64.4548 7.66668C64.8728 7.43201 65.3678 7.31467 65.9398 7.31467C66.5118 7.31467 67.0068 7.43201 67.4248 7.66668C67.8502 7.90134 68.1765 8.23501 68.4038 8.66768C68.6385 9.09301 68.7558 9.60268 68.7558 10.1967C68.7558 10.7907 68.6385 11.304 68.4038 11.7367C68.1765 12.1693 67.8502 12.503 67.4248 12.7377C67.0068 12.9723 66.5118 13.0897 65.9398 13.0897ZM65.9398 12.0337C66.3725 12.0337 66.7172 11.8833 66.9738 11.5827C67.2305 11.2747 67.3588 10.8127 67.3588 10.1967C67.3588 9.58068 67.2305 9.12234 66.9738 8.82168C66.7172 8.52101 66.3725 8.37067 65.9398 8.37067C65.5072 8.37067 65.1625 8.52101 64.9058 8.82168C64.6492 9.12234 64.5208 9.58068 64.5208 10.1967C64.5208 10.8127 64.6492 11.2747 64.9058 11.5827C65.1625 11.8833 65.5072 12.0337 65.9398 12.0337ZM72.2736 13.0897C71.7016 13.0897 71.1993 12.9723 70.7666 12.7377C70.3413 12.503 70.0113 12.1693 69.7766 11.7367C69.5419 11.2967 69.4246 10.776 69.4246 10.1747C69.4246 9.57334 69.5419 9.06001 69.7766 8.63468C70.0186 8.20934 70.3523 7.88301 70.7776 7.65567C71.2029 7.42834 71.7016 7.31467 72.2736 7.31467C72.6403 7.31467 72.9959 7.37334 73.3406 7.49068C73.6926 7.60068 73.9786 7.76201 74.1986 7.97468L73.7806 8.93167C73.5826 8.74834 73.3589 8.61268 73.1096 8.52467C72.8676 8.42934 72.6293 8.38168 72.3946 8.38168C71.9033 8.38168 71.5183 8.53568 71.2396 8.84368C70.9683 9.15168 70.8326 9.59901 70.8326 10.1857C70.8326 10.7723 70.9683 11.2233 71.2396 11.5387C71.5183 11.854 71.9033 12.0117 72.3946 12.0117C72.6219 12.0117 72.8566 11.9677 73.0986 11.8797C73.3479 11.7917 73.5753 11.656 73.7806 11.4727L74.1986 12.4187C73.9713 12.6313 73.6816 12.7963 73.3296 12.9137C72.9849 13.031 72.6329 13.0897 72.2736 13.0897ZM75.0446 12.9797V4.88367H76.4196V9.78968H76.4416L78.6966 7.42468H80.3576L77.5526 10.3617L77.5636 9.81168L80.5556 12.9797H78.8506L76.4416 10.4937H76.4196V12.9797H75.0446ZM83.4705 13.0897C82.5392 13.0897 81.8095 12.833 81.2815 12.3197C80.7535 11.8063 80.4895 11.1023 80.4895 10.2077C80.4895 9.62834 80.6032 9.12234 80.8305 8.68968C81.0578 8.25701 81.3732 7.91967 81.7765 7.67768C82.1872 7.43567 82.6638 7.31467 83.2065 7.31467C83.7418 7.31467 84.1892 7.42834 84.5485 7.65567C84.9078 7.88301 85.1792 8.20201 85.3625 8.61268C85.5532 9.02334 85.6485 9.50368 85.6485 10.0537V10.4167H81.6005V9.69068H84.6695L84.4825 9.84468C84.4825 9.33134 84.3725 8.93901 84.1525 8.66768C83.9398 8.39634 83.6282 8.26068 83.2175 8.26068C82.7628 8.26068 82.4108 8.42201 82.1615 8.74468C81.9195 9.06734 81.7985 9.51834 81.7985 10.0977V10.2407C81.7985 10.842 81.9452 11.293 82.2385 11.5937C82.5392 11.887 82.9608 12.0337 83.5035 12.0337C83.8188 12.0337 84.1122 11.9933 84.3835 11.9127C84.6622 11.8247 84.9262 11.6853 85.1755 11.4947L85.5825 12.4187C85.3185 12.6313 85.0032 12.7963 84.6365 12.9137C84.2698 13.031 83.8812 13.0897 83.4705 13.0897ZM86.5819 12.9797V8.84368C86.5819 8.60901 86.5745 8.37068 86.5599 8.12868C86.5525 7.88667 86.5342 7.65201 86.5049 7.42468H87.8359L87.9899 8.94268H87.7699C87.8432 8.57601 87.9642 8.27168 88.1329 8.02968C88.3089 7.78768 88.5215 7.60801 88.7709 7.49068C89.0202 7.37334 89.2915 7.31467 89.5849 7.31467C89.7169 7.31467 89.8232 7.32201 89.9039 7.33668C89.9845 7.34401 90.0652 7.36234 90.1459 7.39168L90.1349 8.60167C89.9955 8.54301 89.8745 8.50634 89.7719 8.49168C89.6765 8.47701 89.5555 8.46968 89.4089 8.46968C89.0935 8.46968 88.8259 8.53568 88.6059 8.66768C88.3932 8.79968 88.2319 8.98301 88.1219 9.21768C88.0192 9.45234 87.9679 9.72001 87.9679 10.0207V12.9797H86.5819Z" fill="#D80032"/>
</svg>
