<svg xmlns="http://www.w3.org/2000/svg" width="24" height="24" fill="none"><circle cx="12" cy="12" r="12" fill="#98B1BC"/><path fill="#fff" d="M3.173 20.13c1.526-2.232 4.63-4.222 8.821-4.222 4.2 0 7.306 1.99 8.832 4.222A11.964 11.964 0 0112 24c-3.491 0-6.634-1.49-8.827-3.87zm13.53-11.536c0 2.944-2.184 5.206-4.697 5.206-2.525 0-4.698-2.262-4.698-5.183 0-2.885 2.185-5.088 4.698-5.088 2.513 0 4.697 2.156 4.697 5.065z" opacity=".3"/><path fill="#fff" d="M11.372 16.63c0 .325.283.624.628.62a.64.64 0 00.628-.62l-.004-4.002h4.005A.634.634 0 0017.25 12c-.008-.341-.287-.628-.624-.624l-4.002-.004V7.374A.629.629 0 0012 6.75c-.341.008-.628.287-.628.62v4.006l-4.001-.004c-.326 0-.629.287-.62.628 0 .341.294.628.62.628l4-.004v4.005z"/></svg>