<svg viewBox="0 0 24 24" fill="none" xmlns="http://www.w3.org/2000/svg">
  <g filter="url(#filter0_ii_11726_51707)">
    <rect width="24" height="24" rx="12" fill="#151922"/>
  </g>
  <path d="M6.86252 17H17.1318C18.3546 17 19 16.3626 19 15.1449V9.16968C19 7.95189 18.3546 7.31454 17.1318 7.31454H15.626C15.1844 7.31454 15.0429 7.24056 14.7655 6.95034L14.3182 6.46663C14.0239 6.15365 13.7238 6 13.1464 6H10.8197C10.2422 6 9.94218 6.15365 9.6478 6.46663L9.20057 6.95034C8.92883 7.23487 8.78164 7.31454 8.34007 7.31454H6.86252C5.63971 7.31454 5 7.95189 5 9.16968V15.1449C5 16.3626 5.63971 17 6.86252 17ZM11.9972 15.2131C10.3045 15.2131 8.94582 13.8474 8.94582 12.1402C8.94582 10.4273 10.3045 9.06156 11.9972 9.06156C13.6955 9.06156 15.0542 10.4273 15.0542 12.1402C15.0542 13.8474 13.6955 15.2131 11.9972 15.2131ZM15.4165 10.046C15.4165 9.64201 15.7618 9.28919 16.1751 9.28919C16.5827 9.28919 16.928 9.64201 16.928 10.046C16.928 10.4671 16.5827 10.7972 16.1751 10.8029C15.7618 10.8029 15.4165 10.4728 15.4165 10.046ZM11.9972 14.1831C13.1237 14.1831 14.0295 13.2726 14.0295 12.1402C14.0295 11.0021 13.1237 10.0916 11.9972 10.0916C10.8763 10.0916 9.97048 11.0021 9.97048 12.1402C9.97048 13.2726 10.8819 14.1831 11.9972 14.1831Z" fill="white"/>
  <defs>
    <filter id="filter0_ii_11726_51707" x="0" y="0" width="24" height="26" filterUnits="userSpaceOnUse" color-interpolation-filters="sRGB">
      <feFlood flood-opacity="0" result="BackgroundImageFix"/>
      <feBlend mode="normal" in="SourceGraphic" in2="BackgroundImageFix" result="shape"/>
      <feColorMatrix in="SourceAlpha" type="matrix" values="0 0 0 0 0 0 0 0 0 0 0 0 0 0 0 0 0 0 127 0" result="hardAlpha"/>
      <feOffset dy="2"/>
      <feGaussianBlur stdDeviation="5"/>
      <feComposite in2="hardAlpha" operator="arithmetic" k2="-1" k3="1"/>
      <feColorMatrix type="matrix" values="0 0 0 0 0 0 0 0 0 0 0 0 0 0 0 0 0 0 0.25 0"/>
      <feBlend mode="normal" in2="shape" result="effect1_innerShadow_11726_51707"/>
      <feColorMatrix in="SourceAlpha" type="matrix" values="0 0 0 0 0 0 0 0 0 0 0 0 0 0 0 0 0 0 127 0" result="hardAlpha"/>
      <feOffset/>
      <feGaussianBlur stdDeviation="0.5"/>
      <feComposite in2="hardAlpha" operator="arithmetic" k2="-1" k3="1"/>
      <feColorMatrix type="matrix" values="0 0 0 0 1 0 0 0 0 1 0 0 0 0 1 0 0 0 0.25 0"/>
      <feBlend mode="normal" in2="effect1_innerShadow_11726_51707" result="effect2_innerShadow_11726_51707"/>
    </filter>
  </defs>
</svg>
