<svg xmlns="http://www.w3.org/2000/svg" width="24" height="24" fill="none"><path fill="#44474E" d="M14.828 16c.226 0 .41-.08.568-.229l3.323-3.145c.185-.189.281-.384.281-.626a.813.813 0 00-.28-.62l-3.325-3.15a.784.784 0 00-.567-.23.796.796 0 00-.815.794c0 .215.096.424.247.579l2.796 2.634-2.796 2.62A.796.796 0 0014.828 16zm-5.656 0a.795.795 0 01-.568-.229L5.28 12.626C5.096 12.437 5 12.242 5 12c0-.236.089-.444.28-.62l3.325-3.15A.784.784 0 019.172 8c.459 0 .815.35.815.794a.844.844 0 01-.247.579l-2.796 2.634 2.796 2.62A.796.796 0 019.172 16z"/></svg>