<svg viewBox="0 0 24 24" fill="none" xmlns="http://www.w3.org/2000/svg">
<path d="M12 12.8496L8.02539 16.8242C7.9082 16.9414 7.76758 17 7.60352 17C7.43164 17 7.28711 16.9434 7.16992 16.8301C7.05664 16.7129 7 16.5684 7 16.3965C7 16.2324 7.05859 16.0918 7.17578 15.9746L11.1504 12L7.17578 8.02539C7.05859 7.9082 7 7.76562 7 7.59766C7 7.51562 7.01562 7.4375 7.04688 7.36328C7.07812 7.28906 7.12109 7.22656 7.17578 7.17578C7.23047 7.12109 7.29492 7.07812 7.36914 7.04688C7.44336 7.01562 7.52148 7 7.60352 7C7.76758 7 7.9082 7.05859 8.02539 7.17578L12 11.1504L15.9746 7.17578C16.0918 7.05859 16.2344 7 16.4023 7C16.4844 7 16.5605 7.01562 16.6309 7.04688C16.7051 7.07812 16.7695 7.12109 16.8242 7.17578C16.8789 7.23047 16.9219 7.29492 16.9531 7.36914C16.9844 7.43945 17 7.51562 17 7.59766C17 7.76562 16.9414 7.9082 16.8242 8.02539L12.8496 12L16.8242 15.9746C16.9414 16.0918 17 16.2324 17 16.3965C17 16.4785 16.9844 16.5566 16.9531 16.6309C16.9219 16.7051 16.8789 16.7695 16.8242 16.8242C16.7734 16.8789 16.7109 16.9219 16.6367 16.9531C16.5625 16.9844 16.4844 17 16.4023 17C16.2344 17 16.0918 16.9414 15.9746 16.8242L12 12.8496Z" fill="#B9BABD"/>
</svg>
