<svg xmlns="http://www.w3.org/2000/svg" width="24" height="24" fill="none"><path fill="#44474E" fill-rule="evenodd" d="M6 3.2A2.8 2.8 0 003.2 6v7.2A2.8 2.8 0 006 16h2v2a2.8 2.8 0 002.8 2.8H18a2.8 2.8 0 002.8-2.8v-7.2A2.8 2.8 0 0018 8h-2V6a2.8 2.8 0 00-2.8-2.8H6zm10 6.4v3.6a2.8 2.8 0 01-2.8 2.8H9.6v2a1.2 1.2 0 001.2 1.2H18a1.2 1.2 0 001.2-1.2v-7.2A1.2 1.2 0 0018 9.6h-2zm-6.4 4.8h3.6a1.2 1.2 0 001.2-1.2V6a1.2 1.2 0 00-1.2-1.2H6A1.2 1.2 0 004.8 6v7.2A1.2 1.2 0 006 14.4h3.6z" clip-rule="evenodd"/></svg>