<svg xmlns="http://www.w3.org/2000/svg" fill="none" viewBox="0 0 24 24"><path fill="#E8E8E9" d="M12 17a.846.846 0 01-.838-.828v-2.34l-2.334.006A.853.853 0 018 13c-.01-.455.393-.838.828-.838l2.334.005v-2.34c0-.444.383-.817.838-.827a.84.84 0 01.833.833v2.33l2.334.004c.45-.005.823.378.833.833a.846.846 0 01-.827.838h-2.34l.005 2.335A.853.853 0 0112 17z"/><path fill="#E8E8E9" fill-rule="evenodd" d="M7 2h8l5 5v12a3 3 0 01-3 3H7a3 3 0 01-3-3V5a3 3 0 013-3zM5.8 19V5A1.2 1.2 0 017 3.8h7.254L18.2 7.746V19a1.2 1.2 0 01-1.2 1.2H7A1.2 1.2 0 015.8 19z" clip-rule="evenodd"/></svg>