<svg width="24" height="24" viewBox="0 0 24 24" fill="none" xmlns="http://www.w3.org/2000/svg">
<path fill-rule="evenodd" clip-rule="evenodd" d="M12 22.0001C17.5229 22.0001 22.0001 17.5229 22.0001 12C22.0001 6.47716 17.5229 2 12 2C6.47716 2 2 6.47716 2 12C2 17.5229 6.47716 22.0001 12 22.0001ZM12 17C14.7615 17 17 14.7615 17 12C17 9.2386 14.7615 7.00001 12 7.00001C9.2386 7.00001 7.00001 9.2386 7.00001 12C7.00001 14.7615 9.2386 17 12 17Z" fill="url(#paint0_radial)"/>
<path d="M5.44452 19.5518L8.96054 15.9704C8.48206 15.6036 8.07181 15.1522 7.7521 14.6386L3.85303 17.8003C4.31305 18.4452 4.84776 19.0333 5.44452 19.5518Z" fill="url(#paint1_radial)"/>
<path d="M3.85317 6.19951L7.75223 9.36114C8.07197 8.84755 8.48227 8.39617 8.96079 8.02935L5.44476 4.448C4.84796 4.96647 4.31322 5.55452 3.85317 6.19951Z" fill="url(#paint2_radial)"/>
<path d="M15.0395 8.02956L18.5555 4.44822C19.1522 4.96671 19.687 5.55476 20.147 6.19976L16.2479 9.36141C15.9282 8.8478 15.5179 8.3964 15.0395 8.02956Z" fill="url(#paint3_radial)"/>
<path d="M16.248 14.6384C15.9284 15.152 15.5182 15.6034 15.0397 15.9702L18.5557 19.5515C19.1525 19.0331 19.6871 18.445 20.1471 17.8L16.248 14.6384Z" fill="url(#paint4_radial)"/>
<defs>
<radialGradient id="paint0_radial" cx="0" cy="0" r="1" gradientUnits="userSpaceOnUse" gradientTransform="translate(12 12) rotate(90) scale(10)">
<stop stop-color="#FF3F15"/>
<stop offset="0.671875" stop-color="#FF8B59"/>
<stop offset="1" stop-color="#FF3F15"/>
</radialGradient>
<radialGradient id="paint1_radial" cx="0" cy="0" r="1" gradientUnits="userSpaceOnUse" gradientTransform="translate(12.0001 11.9999) rotate(90) scale(7.55189 8.14705)">
<stop offset="0.827589" stop-color="#F4F5F9"/>
<stop offset="1" stop-color="#D5DAEC"/>
</radialGradient>
<radialGradient id="paint2_radial" cx="0" cy="0" r="1" gradientUnits="userSpaceOnUse" gradientTransform="translate(12.0001 11.9999) rotate(90) scale(7.55189 8.14705)">
<stop offset="0.827589" stop-color="#F4F5F9"/>
<stop offset="1" stop-color="#D5DAEC"/>
</radialGradient>
<radialGradient id="paint3_radial" cx="0" cy="0" r="1" gradientUnits="userSpaceOnUse" gradientTransform="translate(12.0001 11.9999) rotate(90) scale(7.55189 8.14705)">
<stop offset="0.827589" stop-color="#F4F5F9"/>
<stop offset="1" stop-color="#D5DAEC"/>
</radialGradient>
<radialGradient id="paint4_radial" cx="0" cy="0" r="1" gradientUnits="userSpaceOnUse" gradientTransform="translate(12.0001 11.9999) rotate(90) scale(7.55189 8.14705)">
<stop offset="0.827589" stop-color="#F4F5F9"/>
<stop offset="1" stop-color="#D5DAEC"/>
</radialGradient>
</defs>
</svg>
