<svg xmlns="http://www.w3.org/2000/svg" width="24" height="24" fill="none"><path fill="#44474E" d="M17.42 18.347a.568.568 0 00.813 0 .573.573 0 000-.814L6.34 5.646a.58.58 0 00-.82 0 .583.583 0 000 .813l11.9 11.888zM11.883 6.049c-1.196 0-2.29.198-3.295.526l1.49 1.497a7.079 7.079 0 011.805-.239c4.101 0 7.212 3.473 7.212 4.245 0 .5-.916 1.702-2.406 2.694l1.373 1.38c2.106-1.435 3.316-3.28 3.316-4.074 0-1.401-3.726-6.03-9.495-6.03zm0 12.065c1.244 0 2.386-.212 3.418-.553l-1.49-1.497a7.652 7.652 0 01-1.928.26c-4.102 0-7.212-3.316-7.212-4.246 0-.424.964-1.688 2.53-2.714L5.805 7.97c-2.16 1.442-3.411 3.301-3.411 4.108 0 1.402 3.807 6.036 9.488 6.036zm3.206-5.079c.116-.294.184-.622.184-.964a3.362 3.362 0 00-3.383-3.37c-.342 0-.663.055-.964.171l4.163 4.163zm-3.206 2.42c.383 0 .745-.075 1.073-.212l-4.238-4.238a2.632 2.632 0 00-.219 1.073 3.39 3.39 0 003.384 3.377z"/></svg>