<svg viewBox="0 0 24 24" fill="none" xmlns="http://www.w3.org/2000/svg"><path fill-rule="evenodd" clip-rule="evenodd" d="M8.97 11.97a.75.75 0 011.06 0l2.5 2.5a.75.75 0 010 1.06l-2.5 2.5a.75.75 0 11-1.06-1.06l1.22-1.22H3a.75.75 0 010-1.5h7.19l-1.22-1.22a.75.75 0 010-1.06z" fill="#44474E"/><path fill-rule="evenodd" clip-rule="evenodd" d="M18.626 20.57H5.366c-1.627 0-2.498-.864-2.498-2.482v-1.194h1.677v1.01c0 .667.337.99.974.99h12.807c.63 0 .974-.323.974-.982v-7.268H4.545v2.25H2.868v-6.44C2.868 4.857 3.739 4 5.182 4h2.16c.806 0 1.187.14 1.73.571l.395.323c.133.106.256.237.38.368.276.294.55.587.93.587h7.703c1.625 0 2.497.871 2.497 2.483v9.756c0 1.611-.864 2.483-2.351 2.483zM5.512 5.67c-.616 0-.967.337-.967.967v2.332H19.3v-.454c0-.667-.344-.99-.974-.99H10.33c-.604 0-.978-.355-1.353-.713a5.724 5.724 0 00-.383-.344L8.2 6.153c-.447-.359-.77-.483-1.311-.483H5.512z" fill="#44474E"/></svg>