<svg xmlns="http://www.w3.org/2000/svg" width="24" height="24" fill="none"><path fill="#44474E" d="M11.996 21C16.928 21 21 16.928 21 12.004 21 7.072 16.92 3 11.987 3 7.063 3 3 7.072 3 12.004 3 16.93 7.072 21 11.996 21zm0-1.8a7.168 7.168 0 01-7.186-7.196 7.167 7.167 0 017.177-7.203 7.197 7.197 0 017.212 7.203c.009 3.985-3.21 7.195-7.203 7.195zm-.192-5.482c.479 0 .783-.27.81-.626 0-.035.008-.079.008-.105.026-.452.34-.748.896-1.113.861-.566 1.41-1.07 1.41-2.07 0-1.445-1.306-2.28-2.854-2.28-1.488 0-2.497.679-2.775 1.496a1.37 1.37 0 00-.079.461c0 .418.322.679.731.679.505 0 .627-.261.888-.557.278-.435.652-.687 1.157-.687.696 0 1.14.391 1.14.974 0 .531-.366.818-1.106 1.331-.617.427-1.06.87-1.06 1.653v.096c0 .496.295.748.834.748zm-.017 2.68c.565 0 1.026-.41 1.026-.966 0-.548-.452-.957-1.026-.957-.566 0-1.027.409-1.027.957s.47.966 1.027.966z"/></svg>