<svg xmlns="http://www.w3.org/2000/svg" fill="none"><path fill="#44474E" d="M11.266 11.094c.25 0 .46-.078.609-.242l3.203-3.235a.87.87 0 00.281-.656.898.898 0 00-.28-.649l-3.196-3.257a.813.813 0 00-.617-.258c-.485 0-.86.398-.86.89 0 .243.086.43.242.594l1.696 1.664a7.705 7.705 0 00-.946-.062c-3.89 0-7 3.11-7 7.023a7.041 7.041 0 007.047 7.055 7.035 7.035 0 007.047-7.055c0-.547-.375-.922-.906-.922-.516 0-.875.375-.875.922a5.254 5.254 0 01-5.266 5.266 5.252 5.252 0 01-5.258-5.266c0-2.96 2.305-5.297 5.211-5.297.446 0 .852.032 1.211.086l-1.96 1.938a.811.811 0 00-.243.586c0 .492.375.875.86.875z"/></svg>