<svg xmlns="http://www.w3.org/2000/svg" fill="none" viewBox="0 0 24 24"><path fill="#B9BABD" d="M14.53 11.97a.749.749 0 00-1.06 0L12 13.44l-1.47-1.47a.749.749 0 10-1.06 1.06l1.47 1.47-1.47 1.47a.749.749 0 101.06 1.06L12 15.56l1.47 1.47a.749.749 0 101.06-1.06l-1.47-1.47 1.47-1.47a.749.749 0 000-1.06z"/><path fill="#B9BABD" fill-rule="evenodd" d="M18.758 20.57H5.498C3.872 20.57 3 19.707 3 18.089V6.454C3 4.857 3.872 4 5.314 4h2.161c.806 0 1.187.14 1.729.571l.395.323c.133.106.256.237.38.368.276.294.551.587.931.587h7.702c1.626 0 2.497.871 2.497 2.483v9.756c0 1.611-.864 2.483-2.35 2.483zM5.644 5.67c-.615 0-.967.337-.967.967v2.332h14.755v-.454c0-.667-.344-.99-.974-.99h-7.995c-.604 0-.978-.355-1.352-.713-.125-.119-.25-.238-.383-.344l-.396-.315c-.447-.359-.769-.483-1.311-.483H5.644zm-.967 12.235c0 .666.337.989.974.989h12.807c.63 0 .974-.323.974-.982v-7.268H4.677v7.26z" clip-rule="evenodd"/></svg>