<svg xmlns="http://www.w3.org/2000/svg" width="24" height="24" fill="none"><path fill="#44474E" d="M12.619 3.256a.875.875 0 00-1.238 0L8.996 5.642a.874.874 0 101.237 1.237l.892-.892v7.15a.876.876 0 001.75.001v-7.15l.892.891a.874.874 0 101.237-1.237L12.62 3.256z"/><path fill="#44474E" d="M16.375 9.638h-1.75v-1.75h1.75A2.625 2.625 0 0119 10.513v7a2.625 2.625 0 01-2.625 2.625h-8.75A2.625 2.625 0 015 17.513v-7a2.625 2.625 0 012.625-2.625h1.75v1.75h-1.75a.875.875 0 00-.875.875v7c0 .483.392.875.875.875h8.75a.875.875 0 00.875-.875v-7a.875.875 0 00-.875-.875z"/></svg>