<svg xmlns="http://www.w3.org/2000/svg" width="24" height="24" fill="none"><path fill="#44474E" d="M11.883 18.114c5.77 0 9.495-4.635 9.495-6.036 0-1.401-3.733-6.03-9.495-6.03-5.674 0-9.488 4.629-9.488 6.03 0 1.402 3.807 6.036 9.488 6.036zm0-1.79c-4.102 0-7.212-3.316-7.212-4.246 0-.772 3.11-4.245 7.212-4.245 4.095 0 7.212 3.473 7.212 4.245 0 .93-3.117 4.245-7.212 4.245zm.007-.869a3.39 3.39 0 003.383-3.377 3.363 3.363 0 00-3.383-3.377c-1.887 0-3.398 1.49-3.391 3.377a3.396 3.396 0 003.39 3.377zm-.007-2.351a1.033 1.033 0 01-1.026-1.026c0-.56.458-1.025 1.026-1.025.567 0 1.025.465 1.025 1.025 0 .554-.458 1.026-1.025 1.026z"/></svg>