<svg xmlns="http://www.w3.org/2000/svg" width="24" height="24" fill="none"><path fill="#44474E" fill-rule="evenodd" d="M16.534 7.859l-.238 5.206 1.766 1.558.31-6.764h.72c.525 0 .908-.376.908-.892 0-.509-.383-.877-.908-.877h-3.301v-.86c0-1.346-.955-2.23-2.52-2.23h-2.55C9.164 3 8.2 3.884 8.2 5.23v.692l2.195 1.937h6.138zm-6.47-2.574c0-.407.305-.689.75-.689h2.371c.446 0 .743.282.751.689l.008.805h-3.896l.015-.805zm2.558 4.538l-.849-.75a.582.582 0 01.23-.049c.337 0 .619.313.619.689v.11zm-6.94-.79l.454 9.897c.062 1.361.892 2.096 2.253 2.096h7.222c1.088 0 1.836-.47 2.124-1.357l-1.673-1.476-.013.29c-.016.47-.274.744-.689.744H8.64c-.407 0-.665-.282-.689-.743l-.36-7.766-1.91-1.685zm3.251 2.87l1.27 1.12.134 4.373c.016.391-.258.704-.618.704-.344 0-.61-.29-.618-.688l-.168-5.51zm3.689 3.254l-1.244-1.097v3.352c0 .375.282.688.626.688.336 0 .618-.313.618-.688v-2.255zm1.04 2.24l.04-1.287 1.212 1.07-.008.232c-.015.399-.273.688-.625.688-.353 0-.626-.313-.619-.704zm1.41-5.412l-1.211-1.07.036-1.202c.016-.376.29-.689.634-.689.352 0 .618.306.61.697l-.069 2.264zM4.494 4.435a.75.75 0 00-.988 1.129l16 14a.75.75 0 10.988-1.128l-16-14z" clip-rule="evenodd"/></svg>