<svg xmlns="http://www.w3.org/2000/svg" width="24" height="24" fill="none"><path fill="#D0D1D3" fill-rule="evenodd" d="M12 12a6 6 0 100-12 6 6 0 000 12zm-6 2a5 5 0 00-5 5v4a1 1 0 001 1h20a1 1 0 001-1v-4a5 5 0 00-5-5H6z" clip-rule="evenodd"/><mask id="a" width="22" height="24" x="1" y="0" maskUnits="userSpaceOnUse"><path fill="url(#paint0_linear)" fill-rule="evenodd" d="M12 12a6 6 0 100-12 6 6 0 000 12zm-6 2a5 5 0 00-5 5v4a1 1 0 001 1h20a1 1 0 001-1v-4a5 5 0 00-5-5H6z" clip-rule="evenodd"/></mask><g mask="url(#a)"><path fill="#fff" d="M-4-6h16v33H-4z" opacity=".2"/></g><defs><linearGradient id="paint0_linear" x1="12.081" x2="12.081" y1="0" y2="24.444" gradientUnits="userSpaceOnUse"><stop stop-color="#F7AD00"/><stop offset="1" stop-color="#FF8B00"/></linearGradient></defs></svg>