<svg width="24" height="22" viewBox="0 0 24 22" fill="none" xmlns="http://www.w3.org/2000/svg">
  <path fill-rule="evenodd" clip-rule="evenodd" d="M20.8279 21.3788H3.46959C1.75477 21.3788 0.648438 20.1329 0.648438 18.6054C0.648438 18.1504 0.781197 17.6954 1.02459 17.2513L9.7093 2.04124C10.2403 1.09874 11.2028 0.62207 12.1543 0.62207C13.1057 0.62207 14.0572 1.09874 14.5882 2.04124L23.284 17.2513C23.5274 17.6846 23.6491 18.1504 23.6491 18.6054C23.6491 20.1329 22.5428 21.3788 20.8279 21.3788ZM13.3067 12.8729C13.2845 13.6824 12.8996 14.154 12.1522 14.154C11.3973 14.154 11.0198 13.6824 10.9976 12.8729L10.857 7.98455C10.857 7.91841 10.8549 7.84793 10.853 7.78111C10.8512 7.72087 10.8496 7.6636 10.8496 7.61517C10.8496 6.74281 11.338 6.23196 12.1596 6.23196C12.9737 6.23196 13.4547 6.74281 13.4547 7.61517C13.4547 7.71734 13.4473 7.8588 13.4399 7.98455L13.3067 12.8729ZM13.5509 16.5981C13.5509 17.3919 12.9219 18.0128 12.1522 18.0128C11.3751 18.0128 10.746 17.3919 10.746 16.5981C10.746 15.8122 11.3751 15.1914 12.1522 15.1914C12.9219 15.1914 13.5509 15.8122 13.5509 16.5981Z" fill="white"/>
</svg>
