<svg width="32" height="32" fill="none" xmlns="http://www.w3.org/2000/svg">
    <path fill-rule="evenodd" clip-rule="evenodd" d="M16 32c8.837 0 16-7.163 16-16S24.837 0 16 0 0 7.163 0 16s7.163 16 16 16z" fill="#F0F2F5"/>
    <path d="M15.212 21.81c0 .408.355.783.788.778.429 0 .789-.37.789-.779l-.005-5.02h5.026c.418 0 .779-.36.779-.79-.01-.428-.36-.788-.784-.783l-5.021-.005v-5.016A.79.79 0 0 0 16 9.412c-.428.01-.788.36-.788.778v5.026l-5.021-.005c-.409 0-.788.36-.779.789 0 .428.37.788.779.788l5.021-.005v5.026z" fill="#44474E"/>
</svg>
