<svg xmlns="http://www.w3.org/2000/svg" viewBox="0 0 32 32" fill="none"><path fill="#AB98FE" d="M0 12c0-3.771 0-5.657 1.172-6.828C2.343 4 4.229 4 8 4h16c3.771 0 5.657 0 6.828 1.172C32 6.343 32 8.229 32 12v8c0 3.771 0 5.657-1.172 6.828C29.657 28 27.771 28 24 28H8c-3.771 0-5.657 0-6.828-1.172C0 25.657 0 23.771 0 20v-8z"/><path fill="#151922" d="M0 20.6v1c0 2.24 0 3.36.436 4.216a3.996 3.996 0 001.748 1.748C3.04 28 4.16 28 6.4 28h19.2c2.24 0 3.36 0 4.216-.436a4.001 4.001 0 001.748-1.748C32 24.96 32 23.84 32 21.6v-1c0 2.24 0 3.36-.436 4.216a4.001 4.001 0 01-1.748 1.748C28.96 27 27.84 27 25.6 27H6.4c-2.24 0-3.36 0-4.216-.436a3.996 3.996 0 01-1.748-1.748C0 23.96 0 22.84 0 20.6z" opacity=".14"/><g filter="url(#filter0_d)"><path fill="#fff" d="M3 22a1 1 0 011-1h3a1 1 0 010 2H4a1 1 0 01-1-1z"/></g><g filter="url(#filter1_d)"><path fill="#fff" d="M10 22a1 1 0 011-1h3a1 1 0 010 2h-3a1 1 0 01-1-1z"/></g><g filter="url(#filter2_d)"><path fill="#fff" d="M17 22a1 1 0 011-1h3a1 1 0 010 2h-3a1 1 0 01-1-1z"/></g><g filter="url(#filter3_d)"><path fill="#fff" d="M24 22a1 1 0 011-1h3a1 1 0 010 2h-3a1 1 0 01-1-1z"/></g><path fill="#151922" d="M3 17.5v-3a1 1 0 011-1h3.586c.265 0 .52.105.707.293l1.414 1.414a1 1 0 01.293.707V17.5a1 1 0 01-1 1H4a1 1 0 01-1-1z" opacity=".15"/><path fill="#fff" d="M3 16.75v-2.5c0-.69.56-1.25 1.25-1.25h3.232c.332 0 .65.132.884.366l1.268 1.268c.234.234.366.552.366.884v1.232c0 .69-.56 1.25-1.25 1.25h-4.5C3.56 18 3 17.44 3 16.75z"/><g fill="#151922" opacity=".15"><path d="M22 14.5a3 3 0 100-6 3 3 0 000 6z"/><path d="M26 11.5a3.99 3.99 0 01-1.125 2.782A3.002 3.002 0 0029 11.5a3 3 0 00-4.125-2.782A3.997 3.997 0 0126 11.5z"/></g><path fill="#fff" d="M22 14a3 3 0 100-6 3 3 0 000 6z"/><path fill="#fff" d="M26 11a3.99 3.99 0 01-1.125 2.782A3.002 3.002 0 0029 11a3 3 0 00-4.125-2.782A3.997 3.997 0 0126 11z"/><defs><filter id="filter0_d" width="5" height="2.5" x="3" y="21" color-interpolation-filters="sRGB" filterUnits="userSpaceOnUse"><feFlood flood-opacity="0" result="BackgroundImageFix"/><feColorMatrix in="SourceAlpha" values="0 0 0 0 0 0 0 0 0 0 0 0 0 0 0 0 0 0 127 0"/><feOffset dy=".5"/><feColorMatrix values="0 0 0 0 0 0 0 0 0 0 0 0 0 0 0 0 0 0 0.15 0"/><feBlend in2="BackgroundImageFix" result="effect1_dropShadow"/><feBlend in="SourceGraphic" in2="effect1_dropShadow" result="shape"/></filter><filter id="filter1_d" width="5" height="2.5" x="10" y="21" color-interpolation-filters="sRGB" filterUnits="userSpaceOnUse"><feFlood flood-opacity="0" result="BackgroundImageFix"/><feColorMatrix in="SourceAlpha" values="0 0 0 0 0 0 0 0 0 0 0 0 0 0 0 0 0 0 127 0"/><feOffset dy=".5"/><feColorMatrix values="0 0 0 0 0 0 0 0 0 0 0 0 0 0 0 0 0 0 0.15 0"/><feBlend in2="BackgroundImageFix" result="effect1_dropShadow"/><feBlend in="SourceGraphic" in2="effect1_dropShadow" result="shape"/></filter><filter id="filter2_d" width="5" height="2.5" x="17" y="21" color-interpolation-filters="sRGB" filterUnits="userSpaceOnUse"><feFlood flood-opacity="0" result="BackgroundImageFix"/><feColorMatrix in="SourceAlpha" values="0 0 0 0 0 0 0 0 0 0 0 0 0 0 0 0 0 0 127 0"/><feOffset dy=".5"/><feColorMatrix values="0 0 0 0 0 0 0 0 0 0 0 0 0 0 0 0 0 0 0.15 0"/><feBlend in2="BackgroundImageFix" result="effect1_dropShadow"/><feBlend in="SourceGraphic" in2="effect1_dropShadow" result="shape"/></filter><filter id="filter3_d" width="5" height="2.5" x="24" y="21" color-interpolation-filters="sRGB" filterUnits="userSpaceOnUse"><feFlood flood-opacity="0" result="BackgroundImageFix"/><feColorMatrix in="SourceAlpha" values="0 0 0 0 0 0 0 0 0 0 0 0 0 0 0 0 0 0 127 0"/><feOffset dy=".5"/><feColorMatrix values="0 0 0 0 0 0 0 0 0 0 0 0 0 0 0 0 0 0 0.15 0"/><feBlend in2="BackgroundImageFix" result="effect1_dropShadow"/><feBlend in="SourceGraphic" in2="effect1_dropShadow" result="shape"/></filter></defs></svg>
