<svg xmlns="http://www.w3.org/2000/svg" width="32" height="32" fill="none" viewBox="0 0 32 32">
    <g fill="#B9BABD" clip-path="url(#clip0)">
        <path d="M19.948 17.934c.63 0 1.028-.462 1.028-1.143v-4.534c0-.86-.475-1.246-1.272-1.246h-4.56c-.68 0-1.117.398-1.117 1.027 0 .63.449 1.04 1.13 1.04h.81l1.721-.205-1.862 1.708-4.43 4.43c-.218.205-.36.5-.36.796 0 .668.463 1.104 1.105 1.104.334 0 .616-.115.848-.346l4.417-4.418 1.682-1.836-.18 1.81v.683c0 .694.411 1.13 1.04 1.13z"/>
        <path fill-rule="evenodd" d="M5.333 9.333c0-2.21 1.791-4 4-4h13.334c2.209 0 4 1.79 4 4v13.333c0 2.21-1.791 4-4 4H9.333c-2.209 0-4-1.79-4-4V9.333zm4-1.333h13.334C23.403 8 24 8.597 24 9.333v13.333c0 .737-.597 1.334-1.333 1.334H9.333C8.597 24 8 23.403 8 22.666V9.333C8 8.597 8.597 8 9.333 8z" clip-rule="evenodd"/>
    </g>
    <defs>
        <clipPath id="clip0">
            <path fill="#fff" d="M0 0H32V32H0z"/>
        </clipPath>
    </defs>
</svg>
