<svg xmlns="http://www.w3.org/2000/svg" width="32" height="33" fill="none"><g clip-path="url(#clip0)"><path fill="url(#paint0_linear)" d="M16 32.5c8.837 0 16-7.163 16-16S24.837.5 16 .5 0 7.663 0 16.5s7.163 16 16 16z"/><g filter="url(#filter0_di)"><path fill="url(#paint1_linear)" d="M6.824 23.158A11.287 11.287 0 014.667 16.5a11.286 11.286 0 013.31-8.023A11.29 11.29 0 0116 5.167 11.3 11.3 0 0127.333 16.5c0 2.505-.8 4.775-2.157 6.658l-5.422-8.783-.566.921.566 2.48L16 11.328l-2.267 3.896.496 2.479-1.984-3.329-5.421 8.782z"/></g></g><defs><linearGradient id="paint0_linear" x1="16" x2="16" y1="-2.472" y2="26.509" gradientUnits="userSpaceOnUse"><stop stop-color="#B7B0F5"/><stop offset="1" stop-color="#7F7AEE"/></linearGradient><linearGradient id="paint1_linear" x1="16" x2="16" y1="23.158" y2="5.167" gradientUnits="userSpaceOnUse"><stop stop-color="#fff" stop-opacity=".7"/><stop offset="1" stop-color="#fff"/></linearGradient><clipPath id="clip0"><path fill="#fff" d="M0 0h32v32H0z" transform="translate(0 .5)"/></clipPath><filter id="filter0_di" width="30.667" height="25.991" x=".667" y="5.167" color-interpolation-filters="sRGB" filterUnits="userSpaceOnUse"><feFlood flood-opacity="0" result="BackgroundImageFix"/><feColorMatrix in="SourceAlpha" values="0 0 0 0 0 0 0 0 0 0 0 0 0 0 0 0 0 0 127 0"/><feOffset dy="4"/><feGaussianBlur stdDeviation="2"/><feColorMatrix values="0 0 0 0 0 0 0 0 0 0 0 0 0 0 0 0 0 0 0.1 0"/><feBlend in2="BackgroundImageFix" result="effect1_dropShadow"/><feBlend in="SourceGraphic" in2="effect1_dropShadow" result="shape"/><feColorMatrix in="SourceAlpha" result="hardAlpha" values="0 0 0 0 0 0 0 0 0 0 0 0 0 0 0 0 0 0 127 0"/><feOffset/><feGaussianBlur stdDeviation=".5"/><feComposite in2="hardAlpha" k2="-1" k3="1" operator="arithmetic"/><feColorMatrix values="0 0 0 0 1 0 0 0 0 1 0 0 0 0 1 0 0 0 0.25 0"/><feBlend in2="shape" result="effect2_innerShadow"/></filter></defs></svg>