<svg xmlns="http://www.w3.org/2000/svg" width="32" height="32" fill="none"><path fill="#4A8AFC" d="M16 32c8.837 0 16-7.163 16-16S24.837 0 16 0 0 7.163 0 16s7.163 16 16 16z"/><g fill-rule="evenodd" clip-rule="evenodd" filter="url(#filter0_d)"><path fill="#fff" d="M6.284 22.667A11.555 11.555 0 014 15.762C4 9.266 9.373 4 16 4s12 5.266 12 11.762c0 2.58-.847 4.966-2.284 6.905l-5.764-9.174-.556.92.564 2.563L16 10.334l-2.45 4.054.57 2.588-2.076-3.478-5.76 9.169z"/><path fill="url(#paint0_linear)" fill-opacity=".1" d="M6.284 22.667A11.555 11.555 0 014 15.762C4 9.266 9.373 4 16 4s12 5.266 12 11.762c0 2.58-.847 4.966-2.284 6.905l-5.764-9.174-.556.92.564 2.563L16 10.334l-2.45 4.054.57 2.588-2.076-3.478-5.76 9.169z"/></g><defs><linearGradient id="paint0_linear" x1="4" x2="4" y1="4" y2="22.667" gradientUnits="userSpaceOnUse"><stop stop-opacity=".01"/><stop offset="1"/></linearGradient><filter id="filter0_d" width="24" height="19.167" x="4" y="4" color-interpolation-filters="sRGB" filterUnits="userSpaceOnUse"><feFlood flood-opacity="0" result="BackgroundImageFix"/><feColorMatrix in="SourceAlpha" values="0 0 0 0 0 0 0 0 0 0 0 0 0 0 0 0 0 0 127 0"/><feOffset dy=".5"/><feColorMatrix values="0 0 0 0 0 0 0 0 0 0 0 0 0 0 0 0 0 0 0.15 0"/><feBlend in2="BackgroundImageFix" result="effect1_dropShadow"/><feBlend in="SourceGraphic" in2="effect1_dropShadow" result="shape"/></filter></defs></svg>