<svg xmlns="http://www.w3.org/2000/svg" width="32" height="32" fill="none"><path fill="#9ABDE8" d="M5.125 5.186C6.043 5 7.247 5 9 5h14c1.753 0 2.957 0 3.875.186a3.418 3.418 0 00-.311-1.002 4.001 4.001 0 00-1.748-1.748C23.96 2 22.84 2 20.6 2h-9.2c-2.24 0-3.36 0-4.216.436a3.991 3.991 0 00-1.748 1.748 3.36 3.36 0 00-.311 1.002zM2 12.4c0-2.24 0-3.36.436-4.216a3.991 3.991 0 011.748-1.748C5.04 6 6.16 6 8.4 6h15.2c2.24 0 3.36 0 4.216.436a3.996 3.996 0 011.748 1.748C30 9.04 30 10.16 30 12.4v11.2c0 2.24 0 3.36-.436 4.216a4.001 4.001 0 01-1.748 1.748C26.96 30 25.84 30 23.6 30H8.4c-2.24 0-3.36 0-4.216-.436a3.996 3.996 0 01-1.748-1.748C2 26.96 2 25.84 2 23.6V12.4z"/><path fill="#78A1D2" fill-rule="evenodd" d="M30 22.6c0 2.24 0 3.36-.436 4.216a3.996 3.996 0 01-1.748 1.748C26.96 29 25.84 29 23.6 29H8.4c-2.24 0-3.36 0-4.216-.436a3.991 3.991 0 01-1.748-1.748C2 25.96 2 24.84 2 22.6v1c0 2.24 0 3.36.436 4.216a3.991 3.991 0 001.748 1.748C5.04 30 6.16 30 8.4 30h15.2c2.24 0 3.36 0 4.216-.436a3.996 3.996 0 001.748-1.748C30 26.96 30 25.84 30 23.6v-1z" clip-rule="evenodd"/><path fill="#78A1D2" d="M16.008 17.821c1.563 0 2.828-1.39 2.828-3.2 0-1.73-1.28-3.121-2.828-3.121-1.54 0-2.836 1.398-2.821 3.13 0 1.801 1.265 3.191 2.82 3.191zm-4.72 6.679h9.424c.892 0 1.288-.264 1.288-.9 0-1.872-2.302-4.458-6-4.458s-6 2.586-6 4.457c0 .637.396.901 1.288.901z"/><path fill="#fff" d="M16.008 17.321c1.563 0 2.828-1.39 2.828-3.2 0-1.73-1.28-3.121-2.828-3.121-1.54 0-2.836 1.398-2.821 3.13 0 1.801 1.265 3.191 2.82 3.191zM11.288 24h9.424c.892 0 1.288-.264 1.288-.9 0-1.872-2.302-4.458-6-4.458s-6 2.586-6 4.457c0 .637.396.901 1.288.901z"/><circle cx="24.5" cy="7.5" r="7" fill="#F0F2F5" stroke="#282D34"/><path fill="#282D34" d="M24 4h1v7h-1z"/><path fill="#282D34" d="M21 8V7h7v1z"/></svg>