<svg xmlns="http://www.w3.org/2000/svg" fill="none" viewBox="0 0 32 32"><path fill="#fff" d="M0 8.279v16.104a4.276 4.276 0 004.207 4.283h23.587C30.122 28.634 32 26.728 32 24.383V8.28c0-1.316-1.49-2.073-2.546-1.295L16 16.888 2.546 6.984C1.49 6.206 0 6.964 0 8.279z" opacity=".5"/><path fill="#fff" d="M4.266 28.667h23.467c1.352 0 2.557-.63 3.338-1.615L17.377 4.137c-.615-1.071-2.403-1.07-3.018 0L.929 27.053a4.251 4.251 0 003.337 1.615z" opacity=".5"/><path fill="#fff" d="M4.228 28.667a4.242 4.242 0 01-2.78-1.067l14.55-10.711L30.55 27.6a4.247 4.247 0 01-2.78 1.067H4.228z"/></svg>