<svg xmlns="http://www.w3.org/2000/svg" viewBox="0 0 32 32" fill="none"><path fill="#F3C638" fill-rule="evenodd" d="M7 9.333h18a4 4 0 014 4V28c0 2.21-1.79 4-4 4H7c-2.21 0-4-1.79-4-4V13.333a4 4 0 014-4z" clip-rule="evenodd"/><mask id="a" width="26" height="32" x="3" y="0" maskUnits="userSpaceOnUse"><path fill="#fff" d="M7 0h11.379c.18 0 .352.073.478.202l9.954 10.233A.668.668 0 0129 10.9v16.3c0 2.21-1.79 4-4 4H7c-2.21 0-4-1.79-4-4V4c0-2.21 1.79-4 4-4z"/></mask><g mask="url(#a)"><path fill="#FFE68C" d="M7 0h11.379c.18 0 .352.073.478.2l9.954 10.168c.121.124.189.29.189.462v16.196C29 29.22 27.21 31 25 31H7c-2.21 0-4-1.78-4-3.974V3.974C3 1.78 4.79 0 7 0z"/><path fill="#F3C638" d="M44-20H22c-2.21 0-4 1.79-4 4V8c0 2.21 1.79 4 4 4h22c2.21 0 4-1.79 4-4v-24c0-2.21-1.79-4-4-4z"/><path fill="#FDEBAB" d="M43.133-20H21.867C19.73-20 18-18.22 18-16.026V7.026C18 9.22 19.731 11 21.867 11h21.266C45.27 11 47 9.22 47 7.026v-23.052C47-18.22 45.269-20 43.133-20z"/><path fill="#151922" d="M16.5 15h-7a.5.5 0 000 1h7a.5.5 0 000-1zm6 3h-13a.5.5 0 000 1h13a.5.5 0 000-1zm0 3h-13a.5.5 0 000 1h13a.5.5 0 000-1zm0 3h-13a.5.5 0 000 1h13a.5.5 0 000-1z" opacity=".6"/></g></svg>
