<svg xmlns="http://www.w3.org/2000/svg" fill="none" viewBox="0 0 32 32"><path fill="#0CAAA8" d="M1.034 12.195c.421.162.959-.03 1.162-.59 2.338-6.644 7.93-9.951 13.607-9.951 2.586 0 4.619.531 6.347 1.535.494.295 1.046.295 1.263-.192.233-.517-.029-.841-.392-1.078C20.814.517 18.577 0 15.803 0 9.24 0 3.285 3.558.614 10.793c-.276.738 0 1.254.421 1.402zm30.207 5.36c.465 0 .799-.384.755-.901-.653-6.01-2.6-9.803-5.954-12.786-.421-.384-.93-.266-1.176.03-.276.31-.305.797.13 1.196 2.861 2.716 4.938 6.23 5.432 11.59.058.486.348.87.813.87zm-27.883 7.72a.827.827 0 001.234.133c1.046-.9 1.569-2.348 1.569-3.854 0-2.037-.872-3.07-.872-5.61 0-5.787 4.735-10.6 10.427-10.6 6.87 0 11.299 5.713 11.313 14.143 0 3.293-.537 5.626-1.074 6.97-.189.457-.015.944.363 1.15.406.178.973.03 1.147-.457.567-1.565 1.191-4.134 1.191-7.677 0-9.405-5.097-15.783-12.94-15.783-6.593 0-12.053 5.566-12.053 12.254 0 2.421.9 4.06.915 5.596 0 1.004-.363 1.963-1.046 2.569-.349.295-.407.826-.174 1.166zm6.535-5.256c-.363-1.004-.959-2.274-.959-3.986 0-3.927 3.007-6.984 6.87-6.984 1.48 0 1.946.163 3.238.798.45.206.857.073 1.017-.251.217-.414.101-.916-.393-1.211-.958-.576-2.425-1.004-3.863-1.004-4.763 0-8.51 3.81-8.51 8.652 0 1.86.494 3.366 1.002 4.62.204.488.64.724 1.162.503.436-.177.596-.65.436-1.137zm11.43-8.194c1.408 2.082 2.105 4.96 2.105 8.445 0 3.72-1.017 7.234-2.6 9.242-.261.355-.29.857.03 1.181.348.325.943.31 1.234-.088 1.772-2.436 2.933-6.305 2.933-10.394 0-4.474-.944-7.131-2.265-9.272-.305-.472-.813-.62-1.22-.399-.421.237-.552.783-.218 1.285zM9.834 29.971c2.381-1.949 3.688-5.05 3.674-8.49-.014-2.598-.93-4.207-.93-5.625 0-1.86 1.293-3.1 3.181-3.1 2.905 0 3.848 3.366 3.936 7.353.13 4.606-1.51 8.504-3.66 10.423-.349.295-.421.753-.189 1.122a.801.801 0 001.22.118c2.265-2.096 4.183-6.703 4.154-11.781-.015-4.961-1.395-8.889-5.461-8.889-2.701 0-4.778 1.831-4.778 4.607 0 1.668.871 3.72.886 5.773.014 2.923-1.06 5.55-3.05 7.19-.392.325-.45.797-.203 1.166.305.428.828.473 1.22.133zm-8.162-8.977c.421-.133.625-.575.508-1.077-.363-1.492-.58-3.071-.508-5.138.015-.546-.276-.842-.711-.871-.567-.045-.872.31-.915.767-.131 1.669 0 3.662.566 5.714.145.502.61.753 1.06.605zm15.51 2.053c.407-1.994.247-4.548-.465-6.762-.188-.547-.61-.783-1.06-.635-.42.147-.682.546-.522 1.063.668 2.14.784 4.252.45 6.112-.087.443.087.871.595.945.465.089.9-.192 1.002-.723zM6.785 28.022c1.075-.561 2.541-2.48 2.948-4.001.116-.413-.072-.915-.523-1.063-.406-.148-.842.103-1.002.576-.392 1.3-1.074 2.274-2.15 3.012-.522.369-.595.826-.435 1.166.175.37.64.576 1.162.31zm6.448 3.13c1.147-.841 2.57-2.776 3.122-4.665.102-.325.03-.871-.435-1.034-.494-.177-.915.074-1.046.458-.74 1.978-1.655 3.145-2.629 3.912-.362.296-.464.783-.217 1.167.232.413.798.472 1.205.162z"/></svg>