<svg xmlns="http://www.w3.org/2000/svg" width="31" height="31"><path fill="#44474E" d="M17.214 22.663a3.547 3.547 0 11-4.744 5.017l-.11-.179.867-.498a2.547 2.547 0 103.637-3.38l-.152-.095.502-.865zM30.322 1l.707.707-4.955 4.955a21.865 21.865 0 014.478 3.317l.324.318-.708.707a20.87 20.87 0 00-4.83-3.606l-6.196 6.195a12.657 12.657 0 015.013 2.918l.257.25-.708.707a11.657 11.657 0 00-5.373-3.063l-14.73 14.73-.707-.706 14.26-14.26a11.785 11.785 0 00-1.716-.125c-3.027 0-5.87 1.155-8.022 3.186l-.245.238-.707-.707a12.65 12.65 0 018.974-3.717c.877 0 1.74.09 2.578.262L24.4 6.922a20.779 20.779 0 00-8.963-2.02 20.753 20.753 0 00-14.413 5.79l-.318.312L0 10.297A21.757 21.757 0 0115.438 3.9c3.434 0 6.742.797 9.71 2.273L30.323 1z"/></svg>