<svg viewBox="0 0 32 32" fill="none" xmlns="http://www.w3.org/2000/svg">
<path d="M21.9918 21C21.9918 24.3137 19.2915 27 15.9604 27C12.6294 27 9.92904 24.3137 9.92904 21C9.92904 17.6863 12.6294 15 15.9604 15C19.2915 15 21.9918 17.6863 21.9918 21Z" fill="#43A5A1"/>
<path d="M30.44 17.0142C31.5959 16.736 32.3121 15.5632 31.8659 14.4665C30.7609 11.7507 28.924 9.35359 26.5283 7.53336C23.548 5.26887 19.8721 4.02597 16.0797 4.0004C12.2873 3.97484 8.59385 5.16807 5.58104 7.39216C3.15946 9.17979 1.2882 11.5517 0.14398 14.2522C-0.318114 15.3427 0.381778 16.5258 1.53417 16.8198C2.66277 17.1077 3.7982 16.4293 4.29231 15.3797C5.16092 13.5344 6.49074 11.9131 8.17588 10.6691C10.4355 9.00105 13.2056 8.10613 16.0499 8.1253C18.8942 8.14448 21.6511 9.07665 23.8864 10.775C25.5527 12.0411 26.8585 13.6793 27.7004 15.5352C28.18 16.5924 29.3067 17.2871 30.44 17.0142Z" fill="#43A5A1"/>
</svg>
