<svg xmlns="http://www.w3.org/2000/svg" width="72" height="72" fill="none"><circle cx="36" cy="36" r="36" fill="url(#paint0_linear)"/><path fill="#fff" d="M18 27.313V45.43c0 2.639 2.113 4.782 4.732 4.818h26.536c2.62-.036 4.732-2.18 4.732-4.818V27.313c0-1.48-1.675-2.332-2.864-1.457L36 36.998 20.864 25.856C19.675 24.981 18 25.833 18 27.313z" opacity=".5"/><path fill="#fff" d="M22.8 50.25h26.4c1.52 0 2.876-.71 3.755-1.817l-15.406-25.78c-.692-1.204-2.703-1.204-3.396.001l-15.11 25.779a4.789 4.789 0 003.756 1.817z" opacity=".5"/><path fill="#fff" d="M22.755 50.247a4.765 4.765 0 01-3.127-1.2l16.37-12.05 16.37 12.05a4.768 4.768 0 01-3.128 1.2H22.755z"/><defs><linearGradient id="paint0_linear" x1="10.852" x2="91.646" y1="-20.026" y2="12.437" gradientUnits="userSpaceOnUse"><stop stop-color="#6B59F7"/><stop offset="1" stop-color="#C742D8"/></linearGradient></defs></svg>