<svg viewBox="0 0 69 64" fill="none" xmlns="http://www.w3.org/2000/svg">
<g filter="url(#filter0_d)">
<path fill-rule="evenodd" clip-rule="evenodd" d="M57.5415 59.6754H11.2526C6.67971 59.6754 3.72949 56.3531 3.72949 52.2798C3.72949 51.0665 4.08352 49.8531 4.73257 48.6687L27.8918 8.10867C29.3079 5.59533 31.8746 4.32422 34.4118 4.32422C36.949 4.32422 39.4862 5.59533 40.9023 8.10867L64.091 48.6687C64.74 49.8243 65.0646 51.0665 65.0646 52.2798C65.0646 56.3531 62.1143 59.6754 57.5415 59.6754ZM37.4849 36.9932C37.4256 39.1518 36.3994 40.4092 34.4061 40.4092C32.393 40.4092 31.3865 39.1518 31.3273 36.9932L30.9523 23.9575C30.9523 23.7811 30.9468 23.5932 30.9417 23.415C30.937 23.2544 30.9326 23.1016 30.9326 22.9725C30.9326 20.6462 32.2351 19.2839 34.4258 19.2839C36.5967 19.2839 37.8796 20.6462 37.8796 22.9725C37.8796 23.2449 37.8598 23.6222 37.8401 23.9575L37.4849 36.9932ZM38.1361 46.9271C38.1361 49.0438 36.4586 50.6995 34.4061 50.6995C32.3338 50.6995 30.6562 49.0438 30.6562 46.9271C30.6562 44.8313 32.3338 43.1757 34.4061 43.1757C36.4586 43.1757 38.1361 44.8313 38.1361 46.9271Z" fill="#F43F36"/>
</g>
<defs>
<filter id="filter0_d" x="0.729492" y="2.32422" width="67.335" height="61.3516" filterUnits="userSpaceOnUse" color-interpolation-filters="sRGB">
<feFlood flood-opacity="0" result="BackgroundImageFix"/>
<feColorMatrix in="SourceAlpha" type="matrix" values="0 0 0 0 0 0 0 0 0 0 0 0 0 0 0 0 0 0 127 0" result="hardAlpha"/>
<feOffset dy="1"/>
<feGaussianBlur stdDeviation="1.5"/>
<feColorMatrix type="matrix" values="0 0 0 0 0 0 0 0 0 0 0 0 0 0 0 0 0 0 0.3 0"/>
<feBlend mode="normal" in2="BackgroundImageFix" result="effect1_dropShadow"/>
<feBlend mode="normal" in="SourceGraphic" in2="effect1_dropShadow" result="shape"/>
</filter>
</defs>
</svg>
