<svg xmlns="http://www.w3.org/2000/svg" width="64" height="64" fill="none"><path fill="#00C06D" d="M32 64c17.506 0 32-14.494 32-32C64 14.526 49.474 0 31.969 0 14.494 0 0 14.525 0 32c0 17.506 14.525 32 32 32zm-4.298-15.906c-1.067 0-1.914-.47-2.792-1.537l-9.067-11.169c-.47-.596-.753-1.349-.753-2.039 0-1.474 1.161-2.604 2.573-2.604.878 0 1.663.345 2.384 1.318l7.498 9.694 14.588-23.373c.596-.972 1.412-1.443 2.26-1.443 1.38 0 2.697.91 2.697 2.416 0 .69-.408 1.443-.784 2.07l-15.969 25.13c-.69 1.035-1.568 1.537-2.635 1.537z"/></svg>