<svg xmlns="http://www.w3.org/2000/svg" fill="none" viewBox="0 0 64 64"><path fill="#F64F64" fill-rule="evenodd" d="M34.41 63.332c-.865.414-1.762.668-2.393.668-.632 0-1.53-.223-2.393-.668C10.68 53.667 4 48.962 4 37.58V14.212c0-4.102 1.529-5.755 5.251-7.217C12.674 5.659 24.639 1.62 27.962.635 29.225.287 30.721 0 32.017 0c1.262 0 2.791.254 4.054.636 3.29 1.017 15.255 4.991 18.711 6.359C58.472 8.489 60 10.11 60 14.212V37.58c0 11.382-6.447 16.469-25.59 25.752zM20.888 43.105c-1.202-1.2-1.147-3.286-.056-4.377l6.741-6.726-6.74-6.739c-1.092-1.09-1.147-3.176.055-4.364 1.201-1.2 3.287-1.146 4.378-.055l6.728 6.726 6.713-6.712c1.16-1.16 3.191-1.146 4.38.055 1.201 1.188 1.215 3.218.055 4.378l-6.714 6.711 6.714 6.712c1.16 1.16 1.146 3.176-.056 4.378-1.188 1.187-3.218 1.215-4.379.055l-6.713-6.725-6.727 6.739c-1.092 1.09-3.178 1.146-4.38-.056z" clip-rule="evenodd"/></svg>