<svg xmlns="http://www.w3.org/2000/svg" width="64" height="64" fill="none"><path fill="#B9BABD" d="M31.985 64C49.523 64 64 49.523 64 32.016 64 14.476 49.492 0 31.954 0 14.446 0 0 14.477 0 32.016 0 49.523 14.477 64 31.985 64zm-.62-25.581c-2.01 0-3.123-.928-3.123-2.784v-.372c0-2.907 1.67-4.578 3.99-6.155 2.753-1.918 4.083-3 4.083-5.011 0-2.135-1.64-3.588-4.238-3.588-1.887 0-3.34.927-4.3 2.536-.99 1.113-1.422 2.072-3.34 2.072-1.485 0-2.722-.959-2.722-2.536 0-.588.124-1.145.31-1.701.927-3.063 4.794-5.568 10.362-5.568 5.784 0 10.64 3.093 10.64 8.475 0 3.743-2.041 5.6-5.258 7.733-2.072 1.393-3.279 2.475-3.372 4.146 0 .123 0 .247-.03.37-.124 1.33-1.207 2.383-3.001 2.383zm.125 9.589c-2.042 0-3.774-1.454-3.774-3.527 0-2.072 1.701-3.526 3.774-3.526 2.072 0 3.773 1.423 3.773 3.526 0 2.104-1.7 3.527-3.773 3.527z"/></svg>