<svg width="64" height="64" xmlns="http://www.w3.org/2000/svg"><defs><linearGradient x1="50%" y1="0%" x2="50%" y2="100%" id="a"><stop stop-color="#FFEB8B" offset="0%"/><stop stop-color="#EBB439" offset="100%"/></linearGradient></defs><g fill="none" fill-rule="evenodd"><rect fill="url(#a)" width="64" height="64" rx="32"/><path d="M46.255 37.58l3.692-5.142c.732-.996.395-1.933-.806-1.933h-2.095c-.908-7.398-7.368-13.389-15.22-13.389-4.16 0-7.954 1.773-10.62 4.512-.835.762-.835 1.816-.234 2.446.615.674 1.611.791 2.534 0a11.6 11.6 0 018.32-3.515c6.036 0 10.87 4.394 11.748 9.946H41.29c-1.172 0-1.523.937-.805 1.933l3.706 5.142c.571.806 1.48.806 2.065 0zM31.826 47.746c4.19 0 7.984-1.772 10.65-4.512.82-.776.82-1.83.234-2.46-.63-.674-1.611-.777-2.549.014a11.559 11.559 0 01-8.335 3.516c-6.02 0-10.854-4.38-11.733-9.947h2.256c1.186 0 1.523-.937.806-1.919l-3.692-5.156c-.586-.805-1.494-.805-2.065 0l-3.706 5.142c-.718.996-.396 1.933.805 1.933h2.124c.909 7.398 7.369 13.39 15.205 13.39z" fill="#101010" fill-rule="nonzero"/></g></svg>