<svg width="64" height="64" xmlns="http://www.w3.org/2000/svg"><defs><linearGradient x1="50%" y1="0%" x2="50%" y2="100%" id="a"><stop stop-color="#FFEB8B" offset="0%"/><stop stop-color="#EBB439" offset="100%"/></linearGradient></defs><g fill="none" fill-rule="evenodd"><rect fill="url(#a)" width="64" height="64" rx="32"/><path d="M45.495 45.83c2.513 0 4.113-1.827 4.113-4.13 0-.686-.176-1.371-.545-2.022L35.985 16.282a4.027 4.027 0 00-3.55-2.092c-1.39 0-2.796.703-3.552 2.092l-13.06 23.414a3.806 3.806 0 00-.563 2.004c0 2.303 1.6 4.13 4.114 4.13h26.12z" fill="#000" fill-rule="nonzero"/><path d="M32.434 34.387c-.896 0-1.406-.51-1.441-1.441l-.246-8.016c-.036-.931.685-1.617 1.67-1.617.984 0 1.722.703 1.687 1.635l-.246 7.998c-.035.95-.545 1.441-1.424 1.441zm0 6.17c-1.002 0-1.916-.756-1.916-1.828 0-1.055.897-1.828 1.916-1.828 1.02 0 1.916.756 1.916 1.828s-.914 1.828-1.916 1.828z" fill="#FFF" fill-rule="nonzero"/></g></svg>